<svg width="77" height="44" viewBox="0 0 77 44" fill="none" xmlns="http://www.w3.org/2000/svg">
<g clip-path="url(#clip0_2212_78)">
<path fill-rule="evenodd" clip-rule="evenodd" d="M9.4503 7.04522L9.17866 6.30935C9.17866 6.30935 4.18407 5.63444 2.02412 0C2.02412 0 -0.622135 10.9292 12.6968 13.9163C13.3233 14.0556 14.4712 14.4693 15.1766 14.5433C15.8819 14.6173 16.4252 14.5346 16.9422 14.3561C16.9422 14.3561 16.7407 15.0919 16.0659 15.1616C16.0659 15.1616 16.2018 17.7089 12.8939 17.7089C9.58612 17.7089 9.18304 13.7508 9.18304 13.7508C9.18304 13.7508 6.48421 12.2094 5.33633 11.0686C5.33633 11.0686 1.89269 13.5505 0.140198 17.7785L3.51374 20.7307C3.51374 20.7307 6.88728 19.9252 9.79203 20.4608C9.79203 20.4608 10.1294 20.5957 10.3309 20.9963C10.5325 21.3969 11.2072 22.9427 14.0418 22.9427C16.8765 22.9427 17.4154 21.5319 17.4154 21.5319C17.4154 21.5319 15.8644 20.8614 15.8644 19.8555L16.7407 19.7902L17.4154 19.3199C17.4154 19.3199 18.7648 19.2546 19.5753 19.6552C19.5753 19.6552 19.0364 18.3794 19.0364 17.3083V14.761C19.0364 14.761 23.2205 16.8424 25.3147 13.2196L24.4385 12.0135C24.4385 12.0135 30.1078 7.51984 30.7168 3.29184C30.7168 3.29184 26.3969 6.97991 21.8754 8.1904L21.4023 8.86096C21.4023 8.86096 16.136 6.7143 12.6267 6.7143C11.0757 6.7143 9.45468 7.04958 9.45468 7.04958L9.4503 7.04522Z" fill="white"/>
<path fill-rule="evenodd" clip-rule="evenodd" d="M25.3804 14.0905C25.3804 14.0905 24.7715 15.166 24.64 15.9018C24.5042 16.6421 23.628 19.2546 19.9828 18.1835C19.9828 18.1835 20.456 19.259 20.1186 19.5943C19.7812 19.9295 18.6334 21.5406 18.6334 21.5406C18.6334 21.5406 19.9828 22.9514 21.5381 22.9514C23.0934 22.9514 24.0354 22.1459 24.0354 20.1342H26.467C26.467 20.1342 25.2534 19.6639 25.3892 14.0948L25.3804 14.0905Z" fill="white"/>
<path fill-rule="evenodd" clip-rule="evenodd" d="M14.2433 25.8949C14.2433 25.8949 14.2433 27.9066 15.9301 27.9066C17.6169 27.9066 17.9542 26.966 17.9542 26.966C17.9542 26.966 18.09 28.2418 17.4153 28.5074C17.4153 28.5074 18.2916 30.2535 16.8063 31.0547C15.3211 31.8602 11.7417 30.5844 11.7417 30.5844C11.7417 30.5844 11.5401 28.6381 12.3506 27.3623C12.3506 27.3623 13.297 27.5626 13.5642 27.5626C13.8315 27.5626 13.4985 26.3564 14.239 25.8862L14.2433 25.8949Z" fill="white"/>
<path fill-rule="evenodd" clip-rule="evenodd" d="M19.3738 23.0124C19.3738 23.0124 19.1022 25.0241 18.2916 25.8296C18.2916 25.8296 19.9784 25.8296 20.4516 23.548C20.4516 23.548 19.7769 23.0124 19.3694 23.0124H19.3738Z" fill="white"/>
<path fill-rule="evenodd" clip-rule="evenodd" d="M16.1317 23.2127C16.1317 23.2127 15.3912 25.2243 15.3912 25.8949C15.3912 25.8949 14.7165 25.7599 14.9181 23.6133C14.9181 23.6133 15.457 22.8774 16.1317 23.2127Z" fill="white"/>
<path fill-rule="evenodd" clip-rule="evenodd" d="M9.4503 20.931C9.4503 20.931 4.99459 20.1255 0 23.548L0.271636 24.0835C0.271636 24.0835 4.18845 21.4013 9.65622 21.4666L9.45468 20.931H9.4503Z" fill="white"/>
<path fill-rule="evenodd" clip-rule="evenodd" d="M9.65186 21.8715C9.65186 21.8715 5.53351 21.9368 1.95844 25.4943L2.36151 25.9645C2.36151 25.9645 6.47986 22.4768 10.125 22.6117C10.125 22.6117 9.98922 21.8759 9.65186 21.8759V21.8715Z" fill="white"/>
<path fill-rule="evenodd" clip-rule="evenodd" d="M10.3967 22.8121C10.3967 22.8121 7.69782 23.6176 4.52582 27.3057L4.79745 27.641C4.79745 27.641 8.10528 24.2185 10.8041 23.413C10.8041 23.413 10.8041 22.8077 10.401 22.8077L10.3967 22.8121Z" fill="white"/>
<path fill-rule="evenodd" clip-rule="evenodd" d="M24.5699 20.5305C24.5699 20.5305 28.4867 20.9311 29.5645 23.2824V23.7526C29.5645 23.7526 28.0135 21.336 24.6356 21.336L24.5699 20.5305Z" fill="white"/>
<path fill-rule="evenodd" clip-rule="evenodd" d="M24.5042 21.6712L24.1668 22.3418C24.1668 22.3418 27.4746 23.0777 28.6882 25.3593L28.9599 25.2243C28.9599 25.2243 28.0135 22.2068 24.5042 21.6669V21.6712Z" fill="white"/>
<path fill-rule="evenodd" clip-rule="evenodd" d="M23.8295 22.6771L23.2906 23.1473C23.2906 23.1473 26.5984 24.6234 27.4747 26.7048C27.4747 26.7048 28.0836 25.0284 23.8295 22.6814V22.6771Z" fill="white"/>
<path d="M58.6602 41.0217C57.4203 41.0217 56.417 40.0245 56.417 38.7923C56.417 37.56 57.4203 36.5629 58.6602 36.5629C59.1377 36.5629 59.5802 36.7109 59.9439 36.9635L61.3459 34.2508C60.5441 33.7631 59.6065 33.4844 58.6208 33.4844C56.0928 33.4844 53.9328 35.3567 53.4903 37.7734C53.004 35.1303 50.7389 33.5628 48.1058 33.5671C47.8035 33.5671 47.0806 33.6412 46.5724 33.8153V36.7762C47.5231 36.4845 47.8736 36.3974 48.246 36.3974C49.5122 36.3974 50.5374 37.4163 50.5374 38.6747C50.5374 39.9331 49.5122 40.952 48.246 40.952C46.9798 40.952 45.9546 39.9331 45.9546 38.6747C45.9546 38.5354 45.9546 30.014 45.9546 30.014H43.0455V37.8126C42.5942 35.3785 40.3949 33.4844 37.8318 33.4844C35.2688 33.4844 33.1177 35.3829 32.6927 37.8169C32.2239 35.1477 29.9456 33.5628 27.2994 33.5671C26.9971 33.5671 26.2742 33.6412 25.766 33.8153V36.7762C26.7167 36.4845 27.0672 36.3974 27.4396 36.3974C28.7058 36.3974 29.731 37.4163 29.731 38.6747C29.731 39.9331 28.7058 40.952 27.4396 40.952C26.1734 40.952 25.1482 39.9331 25.1482 38.6747C25.1482 38.5354 25.1482 30.014 25.1482 30.014H22.2391V38.74C22.2391 41.4789 24.4078 43.9739 27.26 43.9739C29.8799 43.9739 32.2677 42.1364 32.7102 39.6588C33.1658 42.0536 35.2732 43.9956 37.8318 43.9956C40.3905 43.9956 42.752 41.9491 43.0849 39.3844C43.3916 41.8577 45.4377 43.9739 48.0664 43.9739C50.6951 43.9739 53.0478 42.1581 53.5079 39.7023C53.981 42.0797 56.0753 43.9956 58.6208 43.9956C59.6153 43.9956 60.5529 43.7082 61.3546 43.2162L60.0841 40.5166C59.6985 40.8301 59.2035 41.0217 58.6602 41.0217ZM37.8713 41.0217C36.6314 41.0217 35.6281 40.0245 35.6281 38.7923C35.6281 37.56 36.6314 36.5629 37.8713 36.5629C39.1112 36.5629 40.1145 37.56 40.1145 38.7923C40.1145 40.0245 39.1112 41.0217 37.8713 41.0217Z" fill="white"/>
<path d="M77 36.4279V33.6455H74.9627V30.6759H72.001V33.6455H70.1784V36.1971C69.3284 34.6252 67.7249 33.4975 65.8059 33.4975C62.888 33.4975 60.2593 35.7704 60.2856 38.6704C60.3119 41.9317 62.8092 43.9086 65.7665 43.9042C66.0688 43.9042 66.7917 43.8302 67.2999 43.656V40.6951C66.3492 40.9868 65.9987 41.0739 65.6263 41.0739C64.3601 41.0739 63.3349 40.055 63.3349 38.7966C63.3349 37.5382 64.3601 36.5193 65.6263 36.5193C66.8925 36.5193 67.9177 37.5382 67.9177 38.7966C67.9177 38.8707 67.9177 41.3744 67.9177 43.6734H70.8268V38.7313C70.8268 37.9258 70.6384 37.1377 70.2967 36.4279H72.001V40.0507C72.001 40.0507 71.6198 43.8737 75.3 43.8737H76.943V41.0565H76.0405C76.0405 41.0565 74.9583 40.7865 74.9583 39.6152V36.4279H76.9956H77Z" fill="white"/>
</g>
<defs>
<clipPath id="clip0_2212_78">
<rect width="77" height="44" fill="white"/>
</clipPath>
</defs>
</svg>
