<svg width="126" height="23" viewBox="0 0 126 23" fill="none" xmlns="http://www.w3.org/2000/svg">
<g clip-path="url(#clip0_2212_95)">
<path d="M12.5913 0C14.4047 0.378516 16.0312 0.974965 17.6065 1.97516L17.5019 2.25045C14.6495 5.58598 10.2373 7.8456 11.3431 13.0645C12.0417 16.3634 15.6062 18.2169 17.4485 20.7128C17.4997 20.7817 17.6599 20.8482 17.5575 20.9331C11.4009 25.3996 2.67669 22.2797 0.480602 14.9043C0.298151 14.2895 0.258101 13.6289 0 13.0416V9.86435C0.373801 4.81518 4.77264 0.307401 9.70994 0H12.5913Z" fill="white"/>
<path d="M18.7412 3.07631C18.9637 3.03731 20.3343 4.67754 20.2631 4.9643L15.5817 9.81159C14.8275 10.8072 14.8564 12.1974 15.5795 13.2068L20.2631 18.0518C20.3299 18.3202 18.986 19.9512 18.7279 19.9512C18.6144 19.9512 18.5276 19.8686 18.4564 19.7884C16.9991 17.6457 13.4524 15.5054 12.8361 12.9567C11.7147 8.31818 16.2848 6.08838 18.7435 3.0786L18.7412 3.07631Z" fill="white"/>
<path d="M21.2332 6.24663C22.744 9.60051 22.8419 13.599 21.0753 16.8772L19.5422 15.2668C20.4233 12.7823 20.5257 10.3254 19.5467 7.85245C19.5667 7.74922 20.8105 6.46456 20.964 6.35674C21.053 6.29251 21.0708 6.20534 21.231 6.24892L21.2332 6.24663Z" fill="white"/>
<path d="M117.572 3.21165C107.205 3.55575 107.203 18.6689 117.116 19.3984C128.75 20.254 129.015 2.83313 117.572 3.21165ZM119.694 15.1429C113.867 17.9852 110.957 7.65519 117.572 7.04269C122.146 6.62058 123.757 13.1609 119.694 15.1429Z" fill="white"/>
<path d="M63.969 12.6012C66.3075 11.874 67.1285 10.0754 66.906 7.61852C66.7058 5.41624 64.8657 3.94118 62.7986 3.72554C60.6671 3.50302 58.1907 3.89071 56.0235 3.72554V18.8501H59.8661V13.1517C61.2456 14.9204 62.2624 16.9965 63.5485 18.8501H68.2966L63.8155 12.7663C63.7799 12.5278 63.8511 12.6379 63.969 12.6012ZM59.8639 10.5205V6.79496C60.854 6.73761 62.3848 6.75596 62.7964 7.8938C63.5485 9.97449 61.5148 10.7132 59.8639 10.5228V10.5205Z" fill="white"/>
<path d="M105.695 12.6011C107.483 12.0253 108.494 10.8049 108.636 8.82516C108.841 5.95991 107.185 4.01228 104.417 3.72552C102.319 3.50759 99.8829 3.8884 97.7491 3.72552V18.8501H101.592V13.1517L105.274 18.8501H110.022L105.539 12.7686C105.508 12.5231 105.581 12.6379 105.699 12.6011H105.695ZM101.587 10.5205V6.79494C102.873 6.64812 104.64 6.93717 104.662 8.60264C104.684 10.3186 102.902 10.6237 101.587 10.5227V10.5205Z" fill="white"/>
<path d="M79.9245 9.25874C80.2138 6.26502 78.8409 4.03981 75.8172 3.72552C73.719 3.50759 71.2826 3.8884 69.1488 3.72552V18.8501H72.9914V13.1517L76.5136 18.8501H81.3151L76.8362 12.7686C78.4382 12.2272 79.7532 11.0779 79.9267 9.26103L79.9245 9.25874ZM72.9892 10.5205V6.79494C74.2886 6.67106 75.9863 6.91653 75.9863 8.60264C75.9863 10.3163 74.3309 10.6099 72.9892 10.5205Z" fill="white"/>
<path d="M45.7195 3.72095C45.6015 3.73701 45.4814 3.71406 45.4057 3.83565L39.8032 18.8501H43.9639C44.024 18.4395 44.7672 16.3175 44.9941 16.2372C46.7118 16.2372 48.474 16.1477 50.165 16.2854C50.4877 17.1342 50.7102 18.077 51.1663 18.8501H55.1668L49.5709 3.71865C48.3605 3.84941 46.892 3.56954 45.7172 3.71865L45.7195 3.72095ZM45.9931 13.2595L47.5395 8.43748L49.0859 13.2595H45.9909H45.9931Z" fill="white"/>
<path d="M87.4428 3.72091C87.3249 3.73467 87.2092 3.7232 87.1247 3.83332L81.5266 18.8501H85.5271C86.0055 18.272 86.1279 16.9529 86.5506 16.3955C86.6797 16.2257 86.7108 16.2372 86.9066 16.2142C88.3773 16.0376 90.2575 16.3152 91.7705 16.2739C91.9974 16.3886 92.6449 18.4371 92.7295 18.8501H96.8902L91.3433 3.77826C91.1764 3.67503 87.8545 3.66815 87.4406 3.71862L87.4428 3.72091ZM87.7165 13.2595L89.2629 8.43745L90.8093 13.2595H87.7143H87.7165Z" fill="white"/>
<path d="M27.7392 12.1148C28.0262 16.6226 32.1825 19.6759 36.4278 19.2745C37.329 19.1896 38.1789 18.818 39.0556 18.6322V13.9202C35.9717 17.2328 30.6584 14.8286 31.8732 10.1075C32.7543 6.68481 36.944 6.265 39.0556 8.77009V4.05814C33.2972 1.62417 27.3209 5.56532 27.7392 12.1194V12.1148Z" fill="white"/>
</g>
<defs>
<clipPath id="clip0_2212_95">
<rect width="126" height="23" fill="white"/>
</clipPath>
</defs>
</svg>
