<svg width="83" height="26" viewBox="0 0 83 26" fill="none" xmlns="http://www.w3.org/2000/svg">
<g clip-path="url(#clip0_2212_107)">
<path fill-rule="evenodd" clip-rule="evenodd" d="M6.91614 17.9498L0 26H75.498L78.3383 17.9498H6.91614Z" fill="#FFCC00"/>
<path fill-rule="evenodd" clip-rule="evenodd" d="M20.2771 7.27273H26.2507C26.2507 7.27273 28.1358 0 18.3921 0C9.59087 0 7.22818 6.80878 7.22818 8.97806C7.06896 9.1348 6.28565 16.094 16.0294 16.094C24.0473 16.094 25.6203 10.2132 25.6203 10.2132H19.3346C19.3346 10.2132 18.3921 11.7618 16.3478 11.7618C14.4627 11.7618 13.2018 10.3699 13.8323 8.20063C14.4627 6.34483 16.3478 4.79624 18.3921 4.79624C20.2771 4.79624 20.4363 6.4953 20.2771 7.27273Z" fill="white"/>
<path fill-rule="evenodd" clip-rule="evenodd" d="M66.3338 0.771179H83L81.8983 4.953H71.524L71.212 6.34485H81.5862L80.6437 10.0564H70.2695L69.951 11.2978H80.1724L79.0707 15.6301H62.2516L66.3338 0.771179Z" fill="white"/>
<path fill-rule="evenodd" clip-rule="evenodd" d="M30.4985 15.6301H23.4232L34.8991 0.771179H41.1848L44.1716 15.7806H37.2554L37.0962 14.5455H31.4347L30.4921 15.6301H30.4985ZM33.4853 11.4546H36.7842L36.4721 7.27902L33.4853 11.4546Z" fill="white"/>
<path fill-rule="evenodd" clip-rule="evenodd" d="M63.1941 5.88088L56.9085 5.72414V5.10345C56.5964 4.48276 56.1252 4.17555 55.0234 4.17555C53.4504 4.17555 52.9791 4.48276 52.9791 4.94671C52.9791 5.25392 53.2912 5.5674 54.2337 5.87461C55.1763 6.18182 58.1631 6.64577 59.7361 7.26646C61.6211 7.88715 62.4108 8.81505 62.2516 10.5141C62.2516 10.5141 62.4108 13.1473 59.424 14.6897C56.278 16.2382 52.9791 16.0815 52.9791 16.0815C52.9791 16.0815 48.2601 15.9248 46.2222 14.5329C44.1779 12.8276 44.4964 10.2006 44.3372 10.2006H50.9412C50.9412 10.2006 50.6292 12.2132 53.4568 12.2132C55.3418 12.2132 55.501 11.5925 55.6603 11.442C55.6603 11.1348 55.6603 10.9781 54.8769 10.6708C54.0936 10.5141 48.9033 9.12226 47.9608 8.50157C47.4895 8.03762 46.2286 7.10972 46.2286 5.40439C46.3878 3.08464 49.0562 0.144202 54.8769 0.294672C60.6913 0.294672 62.1051 2.30721 62.2643 2.46395C62.4235 2.62069 63.3661 3.69906 63.2069 5.86834L63.1941 5.88088Z" fill="white"/>
<path d="M20.7166 22.9529L21.4043 23.1222C21.2579 23.6802 21.0031 24.1003 20.6274 24.3949C20.2517 24.6833 19.7931 24.8338 19.2582 24.8338C18.7232 24.8338 18.2456 24.721 17.8953 24.4952C17.5451 24.2695 17.2776 23.9498 17.0929 23.5235C16.9082 23.0971 16.8191 22.6394 16.8191 22.1567C16.8191 21.6238 16.921 21.1598 17.1311 20.7648C17.3349 20.3699 17.6342 20.0689 18.01 19.862C18.3921 19.6551 18.8124 19.5548 19.2709 19.5548C19.7868 19.5548 20.2262 19.6865 20.5828 19.9435C20.9394 20.2006 21.1814 20.5705 21.3216 21.0407L20.6465 21.1974C20.5255 20.8275 20.3536 20.5579 20.1243 20.3887C19.895 20.2194 19.6084 20.1316 19.2582 20.1316C18.857 20.1316 18.5258 20.2257 18.2583 20.4137C17.9909 20.6018 17.7998 20.8526 17.6915 21.1724C17.5833 21.4921 17.526 21.8181 17.526 22.1504C17.526 22.583 17.5896 22.9655 17.717 23.2852C17.8444 23.6112 18.0482 23.8495 18.3156 24.0125C18.5895 24.1755 18.8824 24.2507 19.1945 24.2507C19.5766 24.2507 19.9078 24.1442 20.1689 23.9247C20.4363 23.7053 20.6147 23.3793 20.7102 22.9529H20.7166Z" fill="#1D1D1B"/>
<path d="M22.0412 22.257C22.0412 21.4106 22.2705 20.7461 22.7354 20.2633C23.2002 19.7805 23.7925 19.5423 24.5249 19.5423C25.0025 19.5423 25.4356 19.6551 25.8177 19.8809C26.1998 20.1066 26.4927 20.42 26.6965 20.8213C26.9003 21.2225 27.0022 21.6802 27.0022 22.1943C27.0022 22.7084 26.8939 23.1787 26.6838 23.5862C26.4736 23.9937 26.1679 24.3072 25.7795 24.5141C25.391 24.7272 24.9707 24.8276 24.5185 24.8276C24.0281 24.8276 23.5951 24.7147 23.2066 24.4765C22.8245 24.2445 22.5316 23.9247 22.3341 23.5235C22.1367 23.1222 22.0348 22.6959 22.0348 22.2508L22.0412 22.257ZM22.7481 22.2696C22.7481 22.884 22.9137 23.373 23.2512 23.7241C23.5887 24.0752 24.009 24.257 24.5185 24.257C25.028 24.257 25.461 24.0752 25.7922 23.7178C26.1234 23.3605 26.2953 22.8526 26.2953 22.1943C26.2953 21.7805 26.2253 21.4169 26.0788 21.1034C25.9387 20.7962 25.7285 20.5517 25.4547 20.3824C25.1808 20.2131 24.8688 20.1254 24.5313 20.1254C24.0473 20.1254 23.6269 20.2884 23.2767 20.6207C22.9264 20.953 22.7481 21.4984 22.7481 22.2696Z" fill="#1D1D1B"/>
<path d="M27.881 24.7461V19.6364H28.5879L31.3136 23.6489V19.6364H31.9696V24.7461H31.2627L28.537 20.7335V24.7461H27.881Z" fill="#1D1D1B"/>
<path d="M32.8867 23.1034L33.5362 23.047C33.5681 23.3041 33.6381 23.511 33.7528 23.674C33.8674 23.837 34.0393 23.9686 34.275 24.069C34.5106 24.1693 34.7781 24.2194 35.071 24.2194C35.3321 24.2194 35.5614 24.1818 35.7652 24.1066C35.9626 24.0313 36.1155 23.9248 36.211 23.7931C36.3065 23.6614 36.3575 23.511 36.3575 23.3542C36.3575 23.1975 36.3129 23.0533 36.2174 22.9342C36.1218 22.815 35.969 22.7147 35.7525 22.6332C35.6124 22.5768 35.3067 22.4953 34.829 22.3824C34.3514 22.2696 34.0202 22.163 33.8292 22.0627C33.5808 21.9373 33.3961 21.7743 33.2751 21.5862C33.1541 21.3981 33.0904 21.1849 33.0904 20.953C33.0904 20.6959 33.1669 20.4577 33.3133 20.232C33.4598 20.0063 33.6763 19.837 33.9629 19.7241C34.2495 19.605 34.5679 19.5486 34.9182 19.5486C35.3003 19.5486 35.6442 19.6113 35.9371 19.7304C36.2301 19.8495 36.4594 20.0313 36.6122 20.2696C36.7714 20.5078 36.8542 20.7774 36.8669 21.0721L36.211 21.1223C36.1728 20.7962 36.0581 20.558 35.8544 20.3887C35.6506 20.2257 35.3512 20.1442 34.95 20.1442C34.5488 20.1442 34.2304 20.2194 34.0393 20.3699C33.8483 20.5204 33.7528 20.7022 33.7528 20.9091C33.7528 21.0909 33.8228 21.2414 33.9566 21.3605C34.0903 21.4796 34.4342 21.5987 34.9946 21.7241C35.555 21.8495 35.9371 21.9561 36.1409 22.0501C36.4403 22.1881 36.6631 22.3636 36.8096 22.5705C36.9561 22.7837 37.0262 23.0219 37.0262 23.2978C37.0262 23.5737 36.9497 23.8244 36.7905 24.069C36.6313 24.3072 36.4084 24.4953 36.1091 24.627C35.8161 24.7586 35.4786 24.8276 35.1092 24.8276C34.638 24.8276 34.2431 24.7586 33.9311 24.627C33.6127 24.4953 33.3643 24.2884 33.186 24.0188C33.0077 23.7492 32.9121 23.442 32.8994 23.1034H32.8867Z" fill="#1D1D1B"/>
<path d="M39.2806 24.7461V20.2382H37.5739V19.6364H41.6879V20.2382H39.9684V24.7461H39.2806Z" fill="#1D1D1B"/>
<path d="M42.3947 24.7461V19.6364H44.6938C45.1587 19.6364 45.5089 19.6802 45.7509 19.7743C45.9929 19.8683 46.184 20.0313 46.3304 20.2633C46.4769 20.4953 46.547 20.7523 46.547 21.0345C46.547 21.3981 46.426 21.7053 46.1903 21.9498C45.9547 22.2006 45.5853 22.3574 45.0886 22.4263C45.2733 22.5141 45.407 22.5956 45.5025 22.6834C45.7 22.8652 45.891 23.0909 46.0693 23.3605L46.9737 24.7523H46.1076L45.4198 23.6865C45.2223 23.3793 45.0568 23.1473 44.923 22.9843C44.7957 22.8213 44.6746 22.7085 44.5728 22.6458C44.4709 22.5831 44.3626 22.5329 44.2607 22.5078C44.1843 22.489 44.0569 22.4827 43.8786 22.4827H43.0825V24.7523H42.3947V24.7461ZM43.0825 21.8934H44.56C44.8721 21.8934 45.1204 21.8621 45.2988 21.7994C45.4771 21.7367 45.6108 21.6364 45.7 21.4922C45.7891 21.3542 45.8401 21.1975 45.8401 21.0345C45.8401 20.79 45.7509 20.5956 45.5726 20.4389C45.3943 20.2821 45.1141 20.2069 44.7256 20.2069H43.0825V21.8997V21.8934Z" fill="#1D1D1B"/>
<path d="M51.024 19.6364H51.7118V22.5893C51.7118 23.1034 51.6545 23.511 51.5335 23.8119C51.4125 24.1128 51.2023 24.3574 50.8966 24.5454C50.5909 24.7335 50.1834 24.8276 49.6866 24.8276C49.1899 24.8276 48.8014 24.7461 48.4957 24.5831C48.1837 24.4201 47.9671 24.1818 47.8334 23.8683C47.6997 23.5548 47.636 23.1285 47.636 22.5893V19.6364H48.3238V22.5831C48.3238 23.0282 48.3684 23.3542 48.4511 23.5611C48.5339 23.7743 48.6804 23.931 48.8842 24.0501C49.088 24.163 49.3364 24.2194 49.6357 24.2194C50.1388 24.2194 50.5018 24.1066 50.7183 23.8809C50.9348 23.6552 51.0431 23.2226 51.0431 22.5831V19.6364H51.024Z" fill="#1D1D1B"/>
<path d="M56.5582 22.9529L57.246 23.1222C57.0995 23.6802 56.8448 24.1003 56.469 24.3949C56.0933 24.6833 55.6411 24.8338 55.0998 24.8338C54.5585 24.8338 54.0872 24.721 53.737 24.4952C53.3867 24.2695 53.1192 23.9498 52.9345 23.5235C52.7499 23.0971 52.6607 22.6394 52.6607 22.1567C52.6607 21.6238 52.7626 21.1598 52.9728 20.7648C53.1765 20.3699 53.4759 20.0689 53.8516 19.862C54.2337 19.6551 54.654 19.5548 55.1126 19.5548C55.6348 19.5548 56.0678 19.6865 56.4245 19.9435C56.7811 20.2006 57.0231 20.5705 57.1632 21.0407L56.4881 21.1974C56.3671 20.8275 56.1952 20.5579 55.9659 20.3887C55.7367 20.2194 55.4501 20.1316 55.0998 20.1316C54.6986 20.1316 54.3674 20.2257 54.1 20.4137C53.8325 20.6018 53.6414 20.8526 53.5332 21.1724C53.4249 21.4921 53.3676 21.8181 53.3676 22.1504C53.3676 22.583 53.4313 22.9655 53.5587 23.2852C53.686 23.6112 53.8898 23.8495 54.1573 24.0125C54.4311 24.1755 54.7241 24.2507 55.0361 24.2507C55.4182 24.2507 55.7494 24.1442 56.0105 23.9247C56.278 23.7053 56.4563 23.3793 56.5518 22.9529H56.5582Z" fill="#1D1D1B"/>
<path d="M59.4112 24.7461V20.2382H57.7045V19.6364H61.8185V20.2382H60.099V24.7461H59.4112Z" fill="#1D1D1B"/>
<path d="M62.6337 24.7461V19.6364H63.3215V24.7461H62.6337Z" fill="#1D1D1B"/>
<path d="M64.3213 22.257C64.3213 21.4106 64.5506 20.7461 65.0155 20.2633C65.4804 19.7805 66.0726 19.5423 66.805 19.5423C67.2826 19.5423 67.7157 19.6551 68.0978 19.8809C68.4799 20.1066 68.7729 20.42 68.9766 20.8213C69.1804 21.2225 69.2823 21.6802 69.2823 22.1943C69.2823 22.7084 69.1741 23.1787 68.9639 23.5862C68.7538 23.9937 68.4481 24.3072 68.0596 24.5141C67.6711 24.7272 67.2508 24.8276 66.7986 24.8276C66.3083 24.8276 65.8752 24.7147 65.4867 24.4765C65.1046 24.2445 64.8117 23.9247 64.6143 23.5235C64.4168 23.1222 64.3149 22.6959 64.3149 22.2508L64.3213 22.257ZM65.0346 22.2696C65.0346 22.884 65.2002 23.373 65.5377 23.7241C65.8752 24.0752 66.2955 24.257 66.805 24.257C67.3145 24.257 67.7475 24.0752 68.0787 23.7178C68.4099 23.3605 68.5818 22.8526 68.5818 22.1943C68.5818 21.7805 68.5117 21.4169 68.3653 21.1034C68.2252 20.7962 68.015 20.5517 67.7412 20.3824C67.4673 20.2131 67.1553 20.1254 66.8177 20.1254C66.3337 20.1254 65.9134 20.2884 65.5632 20.6207C65.2129 20.9467 65.0346 21.4984 65.0346 22.2696Z" fill="#1D1D1B"/>
<path d="M70.1676 24.7461V19.6364H70.8745L73.6002 23.6489V19.6364H74.2561V24.7461H73.5492L70.8235 20.7335V24.7461H70.1676Z" fill="#1D1D1B"/>
</g>
<defs>
<clipPath id="clip0_2212_107">
<rect width="83" height="26" fill="white"/>
</clipPath>
</defs>
</svg>
