<svg width="59" height="55" viewBox="0 0 59 55" fill="none" xmlns="http://www.w3.org/2000/svg">
<path fill-rule="evenodd" clip-rule="evenodd" d="M2 53.5827H56.7303V2H2V53.5827Z" fill="black" stroke="black" stroke-width="2.80147" stroke-miterlimit="2.613"/>
<path fill-rule="evenodd" clip-rule="evenodd" d="M54.1107 46.6984H54.0214C52.5479 46.6984 51.2681 47.8445 51.2681 49.3701C51.2681 50.9405 52.5479 52.0866 54.0214 52.0866C54.0513 52.0866 54.0808 52.0793 54.1107 52.0793C55.5397 52.0345 56.7385 50.9031 56.7385 49.3701C56.7382 47.8743 55.5397 46.7432 54.1107 46.6984ZM54.1107 51.6251C54.0808 51.6251 54.0513 51.6324 54.0214 51.6324C52.8083 51.6324 51.8332 50.6874 51.8332 49.3701C51.8332 48.1126 52.8083 47.1597 54.0214 47.1597H54.1107C55.2796 47.2041 56.2096 48.1418 56.2096 49.3701C56.2096 50.6502 55.2796 51.5806 54.1107 51.6251Z" fill="white"/>
<path fill-rule="evenodd" clip-rule="evenodd" d="M55.2641 48.7151C55.2641 48.1125 54.8921 47.8445 54.1631 47.8445H52.9942V50.9405H53.4636V49.5858H54.0065L54.1104 49.7643L54.8101 50.9405H55.3463L54.4604 49.5709C54.9222 49.5041 55.2641 49.2735 55.2641 48.7151ZM54.0214 49.1843H53.4636V48.2466H54.1107C54.4232 48.2466 54.7657 48.3136 54.7657 48.7008C54.7657 49.1325 54.4677 49.1769 54.1107 49.1769C54.0808 49.1767 54.0513 49.1843 54.0214 49.1843ZM49.3927 42.0621V17.4428H54.0662V12.345H38.7723V17.4428H43.4464V38.4298L47.7997 42.0621H49.3927ZM12.3819 41.6676C12.0916 41.9055 11.6675 42.0621 11.2879 42.0621H10.7371C10.0748 42.0621 9.39001 41.9207 8.78713 41.6752C8.18425 41.4223 7.59629 41.0348 7.13506 40.5736C6.66593 40.1045 6.27903 39.5168 6.02617 38.9139C5.77227 38.2976 5.64076 37.6378 5.63898 36.9712V17.4428C5.63898 16.7878 5.78033 16.1106 6.02617 15.4928C6.28245 14.8739 6.65941 14.3122 7.13506 13.8405C7.6039 13.3789 8.18425 12.9847 8.78713 12.7316C9.39001 12.486 10.0745 12.3447 10.7371 12.3447H14.9869C15.6415 12.3447 16.3264 12.4787 16.9369 12.7316C17.5474 12.9844 18.1277 13.3789 18.5889 13.8405C19.0505 14.302 19.445 14.8826 19.6981 15.4928C19.9513 16.103 20.085 16.7878 20.085 17.4428V24.2302H14.1384V18.7153C14.1384 18.3954 13.9971 18.0457 13.7662 17.8148C13.5356 17.5839 13.1782 17.4428 12.8583 17.4428C12.5309 17.4428 12.1811 17.5915 11.9578 17.8148C11.7272 18.0457 11.5932 18.3951 11.5932 18.7153V35.6987C11.5932 36.0186 11.7494 36.3833 11.9578 36.5919C12.1887 36.8225 12.5382 36.9712 12.8583 36.9712C13.1858 36.9712 13.5429 36.8149 13.7662 36.5919C13.9822 36.3759 14.1384 36.0186 14.1384 35.6987V28.4797H20.0847V32.8705C20.0847 33.6074 19.9062 34.3815 19.6013 35.0288C19.296 35.6987 18.8049 36.3162 18.2541 36.7778L12.3819 41.6676Z" fill="white"/>
<path fill-rule="evenodd" clip-rule="evenodd" d="M45.1503 42.062H14.5552L29.8491 29.3281L45.1503 42.062Z" fill="#FADF3C" stroke="#FADF3C" stroke-width="2.80147" stroke-miterlimit="2.613"/>
<path fill-rule="evenodd" clip-rule="evenodd" d="M38.6236 34.4186L33.92 12.3447H25.7854L21.0821 34.4186L29.849 27.1176V27.1249L38.6236 34.4186ZM28.1522 25.4211L29.8488 17.4428V17.4651L31.5532 25.4211H28.1522Z" fill="white"/>
</svg>
