<svg width="95" height="50" viewBox="0 0 95 50" fill="none" xmlns="http://www.w3.org/2000/svg">
<path fill-rule="evenodd" clip-rule="evenodd" d="M29.1264 19.3506H23.2268V29.9296H29.0382C32.4322 29.9296 34.6508 28.4012 34.6508 24.4193C34.6508 20.937 32.5351 19.3506 29.1264 19.3506ZM28.6857 27.4603H26.6945V21.8189H28.6121C30.4636 21.8189 31.1837 22.4068 31.1837 24.6104C31.1832 26.6087 30.3018 27.4603 28.6857 27.4603ZM55.5697 24.4959L50.8641 19.3506H48.0031V29.9296H51.324L51.2887 24.8953L55.6554 29.9296H58.9022V19.3506H55.5823L55.5697 24.4959ZM42.3057 19.3506H39.3544L34.7421 29.9296H37.9909L38.3893 29.1072H43.2128L43.5718 29.9296H46.9175L42.3057 19.3506ZM39.5011 26.4982L40.8061 23.5984L42.0627 26.4982H39.5011ZM67.562 19.3506H64.6112L59.9994 29.9296H63.2482L63.6461 29.1072H68.4696L68.8292 29.9296H72.1748L67.562 19.3506ZM64.7584 26.4982L66.0634 23.5984L67.32 26.4982H64.7584Z" fill="white"/>
<path fill-rule="evenodd" clip-rule="evenodd" d="M47.1685 0L94.3371 24.3573L47.1685 8.69913L0 24.3573L47.1685 0ZM47.1685 49.2253L94.3371 24.8686L47.1685 40.5267L0 24.8686L47.1685 49.2253Z" fill="white"/>
</svg>
