<svg width="106" height="41" viewBox="0 0 106 41" fill="none" xmlns="http://www.w3.org/2000/svg">
<path d="M96.4674 20.0252C96.0474 20.5881 95.213 21.1334 95.5907 21.887C96.1096 22.2134 96.728 21.8518 97.1913 21.5941C98.2588 20.8229 99.1298 19.7112 99.2027 18.455L99.094 18.4541C98.1678 18.8598 97.2721 19.3425 96.4674 20.0252ZM87.0584 22.0134C87.0867 22.2887 87.3937 22.4292 87.6711 22.3706C89.1652 21.9544 90.2036 20.5767 90.5379 19.1694C90.5379 19.1694 90.594 19.0628 90.5075 18.9492C90.42 18.836 90.2177 18.8906 90.2177 18.8906C88.8923 19.4302 87.3959 20.4366 87.0584 22.0134ZM76.8439 12.59C79.1353 10.785 81.7491 8.52332 83.2645 6.03919C83.719 5.29439 84.2534 3.94749 84.2388 3.55461C84.226 3.16085 84.2189 3.18596 84.1262 3.03092C84.022 2.94943 83.9447 2.92036 83.6364 3.02607C83.2861 3.14587 82.5229 3.82681 81.9885 4.31086C79.7832 6.86723 78.1923 9.67421 76.8439 12.59ZM42.9849 24.8477C42.5931 25.733 41.8604 26.8147 42.5282 27.8009C42.8338 27.9731 43.2048 27.8383 43.4968 27.7793C45.3337 26.9072 46.8102 25.0027 47.7169 23.2942C47.9992 22.6688 48.4841 21.7218 47.8433 21.088C47.1397 20.7912 46.429 21.1981 45.8566 21.6077C44.6349 22.4398 43.7017 23.7047 42.9849 24.8477ZM23.4316 26.9759C26.7901 26.0867 30.1459 25.533 33.6983 25.1644L34.461 24.1139C35.9473 21.2615 37.7904 17.6908 36.1297 14.3804C35.5869 13.1811 34.3162 12.6182 33.2743 12.2103L23.4316 26.9759ZM9.50964 37.079C9.613 37.6159 10.196 37.8207 10.6399 37.9462C14.584 38.6897 20.6296 36.2862 24.8949 33.6408C27.6001 31.8103 30.5452 29.4182 32.6126 26.7698C28.8885 27.3499 25.1563 28.2942 21.7029 29.5204L18.8537 33.7417C18.3241 34.549 17.6081 35.6775 16.5022 35.5458C16.1493 35.4502 16.0168 35.1383 16.1555 34.7609L18.4199 30.6273C16.0468 31.4179 13.7625 32.4247 11.6897 33.9553C10.6606 34.7666 9.41469 35.6832 9.50964 37.079ZM4.79391 10.4146C12.9671 7.40502 22.0991 5.46132 31.5235 6.83023L32.5521 5.16886C34.4991 4.8629 36.4539 4.60896 38.4144 4.40732L35.7975 8.35507C38.3402 9.44958 40.4823 12.0896 40.6895 14.8799C40.7032 18.6356 38.9921 21.7817 37.0148 24.7076L39.7461 24.3592C41.6709 21.299 46.9701 17.3217 49.2946 20.3652L50.0887 19.2839L53.6424 18.8091L49.1343 26.4188C49.1029 26.5395 49.1449 26.7385 49.3542 26.7156C50.427 26.2417 51.3749 25.4736 52.2229 24.6975C54.3866 22.7186 56.2558 20.533 57.6603 18.1846L61.059 17.8164L59.1554 21.1413C60.7489 19.8979 62.3487 18.0568 64.2615 17.261C64.7712 17.0359 65.3993 17.2099 65.8591 17.4283C66.3007 17.8001 66.4509 18.2766 66.4302 18.8435C65.7358 20.9836 64.2289 22.7793 63.1348 24.7622C63.0893 24.9243 63.0403 25.0829 63.255 25.1459C65.9562 23.7748 68.6173 21.1726 70.5593 18.7069L67.4416 19.0818L68.5824 16.9465L71.5058 16.6646C75.1214 10.9947 78.6795 4.74118 84.5568 0.607565C85.3125 0.262253 86.3482 -0.418241 87.1251 0.354748C87.8066 1.55673 87.0253 2.91288 86.5549 4.01312C84.0873 8.55944 79.2448 12.2411 75.1894 15.4551L74.859 16.2347L81.7681 15.4674C81.9055 15.53 81.8569 15.7894 81.8105 15.8964C79.55 17.778 77.1328 19.9336 76.8311 22.8111C76.7344 23.3017 77.0855 23.5959 77.4525 23.7985C79.0938 24.1958 80.19 22.5631 81.2531 21.4862C81.8608 20.7092 82.7018 19.8548 82.9823 18.9228C82.405 18.6642 82.045 17.9137 82.0777 17.3975C82.1802 16.0951 82.7707 14.9548 83.8537 14.1677C84.2225 13.929 84.764 13.8382 85.2065 14.0259C85.5285 14.243 85.9097 14.5685 85.9521 14.9675C86.1106 16.1034 85.6363 17.0742 85.2184 18.0273C87.4966 17.6631 89.4002 16.1167 91.2115 14.5073L91.446 14.1567C91.5202 12.6094 91.81 11.1101 93.0489 10.094C93.6672 9.66981 94.471 9.07961 95.2365 9.60726C95.7947 9.87241 95.6189 11.0819 95.6189 11.0819C95.3093 12.6072 92.4689 13.6471 92.9994 15.8414C93.0683 16.1325 92.8545 16.5144 93.1451 16.654C95.456 16.062 97.6939 14.9772 99.8241 13.9237C100.045 13.2811 99.8356 12.5746 100.041 11.9324C100.359 10.7551 101.107 9.48922 102.326 8.96377C102.711 8.85982 103.142 8.83251 103.494 9.0197C103.936 9.40686 104.131 9.97592 103.911 10.541C103.682 12.0104 102.429 13.1031 101.389 14.1668C101.106 16.6624 102.068 19.1853 101.095 21.4285C100.093 23.4594 97.9483 24.4826 95.7961 24.572C94.9366 24.5033 93.9706 24.2024 93.6707 23.2815C93.1628 21.5606 94.4052 20.0838 95.7369 19.0536C96.898 18.0978 98.2085 17.5265 99.5361 16.9557C100.032 16.5302 99.9968 15.6767 99.9102 15.1089C98.7208 15.6846 97.3132 16.3237 96.0178 16.8487L93.1142 17.9806C93.0776 20.4172 92.4296 22.9331 90.2659 24.2478C88.8932 24.8794 86.8729 25.6286 85.4689 24.527C84.828 23.9862 84.775 23.0656 84.9503 22.3468C85.7286 19.4566 88.8874 18.5343 91.1408 17.3887C91.4831 16.9478 91.3661 16.3334 91.2782 15.8722C89.3119 17.5415 86.8734 19.0148 84.336 19.2381C82.4977 22.042 79.6141 26.1021 75.7901 25.8391C75.1134 25.8475 74.579 25.5216 74.0896 25.1194C73.0252 23.8981 73.61 22.0486 74.2354 20.8136C74.8763 19.5165 76.1151 18.4999 77.078 17.4204C75.9853 17.4865 73.8865 17.8018 73.8865 17.8018L68.2516 28.2559L69.8513 28.1621L78.8963 27.2591L89.8613 26.5434L102.146 26.0682C103.098 26.0003 104.113 26.0536 105.098 26.0475L102.899 27.9753C103.891 28.6725 104.929 29.4332 106 30.0247L105.969 30.1018L97.1184 29.7948L86.0824 29.897L71.7373 30.5088C70.1062 30.6779 68.4318 30.7409 66.7853 30.8484L63.6622 36.5086L59.8325 36.7812L63.0483 31.2915L63.1304 31.1501L55.9908 31.5826L42.9151 32.863L32.2668 34.242C32.5932 33.8307 32.6466 33.0343 33.3683 33.0559L47.3764 30.6797L55.9161 29.5574L64.546 28.699L67.3086 23.9395C67.1713 23.8012 67.0366 23.9523 66.9231 24.0447C65.0954 25.5907 63.2236 27.046 60.9296 27.4261C60.4848 27.3908 60.1023 27.2195 59.7666 26.9398C58.7517 25.1838 60.8103 23.1885 61.3703 22.1601C61.3703 22.1601 61.9896 21.2069 62.3915 20.3067C62.3915 20.3067 62.4467 20.2362 62.3778 20.1538C62.3067 20.0701 62.1994 20.1248 62.1994 20.1248C59.4902 22.3393 56.8017 25.0754 54.9325 27.9097C53.8999 27.9669 52.8872 28.0594 51.8863 28.1889C52.2481 27.242 52.7719 26.2144 53.3107 25.2899C51.6244 26.5624 49.9977 28.0044 48.1012 28.7377C47.5765 28.9487 46.4847 29.0623 45.8054 27.6758C43.9495 29.0091 41.8286 30.6924 39.44 29.7521C38.8137 29.2865 38.6048 28.5796 38.5483 27.8432C38.5284 27.1539 38.6953 26.4994 38.9467 25.9193L38.9705 25.9215L36.0157 26.2082C29.5748 33.1722 21.7934 38.4734 13.062 40.4502C10.6288 40.9351 7.76769 41.2941 5.26827 40.6589C4.42511 40.422 3.55502 39.6789 3.37879 38.7725C3.32049 36.5495 5.39547 34.8358 7.12726 33.6408C11.0687 31.0836 15.3715 29.435 19.7949 28.0797L20.5121 26.9055L29.187 11.1321H29.2374C18.6421 9.98341 9.22256 13.8558 0.742009 18.6559L0 19.0324L4.79391 10.4146Z" fill="white"/>
</svg>
