<svg width="134" height="13" viewBox="0 0 134 13" fill="none" xmlns="http://www.w3.org/2000/svg">
<g clip-path="url(#clip0_2212_126)">
<path d="M134 0.655401L132.956 3.37407C130.772 3.27698 127.998 2.33299 126.384 4.32345C125.385 5.63424 124.061 7.81349 124.981 9.10271C126.532 10.9664 131.816 8.81142 131.816 8.81142L130.487 12.3069C126.453 12.7438 121.271 13.7498 118.264 12.0506C116.461 10.6347 117.568 7.75146 118.051 5.99565C118.66 4.19129 119.317 2.11992 121.265 1.24606C125.013 -0.744392 129.87 0.124073 134 0.655401Z" fill="white"/>
<path d="M29.7151 0.849548C30.2372 2.20888 30.3796 3.71386 30.9492 5.02465L34.4619 0.849548H40.5378C38.2567 3.57092 35.195 6.52154 32.8822 9.21054C32.4102 10.2759 32.0726 11.1794 31.7087 12.3068H23.7341L25.0632 8.61718C24.2562 5.94706 23.3069 3.37403 22.2151 0.849548H29.7151Z" fill="white"/>
<path d="M51.4555 0.849548C51.9302 3.37403 52.4523 5.84996 52.9745 8.3259C54.1612 5.99561 54.7783 3.27693 55.8226 0.849548H60.8542L56.3922 12.3068H46.8986C46.2815 9.83088 46.0441 7.2093 45.1897 4.83046L42.2467 12.3068H37.1201L41.5821 0.849548H51.4555Z" fill="white"/>
<path d="M10.1582 3.37137C9.42771 5.42926 8.61547 7.47635 8.06959 9.39129C9.30376 9.39129 10.5485 9.53424 11.7721 9.32656C13.1487 9.11079 14.5121 6.36245 14.135 4.37199C13.8396 2.91556 11.3924 3.37137 10.1582 3.37137ZM18.7025 0.811829C19.6993 0.811829 20.9308 1.77469 21.1708 2.98569C21.5505 6.28693 20.7436 9.63673 17.848 11.3359C14.6096 13.1349 6.02846 12.1801 0 12.3069L4.36707 0.849588L18.7025 0.811829Z" fill="white"/>
<path d="M89.3694 3.19873C88.5229 4.98421 88.2328 5.70163 87.6262 7.06367C88.4807 7.06367 91.1415 7.65973 91.9801 6.49728C94.4933 3.07736 92.1384 3.19873 89.3694 3.19873ZM97.1436 0.943958C98.2723 0.943958 98.9395 1.70184 99.0845 2.57031C99.4168 5.34022 97.3757 8.36097 95.6352 9.40475C93.7813 10.5213 89.6094 10.2651 86.4896 10.2651L85.5403 12.3041H78.6099L83.0719 0.846863L97.1462 0.943958H97.1436Z" fill="white"/>
<path d="M70.3478 7.74332V3.56822L67.3099 7.74332H70.3478ZM76.9934 12.3068H69.9681C70.0156 11.7728 70.2054 11.1902 69.5884 10.8504C68.3173 10.8504 66.2972 10.8558 65.0024 10.8558C64.5409 11.201 64.2877 11.6568 63.7972 12.3068H57.7213L66.9301 0.749756H77.563L76.9934 12.3041V12.3068Z" fill="white"/>
<path d="M107.98 7.72984L108.336 3.41988L104.541 7.7703L107.98 7.72714M114.728 12.3068H107.798C107.798 11.7728 108.077 10.8504 107.323 10.8504C105.865 10.8504 103.85 10.7722 102.481 10.8342C102.025 11.3035 101.78 11.5327 101.152 12.3068H94.6964L103.905 0.749756H115.105L114.725 12.3041L114.728 12.3068Z" fill="white"/>
</g>
<defs>
<clipPath id="clip0_2212_126">
<rect width="134" height="13" fill="white"/>
</clipPath>
</defs>
</svg>
