<svg width="124" height="39" viewBox="0 0 124 39" fill="none" xmlns="http://www.w3.org/2000/svg">
<g clip-path="url(#clip0_2207_45)">
<path d="M14.3045 24.5664L16.4362 17.6766H8.527V15.5954H17.0845L19.1133 8.99328H8.527V6.99433H19.7044L21.8628 -0.000108867H0V24.5664H14.3045ZM84.4196 15.4422L79.8014 -0.000108867H67.9834V24.5664H75.3663V9.16889H75.4197L79.9959 24.5664H91.917V-0.000108867H84.4692V15.4422H84.4234H84.4196ZM60.5661 18.2744C63.2508 18.2744 65.4016 16.0923 65.4016 13.3349C65.4016 10.5775 63.3843 8.1115 60.6615 8.1115C57.9386 8.1115 55.7802 10.5924 55.7802 13.3349C55.7802 16.0774 57.7975 18.2744 60.5623 18.2744M56.6191 -0.000108867H33.8754V6.99433H41.0524V24.5664H52.5997C51.8866 24.1367 46.9862 20.3256 46.9862 13.2116C46.9862 7.30071 50.6472 1.51311 56.6191 -0.00384521M25.6992 18.0539L23.6704 24.5664H35.519L33.6122 18.0539H25.6992ZM29.7492 4.70769L31.9724 12.5578H27.3619L29.7492 4.70769Z" fill="white"/>
<path d="M21.5578 33.5076H22.698C23.3387 33.5076 23.8154 33.2087 24.048 32.1476C24.2997 30.993 23.8115 30.8996 23.2548 30.8996H22.126L21.5578 33.5076ZM21.6188 30.3878H23.5179C24.0937 30.3878 25.0242 30.4625 24.6848 32.0318C24.3912 33.3955 23.8039 34.0158 22.6179 34.0158H21.451L20.7645 37.1692H20.1506L21.6226 30.3915L21.6188 30.3878Z" fill="white"/>
<path d="M27.0416 36.1828C27.1903 35.9474 27.3924 35.0955 27.4573 34.7929C27.7623 33.3955 27.7509 32.7827 26.8013 32.7827C25.8518 32.7827 25.5772 33.3955 25.2721 34.7929C25.2073 35.0955 25.0395 35.9474 25.0853 36.1828C25.1081 36.2949 25.131 36.8142 25.928 36.8142C26.7251 36.8142 26.9691 36.2986 27.0416 36.1828ZM24.5857 35.3085L24.8298 34.1838C24.9594 33.5823 25.2416 32.3344 26.9005 32.3344C28.5594 32.3344 28.2962 33.5823 28.1666 34.1838L27.9225 35.3085C27.6556 36.5377 27.0683 37.2626 25.8327 37.2626C24.5971 37.2626 24.3226 36.5415 24.5895 35.3085" fill="white"/>
<path d="M29.0475 32.4278H29.6615L29.8445 36.5751H29.8598L31.7856 32.4278H32.4987L32.6703 36.5751H32.6894L34.6724 32.4278H35.2482L32.8877 37.1692H32.1669L31.9839 33.1115H31.9648L30.0695 37.1692H29.3488L29.0475 32.4278Z" fill="white"/>
<path d="M38.0817 34.4641C38.3105 33.4142 38.2724 32.7827 37.3533 32.7827C36.4342 32.7827 36.1253 33.4142 35.8965 34.4641H38.0817ZM35.8012 34.9162L35.7211 35.2824C35.58 35.94 35.5724 36.8105 36.4838 36.8105C37.2008 36.8105 37.6546 36.3622 37.7842 35.7195H38.3868C38.0702 36.8666 37.3533 37.2589 36.3847 37.2589C35.5495 37.2589 34.7906 36.9301 35.0995 35.4916L35.3512 34.3296C35.6487 32.9583 36.3694 32.3269 37.4524 32.3269C39.119 32.3269 38.8634 33.5001 38.5584 34.9087H35.7974L35.8012 34.9162Z" fill="white"/>
<path d="M40.6405 33.063H40.6596C40.9952 32.6146 41.5672 32.3306 42.1507 32.3306L42.0248 32.9023C41.224 32.835 40.5833 33.317 40.4117 34.1129L39.7482 37.1655H39.1723L40.202 32.424H40.7778L40.6405 33.063Z" fill="white"/>
<path d="M43.0049 31.1014L43.1613 30.3878H43.8706L43.7142 31.1014H43.0049ZM41.7541 37.1692L42.7837 32.4278H43.3596L42.3299 37.1692H41.7541Z" fill="white"/>
<path d="M44.2176 37.1692H43.6418L44.6714 32.4278H45.2473L45.1214 33.0107H45.1405C45.5028 32.6184 45.9375 32.3344 46.4562 32.3344C47.6536 32.3344 47.5888 33.2087 47.4553 33.829L46.7307 37.173H46.1549L46.8756 33.8588C46.9939 33.3059 46.8871 32.7865 46.2159 32.7865C45.6973 32.7865 45.0947 33.134 44.8659 34.1951L44.2176 37.173V37.1692Z" fill="white"/>
<path d="M48.9883 34.6883C48.7748 35.6747 48.5612 36.6611 49.6061 36.6611C50.0866 36.6611 50.4603 36.3509 50.5938 36.1268C50.8188 35.7606 50.9027 35.5439 51.204 34.154C51.4214 33.1601 50.9561 32.7827 50.4184 32.7827C49.4231 32.7827 49.1409 33.9858 48.9883 34.6883ZM51.6158 32.4166H52.1802C52.062 32.8687 52.0048 33.1041 51.9476 33.3469L51.0819 37.3373C50.857 38.3798 50.3955 39 49.015 39C47.8061 39 47.7489 38.1631 47.89 37.6848H48.4659C48.3095 38.2303 48.6527 38.5479 49.1905 38.5479C50.3116 38.5479 50.3726 37.9576 50.6777 36.5378H50.6586C50.3231 36.9413 49.8273 37.1094 49.3659 37.1094C47.9739 37.1094 48.1341 35.9362 48.3629 34.8826C48.5994 33.7841 48.6146 33.7729 48.8549 33.2685C48.9464 33.0704 49.4421 32.3306 50.4184 32.3306C50.9065 32.3306 51.3451 32.5735 51.4633 32.9957L51.4786 33.0144L51.6082 32.4128L51.6158 32.4166Z" fill="white"/>
<path d="M57.0386 33.403C57.9195 33.403 58.3276 32.8126 58.4954 32.0429C58.7394 30.9146 58.1102 30.8959 57.6221 30.8959H56.4056L55.8602 33.403H57.0386ZM55.1509 36.6611H56.1272C57.1416 36.6611 57.706 36.3211 57.9195 35.3272C58.0492 34.7256 58.0454 33.9074 56.9929 33.9074H55.7458L55.1471 36.6611H55.1509ZM54.4302 37.1692L55.9022 30.3915H57.828C58.911 30.3915 59.3725 30.8249 59.1132 32.0168C58.9377 32.8313 58.6784 33.3955 57.7556 33.6309V33.6496C58.6212 33.8364 58.7318 34.4305 58.5488 35.2824C58.2856 36.5041 57.5458 37.1692 56.3865 37.1692H54.4302Z" fill="white"/>
<path d="M63.2203 32.4278L62.1907 37.1692H61.6911L61.8055 36.6424H61.7864C61.3631 37.0459 60.9703 37.2626 60.4326 37.2626C59.4373 37.2626 59.3115 36.549 59.4793 35.7793L60.2076 32.4278H60.7797L60.0742 35.6859C60.0437 35.8167 59.7996 36.8143 60.6348 36.8143C61.4127 36.8143 61.8436 36.1006 61.9161 35.7718L62.6407 32.4278H63.2165H63.2203Z" fill="white"/>
<path d="M64.597 37.2626C63.5521 37.2626 63.247 36.7657 63.4758 35.7606H64.0593C63.9182 36.4107 63.9792 36.8404 64.7152 36.8404C65.272 36.8404 65.6076 36.5303 65.722 36.0035C65.9889 34.763 63.7466 35.0843 64.086 33.515C64.2767 32.6407 64.9555 32.3306 65.7983 32.3306C66.7555 32.3306 66.9233 32.9808 66.7669 33.7019H66.2025C66.3055 33.1003 66.2101 32.7827 65.558 32.7827C65.1462 32.7827 64.7648 33.048 64.6695 33.4702C64.414 34.6546 66.6563 34.3333 66.3131 35.9213C66.1186 36.8142 65.4932 37.2626 64.5932 37.2626" fill="white"/>
<path d="M68.3457 31.1014L68.502 30.3878H69.2113L69.055 31.1014H68.3457ZM67.0987 37.1692L68.1283 32.4278H68.7042L67.6745 37.1692H67.0987Z" fill="white"/>
<path d="M69.5698 37.1695H68.994L70.0236 32.4281H70.5994L70.4736 33.0109H70.4927C70.855 32.6186 71.2897 32.3347 71.8083 32.3347C73.0058 32.3347 72.9409 33.209 72.8075 33.8292L72.0829 37.1732H71.5071L72.2278 33.8591C72.346 33.3061 72.2393 32.7868 71.5681 32.7868C71.0494 32.7868 70.4469 33.1342 70.2181 34.1954L69.5736 37.1732L69.5698 37.1695Z" fill="white"/>
<path d="M76.579 34.4641C76.8078 33.4142 76.7697 32.7827 75.8506 32.7827C74.9316 32.7827 74.6227 33.4142 74.3939 34.4641H76.579ZM74.2947 34.9162L74.2146 35.2824C74.0735 35.94 74.0659 36.8105 74.9773 36.8105C75.6943 36.8105 76.1481 36.3622 76.2778 35.7195H76.8803C76.5638 36.8666 75.8468 37.2589 74.8782 37.2589C74.043 37.2589 73.2842 36.9301 73.593 35.4916L73.8447 34.3296C74.1422 32.9583 74.8629 32.3269 75.946 32.3269C77.6125 32.3269 77.357 33.5001 77.0519 34.9087H74.2909L74.2947 34.9162Z" fill="white"/>
<path d="M78.8366 37.2626C77.7917 37.2626 77.4866 36.7657 77.7154 35.7606H78.2989C78.1578 36.4107 78.2188 36.8404 78.9548 36.8404C79.5116 36.8404 79.8472 36.5303 79.9616 36.0035C80.2285 34.763 77.9862 35.0843 78.3256 33.515C78.5163 32.6407 79.1951 32.3306 80.0379 32.3306C80.9951 32.3306 81.1628 32.9808 81.0065 33.7019H80.4421C80.5451 33.1003 80.4497 32.7827 79.7976 32.7827C79.3858 32.7827 79.0044 33.048 78.9091 33.4702C78.6536 34.6546 80.8959 34.3333 80.5527 35.9213C80.362 36.8142 79.7366 37.2626 78.8328 37.2626" fill="white"/>
<path d="M82.4976 37.2626C81.4527 37.2626 81.1476 36.7657 81.3764 35.7606H81.9599C81.8188 36.4107 81.8798 36.8404 82.6158 36.8404C83.1726 36.8404 83.5082 36.5303 83.6226 36.0035C83.8895 34.763 81.6472 35.0843 81.9866 33.515C82.1773 32.6407 82.8561 32.3306 83.6988 32.3306C84.656 32.3306 84.8238 32.9808 84.6675 33.7019H84.1031C84.206 33.1003 84.1107 32.7827 83.4586 32.7827C83.0467 32.7827 82.6654 33.048 82.5739 33.4702C82.3184 34.6546 84.5607 34.3333 84.2175 35.9213C84.023 36.8142 83.3976 37.2626 82.4976 37.2626Z" fill="white"/>
<path d="M90.9674 30.3878H91.7911L91.8941 36.3323H91.9131L94.6779 30.3878H95.2805L92.0962 37.1692H91.2877L91.2076 31.1388H91.1886L88.4543 37.1692H87.6878L87.4895 30.3878H88.1416L88.2407 36.3809H88.2598L90.9674 30.3878Z" fill="white"/>
<path d="M96.9851 36.1829C97.1338 35.9475 97.3359 35.0956 97.4008 34.793C97.7059 33.3956 97.6906 32.7828 96.741 32.7828C95.7915 32.7828 95.5169 33.3956 95.2118 34.793C95.147 35.0956 94.9792 35.9475 95.025 36.1829C95.0478 36.295 95.0707 36.8144 95.8677 36.8144C96.6648 36.8144 96.9088 36.2987 96.9813 36.1829M94.5292 35.3086L94.7733 34.184C94.9029 33.5824 95.1851 32.3345 96.8402 32.3345C98.4953 32.3345 98.2359 33.5824 98.1063 34.184L97.8622 35.3086C97.5953 36.5379 97.008 37.2627 95.7724 37.2627C94.5368 37.2627 94.2623 36.5416 94.5292 35.3086Z" fill="white"/>
<path d="M100.112 33.063H100.131C100.471 32.6146 101.039 32.3306 101.622 32.3306L101.496 32.9023C100.696 32.835 100.055 33.317 99.8796 34.1129L99.216 37.1655H98.6402L99.6698 32.424H100.246L100.108 33.063H100.112Z" fill="white"/>
<path d="M101.275 37.1692L102.747 30.3878H103.319L101.851 37.1692H101.275Z" fill="white"/>
<path d="M106.134 35.2226L106.317 34.3782C106.378 34.0979 106.664 32.7827 105.581 32.7827C104.498 32.7827 104.345 33.7019 104.105 34.8116C103.724 36.5751 104.105 36.8143 104.727 36.8143C105.272 36.8143 105.886 36.3808 106.134 35.2263M105.871 36.5677L105.848 36.5751C105.451 37.0272 105.039 37.2626 104.471 37.2626C103.071 37.2626 103.289 35.9026 103.529 34.7929C103.727 33.8812 104.063 32.3344 105.546 32.3344C105.989 32.3344 106.374 32.5324 106.595 32.8986L106.61 32.906L107.156 30.3915H107.732L106.466 36.2314C106.363 36.7022 106.324 37.0123 106.321 37.1692H105.764L105.867 36.5677H105.871Z" fill="white"/>
<path d="M107.987 32.4278H108.601L108.784 36.5751H108.803L110.729 32.4278H111.438L111.61 36.5751H111.629L113.612 32.4278H114.188L111.827 37.1692H111.107L110.923 33.1115H110.904L109.009 37.1692H108.292L107.987 32.4278Z" fill="white"/>
<path d="M115.126 31.1014L115.279 30.3878H115.988L115.831 31.1014H115.122H115.126ZM113.875 37.1692L114.905 32.4278H115.481L114.451 37.1692H113.879H113.875Z" fill="white"/>
<path d="M118.707 35.2226L118.89 34.3782C118.951 34.0979 119.237 32.7827 118.154 32.7827C117.071 32.7827 116.918 33.7019 116.678 34.8116C116.297 36.5751 116.678 36.8143 117.3 36.8143C117.845 36.8143 118.459 36.3808 118.707 35.2263M118.444 36.5677L118.421 36.5751C118.024 37.0272 117.612 37.2626 117.044 37.2626C115.645 37.2626 115.862 35.9026 116.102 34.7929C116.301 33.8812 116.636 32.3344 118.12 32.3344C118.562 32.3344 118.947 32.5324 119.168 32.8986L119.184 32.906L119.729 30.3915H120.305L119.039 36.2314C118.936 36.7022 118.898 37.0123 118.894 37.1692H118.337L118.44 36.5677H118.444Z" fill="white"/>
<path d="M123.302 34.4641C123.531 33.4142 123.493 32.7827 122.574 32.7827C121.655 32.7827 121.346 33.4142 121.117 34.4641H123.302ZM121.018 34.9162L120.938 35.2824C120.793 35.94 120.789 36.8105 121.697 36.8105C122.417 36.8105 122.867 36.3622 122.997 35.7195H123.6C123.283 36.8666 122.566 37.2589 121.597 37.2589C120.762 37.2589 120 36.9301 120.312 35.4916L120.564 34.3296C120.861 32.9583 121.582 32.3269 122.665 32.3269C124.332 32.3269 124.076 33.5001 123.771 34.9087H121.01L121.018 34.9162Z" fill="white"/>
</g>
<defs>
<clipPath id="clip0_2207_45">
<rect width="124" height="39" fill="white"/>
</clipPath>
</defs>
</svg>
