<svg width="80" height="31" viewBox="0 0 80 31" fill="none" xmlns="http://www.w3.org/2000/svg">
<g clip-path="url(#clip0_2208_126)">
<path d="M0.0166016 0H79.9834V31H0.0166016V0Z" fill="#FCAF26"/>
<mask id="mask0_2208_126" style="mask-type:luminance" maskUnits="userSpaceOnUse" x="4" y="4" width="72" height="23">
<path d="M4.49304 4.42792H75.2948V26.8749H4.49304V4.42792Z" fill="white"/>
</mask>
<g mask="url(#mask0_2208_126)">
<path d="M75.3395 25.5903C75.3395 26.2969 74.9041 26.8749 74.3723 26.8749H5.45337C4.92142 26.8749 4.48615 26.2969 4.48615 25.5903V5.71234C4.48615 5.00567 4.92142 4.4278 5.45337 4.4278H74.3722C74.904 4.4278 75.3394 5.00567 75.3394 5.71234L75.3395 25.5903Z" fill="#231F20"/>
</g>
<path d="M67.8829 18.5391C67.8853 18.5774 67.8869 18.6168 67.8869 18.6566L67.8872 18.6494C67.8873 18.6121 67.8847 18.5758 67.8829 18.5391Z" fill="#204595"/>
<path d="M22.3445 23.0482C21.1862 24.2142 19.4716 24.4809 16.9458 24.4809H13.3545C8.32656 24.4809 6.72778 23.2423 6.72778 18.9684V16.6367H11.5471C11.5471 16.8554 11.5239 17.0739 11.5239 17.2683C11.5239 19.405 12.0337 20.0853 14.0497 20.0853H16.3668C18.2203 20.0853 18.5446 19.3568 18.5446 17.5841V6.63139H23.6886V19.3083C23.6885 20.8381 23.1553 22.2228 22.3445 23.0482ZM43.1193 12.8239C43.1193 11.4158 42.2615 10.8328 40.4082 10.8328H36.2837C32.9473 10.8328 32.1363 11.294 32.1363 14.3055V16.7586C32.1363 19.5271 33.2716 20.0853 36.2837 20.0853H39.2729C42.1227 20.0853 43.258 19.7697 43.258 17.6566V17.4623H48.4712C48.4944 17.9241 48.5177 18.3369 48.5177 18.7499C48.5177 20.9352 48.0308 22.3925 46.8261 23.3156C45.5518 24.3109 43.536 24.5054 40.5934 24.5054H34.8473C32.1825 24.5054 30.3058 24.3841 28.8461 23.1938C27.4326 22.0285 26.8996 20.4255 26.8996 18.0211V13.2127C26.8996 7.91847 29.1007 6.41272 34.8473 6.41272H40.5934C43.5362 6.41272 45.5287 6.55854 46.7568 7.55409C47.8457 8.42867 48.3091 9.8855 48.3091 11.9982C48.3091 12.3139 48.3091 12.654 48.2859 12.994H43.1194V12.8239H43.1193ZM51.8278 24.2868V6.63139H67.0043C70.7812 6.63139 72.6117 8.23439 72.6117 11.5614C72.6117 13.4557 71.824 14.621 70.1327 15.3015C72.2639 15.6655 73.1913 16.9768 73.1913 19.5027C73.1913 22.9027 71.5229 24.2868 67.7922 24.2868H51.8278ZM67.3288 12.0468C67.3288 11.1728 66.7957 10.5903 66.0081 10.5903H56.9716V13.5041H66.0081C66.8655 13.5041 67.3288 12.9941 67.3288 12.0468ZM67.8847 18.6526C67.8847 17.7055 67.3288 17.0983 66.4715 17.0983H56.9716V20.2799H66.4715C67.375 20.2799 67.8847 19.6969 67.8847 18.6526Z" fill="white"/>
<path d="M6.72778 6.51331H13.7317V13.5519H6.72778V6.51331Z" fill="#FCAF26"/>
<path d="M11.8456 10.0814C11.8456 10.0814 11.9609 10.077 11.9933 10.0747C12.0261 10.0724 12.0875 10.0693 12.1249 10.1446C12.1347 10.164 12.1927 10.3511 12.2001 10.3729C12.2073 10.3952 12.2244 10.4963 12.1481 10.5143C12.134 10.5174 11.9985 10.5453 11.9985 10.5453L11.8456 10.0814ZM11.5855 9.222C11.5855 9.222 11.7347 9.23351 11.7716 9.23662C11.8083 9.24007 11.8342 9.25757 11.8489 9.2914C11.8583 9.31235 11.9141 9.4843 11.9206 9.50294C11.927 9.52159 11.9553 9.62471 11.8726 9.62713C11.8599 9.62747 11.7115 9.62713 11.7115 9.62713L11.5855 9.222ZM11.0596 8.72998C11.0596 8.72998 11.6864 8.82401 11.7448 8.83403C12.0059 8.87776 12.1196 9.09851 12.1515 9.20186C12.1624 9.2357 12.2348 9.47601 12.2441 9.50214C12.3154 9.70458 12.1347 9.80909 12.1347 9.80909C12.1347 9.80909 12.341 9.84856 12.4109 10.0225C12.4109 10.0225 12.5417 10.4228 12.5547 10.4632C12.5673 10.504 12.6606 10.8235 12.3427 10.941C12.3002 10.9567 11.7885 11.0996 11.7885 11.0996L11.0596 8.72998ZM8.52332 8.33142L9.55055 8.49278L9.71642 9.07906L9.47685 9.05777C9.47685 9.05777 10.0671 11.0406 10.0877 11.1021C10.1617 11.3255 10.2067 11.557 9.88345 11.6684C9.84154 11.6829 9.54034 11.7739 9.50378 11.783C9.31725 11.8288 9.07988 11.8296 8.98795 11.5257L8.61246 10.2996L9.07384 10.2657C9.07384 10.2657 9.26467 10.8949 9.27941 10.9415C9.32154 11.0731 9.34778 11.1237 9.47894 11.0918C9.57539 11.0683 9.57133 11.0276 9.54591 10.9408C9.53523 10.904 8.97971 9.01679 8.97971 9.01679L8.71692 8.99608L8.52332 8.33142Z" fill="#231F20"/>
<path d="M8.52332 8.33142L9.55055 8.49278L9.71642 9.07906L9.47685 9.05777C9.47685 9.05777 10.0671 11.0406 10.0877 11.1021C10.1617 11.3255 10.2067 11.557 9.88345 11.6684C9.84154 11.6829 9.54034 11.7739 9.50378 11.783C9.31725 11.8288 9.07988 11.8296 8.98795 11.5257L8.61246 10.2996L9.07384 10.2657C9.07384 10.2657 9.26467 10.8949 9.27941 10.9415C9.32154 11.0731 9.34778 11.1237 9.47894 11.0918C9.57539 11.0683 9.57133 11.0276 9.54591 10.9408C9.53523 10.904 8.97971 9.01679 8.97971 9.01679L8.71692 8.99608L8.52332 8.33142Z" stroke="#231F20" stroke-width="0.326453" stroke-miterlimit="3.864"/>
<path d="M10.0555 8.56484C10.1002 8.57233 10.4307 8.62722 10.4862 8.63678C10.5421 8.64644 10.8495 8.69904 10.9312 8.99598C10.951 9.06906 11.1134 9.59123 11.1134 9.59123L10.7232 9.58732C10.7232 9.58732 10.6507 9.33481 10.6351 9.29142C10.5975 9.18473 10.5953 9.15734 10.4779 9.13904C10.3594 9.12488 10.3656 9.17679 10.3923 9.26449C10.4056 9.30983 10.7607 10.5412 10.7766 10.5939C10.8183 10.7341 10.8287 10.7895 10.9537 10.764C11.0622 10.7377 11.0416 10.6769 11.0138 10.5738C10.9741 10.439 10.9338 10.3045 10.893 10.17L11.2806 10.14C11.2806 10.14 11.4779 10.7942 11.4883 10.8247C11.4988 10.8552 11.5813 11.1202 11.3467 11.2342C11.3164 11.2488 11.3164 11.2511 11.2854 11.2619C11.2545 11.2726 10.9406 11.365 10.9108 11.3735C10.8809 11.3816 10.5819 11.4778 10.485 11.1691C10.4754 11.1393 9.84349 8.96951 9.80994 8.86293C9.75307 8.6827 9.81354 8.52882 10.0555 8.56484Z" fill="#231F20"/>
<path d="M10.0555 8.56484C10.1002 8.57233 10.4307 8.62722 10.4862 8.63678C10.5421 8.64644 10.8495 8.69904 10.9312 8.99598C10.951 9.06906 11.1134 9.59123 11.1134 9.59123L10.7232 9.58732C10.7232 9.58732 10.6507 9.33481 10.6351 9.29142C10.5975 9.18473 10.5953 9.15734 10.4779 9.13904C10.3594 9.12488 10.3656 9.17679 10.3923 9.26449C10.4056 9.30983 10.7607 10.5412 10.7766 10.5939C10.8183 10.7341 10.8287 10.7895 10.9537 10.764C11.0622 10.7377 11.0416 10.6769 11.0138 10.5738C10.9741 10.439 10.9338 10.3045 10.893 10.17L11.2806 10.14C11.2806 10.14 11.4779 10.7942 11.4883 10.8247C11.4988 10.8552 11.5813 11.1202 11.3467 11.2342C11.3164 11.2488 11.3164 11.2511 11.2854 11.2619C11.2545 11.2726 10.9406 11.365 10.9108 11.3735C10.8809 11.3816 10.5819 11.4778 10.485 11.1691C10.4754 11.1393 9.84349 8.96951 9.80994 8.86293C9.75307 8.6827 9.81354 8.52882 10.0555 8.56484Z" stroke="#231F20" stroke-width="0.326453" stroke-miterlimit="3.864"/>
<path d="M8.10836 7.98957C8.30127 8.0226 11.6509 8.59403 11.7996 8.62016C11.9484 8.64629 12.1986 8.68335 12.3034 9.00952C12.3239 9.07316 12.7783 10.4986 12.7967 10.5601C12.815 10.622 12.9471 10.9473 12.5739 11.0689C12.5183 11.0872 9.36936 12.1169 9.29299 12.1408C9.21673 12.1653 8.91889 12.2956 8.79667 11.8453C8.79667 11.8453 7.83536 8.65112 7.79113 8.50668C7.7548 8.38975 7.72927 8.29572 7.7237 8.22263C7.70466 7.96068 7.85973 7.95205 7.98706 7.97024C8.03465 7.97703 8.07748 7.98451 8.10836 7.98957ZM8.02084 7.8113C8.10546 7.82442 11.7624 8.45719 11.8557 8.47284C11.95 8.4893 12.3098 8.52958 12.4537 8.96026C12.4816 9.04312 12.9366 10.4779 12.9584 10.5496C13.0385 10.8148 13.0043 11.0921 12.6709 11.2088C12.5608 11.2471 9.42276 12.2916 9.38399 12.3046C9.29775 12.3334 8.83683 12.5477 8.6691 11.9891C8.6691 11.9891 7.65324 8.64042 7.62318 8.53914C7.57617 8.38215 7.5468 8.2491 7.54657 8.15093C7.54645 7.71565 7.93913 7.80243 8.02084 7.8113Z" fill="#231F20"/>
</g>
<defs>
<clipPath id="clip0_2208_126">
<rect width="80" height="31" fill="white"/>
</clipPath>
</defs>
</svg>
