<svg width="148" height="28" viewBox="0 0 148 28" fill="none" xmlns="http://www.w3.org/2000/svg">
<g clip-path="url(#clip0_2203_106)">
<path d="M0 6.27197H8.29392V26.2731H0V6.27197Z" fill="white"/>
<path d="M0 26.2731V6.27197H8.29392V26.2731H0ZM12.4379 6.27197H21.6554L17.2035 16.1906L22.0046 26.267H12.6333L8.29392 16.1906L12.4379 6.27197Z" fill="white"/>
<path d="M12.4379 6.27197H21.6554L17.2035 16.1906L22.0047 26.267H12.6333L8.29395 16.1906L12.4379 6.27197Z" fill="white"/>
<path d="M31.1392 19.1468C32.6666 19.1468 33.9098 17.8781 33.9098 16.3059C33.9098 14.7338 32.6725 13.4651 31.1392 13.4651C29.6119 13.4894 28.3864 14.7763 28.4101 16.3484C28.4338 17.8902 29.6415 19.1285 31.1392 19.1468ZM20.6016 16.312C20.6016 10.345 25.3199 5.50714 31.1333 5.50714C36.9527 5.50714 41.6709 10.345 41.6709 16.312C41.6709 22.2789 36.9527 27.1169 31.1333 27.1169C25.3199 27.1108 20.6016 22.2789 20.6016 16.312Z" fill="white"/>
<path d="M31.1392 19.1468C32.6666 19.1468 33.9098 17.8781 33.9098 16.3059C33.9098 14.7338 32.6725 13.4651 31.1392 13.4651C29.6119 13.4894 28.3864 14.7763 28.4101 16.3484C28.4338 17.8902 29.6415 19.1285 31.1392 19.1468ZM20.6016 16.312C20.6016 10.345 25.3199 5.50714 31.1333 5.50714C36.9527 5.50714 41.6709 10.345 41.6709 16.312C41.6709 22.2789 36.9527 27.1169 31.1333 27.1169C25.3199 27.1108 20.6016 22.2789 20.6016 16.312ZM42.0024 26.2731L44.9979 6.27198H52.3683L54.8251 13.9507L57.2819 6.27198H64.7293L67.6064 24.537L73.7869 6.27198H81.773L88.6106 26.2731H80.0858L77.8184 16.9797L75.5215 26.2731H60.2005L59.2 19.2682L57.128 26.2731H52.5223L50.5272 19.2682L49.2959 26.2731H42.0024Z" fill="white"/>
<path d="M42.0024 26.2731L44.998 6.27197H52.3684L54.8252 13.9507L57.282 6.27197H64.7293L67.6064 24.537L73.7869 6.27197H81.773L88.6106 26.2731H80.0858L77.8184 16.9797L75.5215 26.2731H60.2005L59.2 19.2682L57.128 26.2731H52.5223L50.5272 19.2682L49.2959 26.2731H42.0024ZM86.3077 6.27197H98.8996V0.110779H106.519V7.96554H98.9943V26.2731H90.8365V13.7504H86.3077V6.27197Z" fill="white"/>
<path d="M86.3076 6.27197H98.8995V0.110779H106.518V7.96554H98.9942V26.2731H90.8364V13.7504H86.3076V6.27197Z" fill="white"/>
<path d="M120.324 7.84414L118.287 13.3133C118.287 13.3133 116.139 11.7048 113.392 11.5833C112.237 11.5287 111.699 12.8034 113.64 13.1798C115.28 13.4954 117.05 14.0053 118.347 15.1587C121.141 17.6414 121.455 23.0984 116.784 25.6175C113.676 27.2929 107.377 26.9833 103.268 24.1485L105.382 18.7583C105.382 18.7583 108.644 21.1013 111.373 21.0042C112.527 20.9617 113.066 19.5899 111.124 19.2135C109.484 18.8979 107.697 18.4487 106.394 17.2893C103.6 14.8066 103.345 9.46487 107.957 6.83043C111.077 5.03973 115.991 5.06401 120.324 7.84414Z" fill="white"/>
<path d="M120.324 7.84414L118.287 13.3133C118.287 13.3133 116.139 11.7048 113.392 11.5833C112.237 11.5287 111.699 12.8034 113.64 13.1798C115.28 13.4954 117.05 14.0053 118.347 15.1587C121.141 17.6414 121.455 23.0984 116.784 25.6175C113.676 27.2929 107.377 26.9833 103.268 24.1485L105.382 18.7583C105.382 18.7583 108.644 21.1013 111.373 21.0042C112.527 20.9617 113.066 19.5899 111.124 19.2135C109.484 18.8979 107.697 18.4487 106.394 17.2893C103.6 14.8066 103.345 9.46487 107.957 6.83043C111.077 5.03973 115.991 5.06401 120.324 7.84414ZM122.402 6.27197H130.5V18.473C130.5 19.8691 132.537 19.8691 132.537 18.473V6.27197H140.6V19.4988C140.6 20.1301 140.6 26.5463 131.578 26.5463C122.402 26.5463 122.402 20.1301 122.402 19.4988V6.27197Z" fill="white"/>
<path d="M122.402 6.27197H130.501V18.473C130.501 19.8691 132.537 19.8691 132.537 18.473V6.27197H140.6V19.4988C140.6 20.1301 140.6 26.5463 131.578 26.5463C122.402 26.5463 122.402 20.1301 122.402 19.4988V6.27197ZM144.602 9.10673V8.08088H145.265C145.602 8.08088 145.964 8.15979 145.964 8.56649C145.964 9.07638 145.597 9.10673 145.182 9.10673H144.602ZM144.602 9.53164H145.164L146.011 10.9581H146.556L145.644 9.51343C146.117 9.45273 146.479 9.19778 146.479 8.60291C146.479 7.9534 146.1 7.66204 145.342 7.66204H144.117V10.9581H144.602V9.53164ZM145.194 12.16C146.709 12.16 148 10.9581 148 9.30704C148 7.66204 146.709 6.46622 145.194 6.46622C143.655 6.46622 142.358 7.66811 142.358 9.30704C142.358 10.9581 143.655 12.16 145.194 12.16ZM142.915 9.30704C142.915 7.9534 143.915 6.93362 145.194 6.93362C146.455 6.93362 147.449 7.94733 147.449 9.30704C147.449 10.6789 146.461 11.6865 145.194 11.6865C143.915 11.6865 142.915 10.6789 142.915 9.30704Z" fill="white"/>
</g>
<defs>
<clipPath id="clip0_2203_106">
<rect width="148" height="27" fill="white" transform="translate(0 0.110779)"/>
</clipPath>
</defs>
</svg>
