<svg width="109" height="15" viewBox="0 0 109 15" fill="none" xmlns="http://www.w3.org/2000/svg">
<g clip-path="url(#clip0_2212_437)">
<path fill-rule="evenodd" clip-rule="evenodd" d="M92.3574 1.79556e-06H103.345C106.789 1.79556e-06 108.092 2.36791 108.092 4.41047C108.092 7.88895 105.008 8.51272 105.008 8.51272L109 14.9976H100.966L99.2403 10.6898V14.9976H84.6309L82.9054 10.6898V14.9976H76.0224V1.79556e-06H87.0101C90.454 1.79556e-06 91.7566 2.36791 91.7566 4.41047C91.7566 7.88895 88.6732 8.51272 88.6732 8.51272L92.3574 14.4985V1.79556e-06ZM37.5053 2.85714V5.69716H38.5003C39.0266 5.69716 39.4183 5.37182 39.601 4.98777C39.7452 4.68444 39.8509 4.08758 39.5866 3.53474C39.2693 2.86204 38.6517 2.86448 38.5075 2.85714H37.5077H37.5053ZM30.5022 1.79556e-06C30.5022 1.79556e-06 40.5166 0.00244798 42.2277 1.79556e-06C45.4962 -0.00244439 46.2676 2.49511 46.2724 3.96282C46.282 6.59736 44.4676 7.2456 44.4676 7.2456C44.4676 7.2456 46.4214 7.99413 46.4214 10.8048C46.4214 15.181 42.4825 15 41.8721 15H30.4998V1.79556e-06H30.5022ZM75.3399 15V11.5558H72.1508V8.82094H75.3063V5.8366H72.1508V2.94765H75.3399V1.79556e-06H64.8641V15H75.3399ZM56.6569 15H63.9364V1.79556e-06H56.6569V5.68249H54.2945V1.79556e-06H46.8468V15H54.2945V8.69619H56.6569V15ZM29.8485 15V11.5558H26.6594V8.82094H29.8149V5.8366H26.6594V2.94765H29.8485V1.79556e-06H19.3727V15H29.8485ZM11.2833 1.79556e-06H18.4426V15H11.2833V1.79556e-06ZM10.572 15V10.8586H7.38282V1.79556e-06H0V15H10.572ZM82.778 2.8547V6.409H83.6504C84.5949 6.409 84.9313 5.95401 85.138 5.47456C85.3014 5.0954 85.412 4.40803 85.138 3.70352C84.989 3.32192 84.5949 2.8547 83.6504 2.8547H82.778ZM99.113 2.8547V6.409H99.9854C100.93 6.409 101.266 5.95401 101.473 5.47456C101.636 5.0954 101.747 4.40803 101.473 3.70352C101.324 3.32192 100.93 2.8547 99.9854 2.8547H99.113ZM37.5029 8.91634V11.9887H38.5075C39.0338 11.9887 39.5697 11.6365 39.7668 11.2231C39.923 10.8953 40.0312 10.2544 39.7524 9.6502C39.3871 8.85763 38.5844 8.92613 38.5051 8.91879H37.5029V8.91634Z" fill="white"/>
</g>
<defs>
<clipPath id="clip0_2212_437">
<rect width="109" height="15" fill="white"/>
</clipPath>
</defs>
</svg>
