<svg width="116" height="35" viewBox="0 0 116 35" fill="none" xmlns="http://www.w3.org/2000/svg">
<path fill-rule="evenodd" clip-rule="evenodd" d="M49.8359 32.402L52.1715 26.541C52.2267 26.4092 52.2708 26.2658 52.2708 26.1217C52.2708 26.001 52.1494 25.9017 52.0391 25.9017C51.8962 25.9017 51.7638 26.001 51.6645 26.0899L46.0132 30.9044C44.9116 31.8405 43.7218 32.5013 42.2456 32.5013C40.5599 32.5013 39.1499 31.5542 39.1499 29.7691C39.1499 29.5043 39.1714 29.2291 39.1935 28.9655C36.7476 31.5646 34.0926 33.1622 30.4458 33.1622C28.3751 33.1622 26.3589 32.7766 24.3758 32.1936L22.5797 31.6646L20.9491 32.402C17.732 33.8677 14.1741 34.4519 10.6481 34.4519C8.2794 34.4519 0.964355 33.9119 0.964355 30.3644C0.964355 28.822 2.90392 27.4452 4.09316 26.8273C7.16678 25.2194 10.7253 24.2723 14.1955 24.2723C16.8395 24.2723 19.4178 24.8779 21.9844 25.4395L22.5791 25.5713L24.1324 23.5667C27.9 18.7405 30.6211 12.9457 35.2377 8.81464C42.5638 2.27077 52.5785 0.70575 62.0863 0.70575C67.4514 0.70575 72.8716 1.31202 77.8511 3.40483C80.2203 4.39607 83.7562 6.69915 83.7562 9.64036C83.7562 12.4388 81.0681 14.3998 78.8104 15.5124C75.5707 17.0878 71.694 17.539 68.1232 17.539C64.6413 17.539 52.8538 16.6471 52.8538 11.6897C52.8538 7.3379 59.6956 5.75143 62.9568 5.75143C65.8097 5.75143 68.4867 6.54467 71.0755 7.65728L71.7259 7.94356L70.8229 8.90169C69.2689 7.85528 67.2313 7.41452 65.38 7.41452C63.1542 7.41452 59.717 8.96789 59.717 11.5897C59.717 14.862 64.5647 16.1842 67.1209 16.1842C70.5691 16.1842 76.1653 14.2012 76.1653 9.9812C76.1653 7.09515 73.3675 4.92448 70.9884 3.84497C68.2011 2.57849 65.1599 2.12609 62.1188 2.12609C57.9105 2.12609 53.6139 2.9414 49.8022 4.77C46.4969 6.34544 44.084 9.11073 42.0354 12.074L39.5233 15.6877C36.8793 19.4994 34.1361 23.4876 30.6218 26.5392L29.3988 27.5856L31.3267 28.2691C32.3075 28.6106 33.365 28.7313 34.401 28.7313C37.1993 28.7313 38.5872 27.8284 40.1295 25.5811L42.2775 20.6016H49.6367L47.444 26.3626L47.3115 26.7372C47.2895 26.8249 47.246 26.9131 47.246 27.002C47.246 27.1442 47.3998 27.2546 47.5212 27.2546C47.7964 27.2546 48.0833 27.0235 48.2703 26.869L54.032 22.1096C55.1121 21.2066 56.2462 20.5231 57.7008 20.5231C59.5846 20.5231 60.8517 21.4273 61.0276 23.289L61.0062 23.3215L61.138 23.2222C62.7913 21.9784 64.5861 20.8431 66.7354 20.8431C68.6522 20.8431 70.7126 22.0103 70.7126 24.1368C70.7126 24.5561 70.6133 24.9858 70.4588 25.3714L69.489 27.6843C69.4234 27.8498 69.2352 28.1477 69.2352 28.3237C69.2352 28.6866 69.7538 28.7963 70.0395 28.7963C70.7677 28.7963 71.439 28.3237 71.9453 27.8388C72.2647 26.1193 72.9151 24.5451 74.0933 23.2222C75.5817 21.5591 77.7842 20.3693 80.0548 20.3693C82.0373 20.3693 83.4478 21.6039 84.23 23.3001L87.6341 15.4891H94.5746L89.8703 26.9904C89.7937 27.1786 89.6503 27.4311 89.6503 27.6297C89.6503 27.9277 89.9592 28.1146 90.2345 28.1146C90.9505 28.1146 91.9417 27.4863 92.5473 27.1124C92.9329 25.8778 93.4393 24.6879 94.3098 23.7193C96.2266 21.6039 99.3015 20.6672 102.088 20.6672C104.215 20.6672 107.695 21.5487 107.695 24.2576C107.695 26.8475 104.732 28.2575 102.495 28.2575C101.262 28.2575 100.138 27.8492 99.003 27.4195C98.9588 27.6291 98.9036 27.8492 98.9036 28.0699C98.9036 29.7667 100.765 30.7806 102.275 30.7806C104.511 30.7806 106.913 29.2603 108.864 28.2795C111.033 27.1779 113.182 26.2082 115.65 26.1745L114.758 28.83C112.454 28.819 110.548 29.4038 108.379 30.1964C106.615 30.8358 104.876 31.5291 103.112 32.1789C101.805 32.6495 100.426 32.8881 99.0367 32.8838C95.8533 32.8838 93.9793 31.694 92.5584 28.963C90.7071 30.2957 87.6126 32.8838 85.1771 32.8838C83.69 32.8838 82.6209 31.8037 82.125 30.4931C80.4833 31.7381 78.6002 32.8397 76.4736 32.8397C74.3686 32.8397 72.684 31.4188 72.1991 29.4357C71.5482 30.0732 70.8272 30.635 70.0499 31.1104C68.5076 32.0575 66.8555 32.8618 65.0153 32.8618C63.3736 32.8618 61.876 31.7602 61.876 30.0407C61.876 29.5895 62.0078 29.1929 62.1727 28.7742L63.308 25.9654C63.3736 25.7999 63.4073 25.6123 63.4073 25.4254C63.4073 24.973 62.988 24.7308 62.5583 24.7308C61.4678 24.7308 60.3337 25.3916 59.7268 26.2958L57.1056 32.3983H49.8359V32.402ZM50.3098 18.6197H43.1155L44.6137 14.8742H51.7963L50.3098 18.6197ZM18.2059 29.9567L12.4331 27.7634C11.4965 27.4115 10.5052 27.2019 9.49131 27.2019C8.1145 27.2019 5.82307 27.8198 5.82307 29.538C5.82307 32.1268 9.33745 32.5792 11.2654 32.5792C13.9203 32.5792 16.2013 31.6413 18.2059 29.9567ZM78.3366 27.2907C78.3366 28.3709 79.0752 29.2842 80.2093 29.2842C81.9717 29.2842 83.1738 27.6212 83.1738 25.9691C83.1738 24.9993 82.5669 23.9854 81.488 23.9854C79.8237 23.9848 78.3366 25.6601 78.3366 27.2907ZM99.4891 25.8361C100.008 26.0243 100.535 26.1775 101.086 26.1775C102.287 26.1775 104.116 25.4174 104.116 23.997C104.116 23.3791 103.51 23.0046 102.948 23.0046C101.483 23.0046 100.404 24.3385 99.7091 25.4842L99.4891 25.8361Z" fill="white"/>
</svg>
