<svg width="58" height="58" viewBox="0 0 58 58" fill="none" xmlns="http://www.w3.org/2000/svg">
<g clip-path="url(#clip0_2210_32)">
<path fill-rule="evenodd" clip-rule="evenodd" d="M0 0H58V58H0V0Z" fill="#FFD500"/>
<path fill-rule="evenodd" clip-rule="evenodd" d="M37.771 11.0157L34.058 14.5813C33.0169 15.6223 32.1263 16.6604 31.5335 17.7015C30.6429 19.0375 29.8997 21.2671 29.8997 23.0514C29.8997 23.0514 29.7523 23.942 29.7523 24.8357V25.7263C29.7523 26.0242 30.1976 26.1716 30.348 25.8737L40.3015 16.513C40.5994 16.2151 40.7469 15.7698 40.5994 15.3245C40.5994 13.838 39.5583 11.6114 38.8151 11.0157C38.3698 10.5704 38.0719 10.8682 37.774 11.0157H37.771Z" fill="#1D1A00"/>
<path fill-rule="evenodd" clip-rule="evenodd" d="M30.9378 7.59753C30.4925 7.59753 30.1946 7.59753 30.0471 7.89542C29.8997 8.1933 29.8997 8.34074 29.8997 8.63862C29.8997 9.82715 29.7523 11.7589 29.7523 12.0568V15.6223C29.7523 16.3655 30.348 16.2181 30.4955 16.0677C30.6429 15.7698 32.2767 14.2864 33.9136 12.6495C35.1021 11.461 36.736 9.97458 36.736 9.97458C36.8834 9.82715 37.0339 9.52926 36.5885 9.23138C36.2906 8.9335 35.2526 8.48818 33.7662 8.04285C33.3208 7.89542 32.7251 7.74497 32.1323 7.74497C31.3891 7.59753 30.9438 7.59753 30.9438 7.59753H30.9378Z" fill="#1D1A00"/>
<path fill-rule="evenodd" clip-rule="evenodd" d="M40.8913 18.5921V18.7396C41.1891 20.8187 41.0387 22.8979 40.8913 24.2369C40.2955 30.3269 35.6918 31.8133 33.7601 32.4091C33.0169 32.5565 31.2356 32.8544 30.7873 32.8544C29.8967 32.8544 29.7462 32.5565 29.7462 32.2586C29.8937 28.6931 33.6097 24.9801 33.6097 24.9801C33.6097 24.8326 34.2054 24.2369 34.7982 23.6441C35.8393 22.7535 40.2955 18.4447 40.2955 18.4447C40.3938 18.3464 40.4931 18.2972 40.5934 18.2972C40.7408 18.2972 40.8913 18.4447 40.8913 18.5951V18.5921Z" fill="#1D1A00"/>
<path fill-rule="evenodd" clip-rule="evenodd" d="M20.0936 11.0157L23.8066 14.5813C24.8477 15.6223 25.7383 16.6604 26.3311 17.7015C27.0743 19.0375 27.9649 21.2671 27.9649 23.0514V24.8357C28.1124 25.1335 28.1124 25.4284 27.9649 25.7263C27.9649 26.0242 27.6671 26.1716 27.5196 25.8737L17.5661 16.513C17.2682 16.2151 17.1208 15.7698 17.1208 15.3245C17.2682 13.838 18.3093 11.6114 19.0525 11.0157C19.4978 10.5704 19.7957 10.8682 20.0936 11.0157Z" fill="#1D1A00"/>
<path fill-rule="evenodd" clip-rule="evenodd" d="M26.9269 7.59753C27.3722 7.59753 27.6701 7.59753 27.8175 7.89542V8.63862C27.9649 9.82715 27.9649 11.7589 27.9649 12.0568L28.1124 15.6223C28.1124 16.3655 27.5166 16.2181 27.3692 16.0677C27.2217 15.7698 25.5879 14.2864 23.951 12.6495C22.6151 11.461 21.1287 9.97458 21.1287 9.97458C20.9812 9.82715 20.8308 9.52926 21.1287 9.23138C21.4266 8.9335 22.4646 8.48818 24.1015 8.04285C24.5468 7.89542 25.1426 7.74497 25.7353 7.74497C26.3281 7.59753 26.9239 7.59753 26.9239 7.59753H26.9269Z" fill="#1D1A00"/>
<path fill-rule="evenodd" clip-rule="evenodd" d="M16.8259 18.5921V18.7396C16.6785 20.8187 16.8259 22.8979 16.9733 24.2369C17.5661 30.3269 22.0253 31.8133 23.9571 32.4091C24.8477 32.5565 26.4815 32.8544 27.0773 32.8544C27.8205 32.8544 28.1184 32.5565 28.1184 32.2586C27.8205 28.6931 24.2549 24.9801 24.2549 24.9801C24.1075 24.8326 23.6592 24.2369 22.919 23.6441C22.0283 22.7535 17.4217 18.4447 17.4217 18.4447C17.4217 18.2972 17.2742 18.2972 17.2742 18.2972C16.9763 18.2972 16.8289 18.4447 16.8289 18.5951L16.8259 18.5921Z" fill="#1D1A00"/>
<path fill-rule="evenodd" clip-rule="evenodd" d="M12.5171 41.1741H12.6646V36.8654H15.4869V38.0539H13.5552V39.2424H15.3395V40.133H13.5552V41.1741H15.4869V42.5101H12.0718L10.5854 38.0539V42.5101H9.54431V36.8654H11.0307L12.5171 41.1741Z" fill="#1D1A00"/>
<path fill-rule="evenodd" clip-rule="evenodd" d="M18.4598 38.0539L18.0144 42.5101H16.528L15.6374 36.8654H16.528L17.1208 41.1741H17.2712L17.864 36.8654H19.203L19.7957 41.1741H19.9432L20.5389 36.8654H21.4296L20.6864 42.5101H19.203L18.6072 38.0539H18.4598Z" fill="#1D1A00"/>
<path fill-rule="evenodd" clip-rule="evenodd" d="M22.6181 36.8654H23.5087V38.9445H25.293V36.8654H26.1837V42.5101H25.293V40.4309H23.5087V42.5101H22.6181V36.8654Z" fill="#1D1A00"/>
<path fill-rule="evenodd" clip-rule="evenodd" d="M31.2357 36.8654H32.2767V41.1741H33.9106V42.5101H31.2357V36.8654Z" fill="#1D1A00"/>
<path fill-rule="evenodd" clip-rule="evenodd" d="M34.2054 36.8654H35.0991V41.1741H36.8804V42.5101H34.2054V36.8654Z" fill="#1D1A00"/>
<path fill-rule="evenodd" clip-rule="evenodd" d="M26.4815 39.6877C26.4815 37.756 27.5226 36.7149 28.7111 36.7149C30.0471 36.7149 30.9407 37.756 30.9407 39.6877C30.9407 41.6194 30.0501 42.5101 28.7111 42.5101C27.5226 42.5101 26.4815 41.6194 26.4815 39.6877ZM27.3721 39.6877C27.3721 39.2424 27.3721 38.4992 27.9649 38.2013C28.2628 38.0539 28.7081 38.0539 28.7081 38.0539C28.8555 38.0539 29.3009 38.0539 29.5988 38.2013C30.0441 38.4992 30.0441 39.2424 30.0441 39.6877C30.0441 40.133 30.0441 40.7288 29.5988 41.0237C29.3009 41.3216 28.8555 41.3216 28.7081 41.3216C28.7081 41.3216 28.2628 41.3216 27.9649 41.0237C27.3721 40.7258 27.3721 40.133 27.3721 39.6877Z" fill="#1D1A00"/>
<path fill-rule="evenodd" clip-rule="evenodd" d="M38.2193 41.472L38.0719 42.5131H37.0308L38.3668 36.8683H40.0006L41.1892 42.5131H40.2985L40.0006 41.472H38.2193ZM38.5142 40.5814L38.9595 38.0569H39.4049L39.8502 40.5814H38.5142Z" fill="#1D1A00"/>
<path fill-rule="evenodd" clip-rule="evenodd" d="M46.2412 42.5101H44.0115L42.5251 38.0539H42.3777V42.5101H41.4871V36.8654H42.9735L44.4599 41.1741H44.6073V36.8654H46.2412C47.5771 36.8654 48.3203 37.756 48.3203 39.6877C48.3203 41.6195 47.5771 42.5101 46.2412 42.5101ZM46.0907 41.1741H45.4949V38.0539H46.2381C46.3856 38.0539 46.6835 38.0539 46.9814 38.2013C47.4267 38.4992 47.5771 39.2424 47.5771 39.6877C47.5771 40.133 47.4297 40.7288 46.9814 41.0237C46.6835 41.1711 46.3886 41.1711 46.0907 41.1711V41.1741Z" fill="#1D1A00"/>
<path fill-rule="evenodd" clip-rule="evenodd" d="M9.54431 44.4418H48.3203V50.5348H9.54431V44.4418Z" fill="#DC2F34"/>
<path fill-rule="evenodd" clip-rule="evenodd" d="M13.5552 46.9693C13.4078 46.2261 12.812 45.9282 12.0688 45.9282C11.1782 45.9282 10.5824 46.521 10.5824 47.4146C10.5824 48.3083 11.1752 49.0485 12.0688 49.0485C12.812 49.0485 13.4048 48.6032 13.5552 47.86H12.6646C12.6646 48.1578 12.3667 48.4557 12.0688 48.4557C11.476 48.4557 11.3256 47.86 11.3256 47.4146C11.3256 46.9693 11.473 46.524 12.0688 46.524C12.3667 46.524 12.6646 46.6714 12.6646 46.9693H13.5552Z" fill="white"/>
<path fill-rule="evenodd" clip-rule="evenodd" d="M14.0005 47.4146C14.0005 48.3053 14.4459 49.0485 15.487 49.0485C16.3776 49.0485 16.9734 48.3053 16.9734 47.4146C16.9734 46.524 16.3776 45.9282 15.487 45.9282C14.4459 45.9282 14.0005 46.521 14.0005 47.4146ZM14.7438 47.4146C14.7438 46.9693 14.8912 46.524 15.487 46.524C15.9323 46.524 16.2302 46.9693 16.2302 47.4146C16.2302 47.86 15.9323 48.4557 15.487 48.4557C14.8942 48.4557 14.7438 47.86 14.7438 47.4146Z" fill="white"/>
<path fill-rule="evenodd" clip-rule="evenodd" d="M17.5661 49.0485H18.3093V47.1167L19.3504 49.0485H20.241V45.9282H19.4978V47.86L18.3093 45.9282H17.5661V49.0485Z" fill="white"/>
<path fill-rule="evenodd" clip-rule="evenodd" d="M20.6864 48.0074C20.6864 48.7506 21.2821 49.0485 22.0223 49.0485C22.7625 49.0485 23.3583 48.7506 23.3583 48.0074C23.3583 47.4116 22.913 47.2642 22.4676 47.1167C22.0223 46.9693 21.577 46.9693 21.577 46.6714C21.577 46.524 21.8749 46.524 22.0223 46.524C22.1698 46.524 22.4676 46.524 22.4676 46.8219H23.2108C23.2108 46.2261 22.6181 45.9312 22.0223 45.9312C21.4266 45.9312 20.8338 46.0787 20.8338 46.8219C20.8338 47.4146 21.2791 47.5651 21.7244 47.7125C22.1698 47.8599 22.6151 47.8599 22.6151 48.1578C22.6151 48.3053 22.3172 48.4557 22.0193 48.4557C21.7214 48.4557 21.574 48.3083 21.4266 48.0104H20.6833L20.6864 48.0074Z" fill="white"/>
<path fill-rule="evenodd" clip-rule="evenodd" d="M26.3341 45.9282H23.6592V46.6714H24.5498V49.0485H25.4405V46.6714H26.3341V45.9282Z" fill="white"/>
<path fill-rule="evenodd" clip-rule="evenodd" d="M26.7794 49.0485H27.6701V47.8599H28.2658C28.5637 47.8599 28.7111 48.1578 28.7111 48.4557V49.0515H29.6018C29.4544 48.904 29.4544 48.4557 29.4544 48.3083C29.4544 48.0104 29.3069 47.7155 29.009 47.5651C29.3069 47.4176 29.4544 47.1197 29.4544 46.8219C29.4544 46.2261 29.009 45.9312 28.4133 45.9312H26.7794V49.0515V49.0485ZM27.6701 46.524H28.2658C28.5637 46.524 28.7111 46.6714 28.7111 46.9693C28.7111 47.1167 28.5637 47.2672 28.2658 47.2672H27.6701V46.524Z" fill="white"/>
<path fill-rule="evenodd" clip-rule="evenodd" d="M32.7221 45.9282H31.9788V47.7095C31.9788 48.1548 31.8314 48.4527 31.3861 48.4527C30.9408 48.4527 30.7903 48.1548 30.7903 47.7095V45.9282H30.0471V47.7095C30.0471 48.6001 30.4924 49.0455 31.3831 49.0455C32.2737 49.0455 32.719 48.6001 32.719 47.7095V45.9282H32.7221Z" fill="white"/>
<path fill-rule="evenodd" clip-rule="evenodd" d="M36.2876 46.9693C36.2876 46.2261 35.5444 45.9282 34.8012 45.9282C33.9106 45.9282 33.3148 46.521 33.3148 47.4146C33.3148 48.3083 33.9076 49.0485 34.8012 49.0485C35.6949 49.0485 36.2876 48.6032 36.2876 47.86H35.397C35.397 48.1578 35.2496 48.4557 34.8042 48.4557C34.3589 48.4557 34.061 47.86 34.061 47.4146C34.061 46.9693 34.3589 46.524 34.8042 46.524C35.2496 46.524 35.397 46.6714 35.397 46.9693H36.2876Z" fill="white"/>
<path fill-rule="evenodd" clip-rule="evenodd" d="M39.2575 45.9282H36.5825V46.6714H37.4762V49.0485H38.3668V46.6714H39.2575V45.9282Z" fill="white"/>
<path fill-rule="evenodd" clip-rule="evenodd" d="M39.7028 49.0485H40.5964V45.9282H39.7028V49.0485Z" fill="white"/>
<path fill-rule="evenodd" clip-rule="evenodd" d="M41.1891 47.4146C41.1891 48.3053 41.6345 49.0485 42.6756 49.0485C43.5662 49.0485 44.162 48.3053 44.162 47.4146C44.162 46.524 43.5662 45.9282 42.6756 45.9282C41.6345 45.9282 41.1891 46.521 41.1891 47.4146ZM41.9324 47.4146C41.9324 46.9693 42.0798 46.524 42.6756 46.524C43.1209 46.524 43.4188 46.9693 43.4188 47.4146C43.4188 47.86 43.1209 48.4557 42.6756 48.4557C42.0828 48.4557 41.9324 47.86 41.9324 47.4146Z" fill="white"/>
<path fill-rule="evenodd" clip-rule="evenodd" d="M44.7547 49.0485H45.4979V47.1167L46.539 49.0485H47.4296V45.9282H46.6864V47.86L45.4979 45.9282H44.7547V49.0485Z" fill="white"/>
</g>
<defs>
<clipPath id="clip0_2210_32">
<rect width="58" height="58" fill="white"/>
</clipPath>
</defs>
</svg>
