<svg width="138" height="52" viewBox="0 0 138 52" fill="none" xmlns="http://www.w3.org/2000/svg">
<path fill-rule="evenodd" clip-rule="evenodd" d="M0.391479 0H137.042V51.5827H0.391479V0Z" fill="#0C0E0F"/>
<path fill-rule="evenodd" clip-rule="evenodd" d="M0.391479 24.9769H40.5725V31.1306H0.391479V24.9769Z" fill="white"/>
<path fill-rule="evenodd" clip-rule="evenodd" d="M29.3506 23.5293V16.2895H41.8391C41.8391 16.2895 53.061 14.6607 53.061 28.0549C53.061 40.1811 40.2103 38.9138 40.2103 38.9138V43.6198H29.3506V32.5783H42.0202V23.5293H29.3506Z" fill="white"/>
<path fill-rule="evenodd" clip-rule="evenodd" d="M70.0736 43.6198V29.6822C70.0736 29.6822 70.0736 24.6147 64.6438 24.6147H53.9652V31.1299H62.2911V38.1885H61.0239V32.5775H57.9474C55.7752 32.5775 51.4315 32.5775 51.4315 37.6458C51.4315 42.8945 55.4129 43.6191 57.2236 43.6191L70.0736 43.6198ZM71.7031 43.6198H79.4849V31.311H84.0097V24.4343H77.8568C74.5985 24.4343 71.7024 26.6072 71.7024 29.1403L71.7031 43.6198ZM122.381 43.6198H130.164V31.311H134.508V24.4343H128.535C125.276 24.4343 122.38 26.6072 122.38 29.1403L122.381 43.6198ZM85.0973 43.6198V16.4706H92.5168V31.3118L96.1374 24.6154H104.644L99.0334 34.0259L104.825 43.6198H96.3185L92.879 37.2843V43.6198H85.0973Z" fill="white"/>
<path fill-rule="evenodd" clip-rule="evenodd" d="M111.521 37.2843H120.751V43.6198H110.074C105.911 43.6198 103.015 41.0846 103.015 37.2843C103.015 33.6651 102.834 30.7691 103.377 28.5961C103.919 26.6057 105.911 24.2524 111.702 24.2524C117.494 24.2524 120.751 26.2435 120.751 29.6815V36.017H112.788V30.406H111.522V37.2843H111.521Z" fill="white"/>
</svg>
