<svg width="97" height="37" viewBox="0 0 97 37" fill="none" xmlns="http://www.w3.org/2000/svg">
<g clip-path="url(#clip0_2203_126)">
<path d="M0.00390625 34.4385H4.50356C5.60829 34.4071 6.63168 34.5012 7.63977 33.9345C8.66325 33.3843 9.15058 32.4098 9.15058 31.2933C9.15058 29.6894 8.17547 28.9506 7.59052 28.6531C7.21759 28.4464 6.86005 28.385 6.71346 28.3547C7.03864 28.29 7.2984 28.2273 7.5747 28.0539C8.53345 27.4726 8.61488 26.373 8.61488 26.0576C8.61488 25.129 8.12675 24.5322 7.88317 24.2815C7.13581 23.5103 6.19306 23.4155 5.83569 23.3853C5.26762 23.3371 4.68277 23.3371 4.11374 23.3371H0.00390625V34.4385ZM2.1315 25.035H3.80456C4.56828 25.035 5.57663 24.9734 6.12851 25.6327C6.37244 25.9324 6.40454 26.2775 6.40454 26.4029C6.40454 26.8756 6.17732 27.1426 6.04691 27.268C5.65674 27.6771 5.1373 27.7396 4.60108 27.7708C4.01622 27.8032 3.44736 27.7866 2.8786 27.8032H2.13159V25.035H2.1315ZM2.1315 29.3594H3.33331C4.68259 29.3594 5.44543 29.3437 6.03143 29.6265C6.85996 30.0357 6.95704 30.7912 6.95704 31.1041C6.95704 31.6385 6.74573 31.9223 6.59984 32.079C6.06362 32.6935 5.25092 32.6456 4.53627 32.6456H2.13141L2.1315 29.3594ZM18.7954 30.4762C18.7791 28.1167 17.2681 27.0639 16.3908 26.7026C15.6273 26.3727 14.9116 26.3416 14.6036 26.3416C12.1821 26.3416 11.1263 27.9289 10.8014 28.7157C10.6714 28.9976 10.4441 29.6265 10.4441 30.4764C10.4441 32.8503 11.9875 33.9346 12.8326 34.3135C13.6292 34.6432 14.3272 34.6743 14.6684 34.6743C17.0894 34.6743 18.1457 33.0388 18.4704 32.2364C18.7791 31.4976 18.7954 30.7591 18.7954 30.4762ZM16.7646 30.4447C16.797 31.6879 16.1472 32.945 14.6683 32.945C13.3363 32.945 12.7833 31.8744 12.6376 31.4976C12.5237 31.1356 12.4747 30.8057 12.4747 30.428C12.4747 29.2499 13.0436 28.6049 13.4654 28.3379C13.9048 28.0697 14.3924 28.0394 14.5711 28.0394C16.0008 28.0394 16.7153 29.2186 16.7646 30.4447ZM27.2162 27.8034C25.9983 26.4355 24.357 26.3415 23.723 26.3415C21.9681 26.3415 21.0096 27.0803 20.6034 27.693C20.4897 27.8662 20.2464 28.3054 20.2294 28.9037C20.2465 30.6011 22.1145 31.043 22.4717 31.1356C22.9917 31.2618 23.5279 31.3254 24.0642 31.4364C24.6654 31.5616 24.9253 31.577 25.1365 31.8601C25.2506 32.0009 25.2665 32.1261 25.2665 32.1898C25.2665 32.3475 25.1852 32.5205 25.0556 32.646C24.7303 33.0068 24.162 33.1174 23.6744 33.1174C23.4463 33.1174 22.4068 33.0862 21.7084 32.5051C21.4972 32.3306 21.3995 32.1898 21.3344 32.1117L19.8723 33.2594C20.1164 33.4952 20.3761 33.6999 20.6525 33.873C21.1559 34.1702 22.2449 34.6744 23.7722 34.6744C25.7539 34.6744 26.7618 33.779 27.1518 33.0549C27.3304 32.7252 27.4278 32.363 27.4278 31.9853C27.4278 31.0272 26.8266 30.4763 26.5344 30.2718C26.1763 30.0193 25.6897 29.8784 25.2509 29.7845C24.8126 29.6895 24.3735 29.6266 23.9344 29.5486C23.2845 29.438 22.7486 29.3127 22.5373 29.1552C22.4888 29.1239 22.2934 28.9352 22.2776 28.6679C22.2776 28.5258 22.3418 28.2744 22.6348 28.0855C22.9919 27.8507 23.5444 27.8507 23.6261 27.8507C24.2921 27.8507 24.8283 27.9913 25.3314 28.4164C25.4616 28.5258 25.6732 28.716 25.8352 29.0444L27.2162 27.8034ZM34.8812 31.3725C34.7351 31.7188 34.3131 32.9126 32.9154 32.9126C31.8912 32.9126 31.2252 32.2364 30.981 31.3254C30.9332 31.1676 30.8678 30.8684 30.8678 30.4603C30.8678 30.1923 30.8678 29.3127 31.4693 28.6364C31.8432 28.2115 32.2979 28.0227 32.8671 28.0227C33.6141 28.0227 34.0044 28.338 34.2317 28.5571C34.3453 28.6677 34.5892 28.9348 34.7187 29.3596L36.4577 28.5739C35.9216 27.3623 34.9464 26.8124 34.4758 26.6235C34.0044 26.4356 33.4838 26.3416 32.9643 26.3416C31.1443 26.3416 30.1206 27.3622 29.7303 27.8662C29.1297 28.6205 28.8532 29.5484 28.8532 30.5072C28.8532 31.1679 29.0157 33.354 31.1769 34.3131C31.9083 34.6273 32.574 34.6741 32.8668 34.6741C34.0853 34.6741 35.2874 34.1388 36.0188 33.1797C36.246 32.8813 36.4084 32.5515 36.5387 32.2206L34.8812 31.3725ZM40.0498 23.3373H38.1001V34.4384H40.0498V30.2235C40.0498 29.9721 40.0498 29.784 40.1141 29.5482C40.1799 29.3124 40.3101 29.0767 40.4719 28.8866C40.8784 28.3993 41.4144 28.1332 42.0805 28.1332C42.6173 28.1332 42.9255 28.3211 43.088 28.4629C43.6403 28.919 43.5922 29.4857 43.6072 30.1149V34.4383H45.5251V29.5796C45.5251 28.7939 45.5251 28.0694 45.0213 27.3777C44.4853 26.6546 43.5101 26.3414 42.6173 26.3414C41.7228 26.3414 41.138 26.6233 40.8294 26.7966C40.4077 27.0333 40.212 27.2056 40.0496 27.378V23.3372L40.0498 23.3373ZM61.7563 28.3693H56.9315V30.1922H59.7908C59.726 30.6973 59.6447 30.9624 59.5472 31.1827C59.1095 32.221 58.1013 32.7553 56.964 32.7553C56.232 32.7553 55.5993 32.5831 55.0307 32.1261C53.7136 31.0575 53.7136 29.3909 53.7136 28.9348C53.7136 27.2214 54.298 26.2781 54.8514 25.727C55.6152 24.9882 56.5242 24.9256 56.9151 24.9256C58.914 24.9256 59.5145 26.5773 59.7095 27.1108L61.7563 26.3251C61.0105 24.407 59.5629 23.667 58.8159 23.3854C57.9876 23.0857 57.2572 23.0546 56.9317 23.0546C54.6077 23.0546 53.2432 24.3601 52.7225 24.9882C51.8134 26.1048 51.3752 27.5825 51.3752 28.9977C51.3752 31.2934 52.4154 32.6772 53.0815 33.322C54.4623 34.6276 56.0548 34.7215 56.7522 34.7215C58.0356 34.7215 58.9786 34.3281 59.9051 33.4951L59.9207 34.4387H61.7566V28.3693H61.7563ZM66.2278 26.5773H64.3426V34.4385H66.2277V31.0729C66.2277 30.6178 66.2277 30.2234 66.3738 29.7841C66.8459 28.3379 68.404 28.3379 68.8098 28.3379V26.4032H68.6487C68.4206 26.4032 67.3638 26.4355 66.715 27.048C66.5192 27.2213 66.3572 27.4573 66.2277 27.693L66.2278 26.5773ZM77.9781 30.4762C77.9614 28.1167 76.4522 27.0639 75.5732 26.7026C74.8092 26.3727 74.095 26.3416 73.7861 26.3416C71.3658 26.3416 70.3084 27.9289 69.9833 28.7157C69.8533 28.9976 69.627 29.6265 69.627 30.4764C69.627 32.8503 71.1695 33.9346 72.0145 34.3135C72.8112 34.6432 73.5107 34.6743 73.8519 34.6743C76.2722 34.6743 77.3274 33.0388 77.6531 32.2364C77.9614 31.4976 77.9781 30.7591 77.9781 30.4762ZM75.9467 30.4447C75.9804 31.6879 75.3301 32.945 73.8519 32.945C72.5191 32.945 71.9661 31.8744 71.8201 31.4976C71.7063 31.1356 71.6567 30.8057 71.6567 30.428C71.6567 29.2499 72.226 28.6049 72.6485 28.3379C73.0877 28.0697 73.5749 28.0394 73.7538 28.0394C75.1837 28.0394 75.8984 29.2186 75.9467 30.4447ZM86.9356 26.5773H84.9845V29.9103C84.9688 30.5226 85.0024 31.3724 84.6773 31.9695C84.5136 32.2533 84.043 32.8501 83.1003 32.8501C82.7914 32.8501 82.4173 32.7709 82.159 32.6144C81.4748 32.2365 81.4934 31.4665 81.5085 30.8225V26.5773H79.5419V31.1042C79.5419 31.9538 79.4934 32.8501 80.0134 33.59C80.3383 34.0615 81.0045 34.6272 82.3529 34.6272C83.7666 34.6272 84.5632 33.998 84.969 33.6367L84.9847 34.4382H86.9358V26.5773H86.9356ZM89.1327 26.5773V37.0001H91.0838V33.7934C91.9601 34.5791 92.8057 34.6741 93.2923 34.6741C93.9091 34.6741 95.2254 34.5321 96.1838 33.2279C96.9648 32.1737 96.9964 30.9956 96.9964 30.5698C96.9964 28.9972 96.3306 27.9756 95.9083 27.4883C94.9821 26.4354 93.8286 26.3413 93.3085 26.3413C92.0732 26.3413 91.4082 26.953 91.0838 27.2837V26.5772H89.1327V26.5773ZM91.0505 30.4603C91.0839 29.2959 91.5704 28.7156 91.9931 28.4318C92.1548 28.3378 92.4958 28.1478 92.9999 28.1478C93.8616 28.1478 94.5758 28.6998 94.8521 29.47C94.9987 29.8939 94.9987 30.3341 94.9987 30.4757C94.9987 31.6706 94.5272 32.3 94.0555 32.5992C93.7627 32.7874 93.3894 32.8811 93.0486 32.8811C92.073 32.8811 91.4081 32.2677 91.1634 31.3878C91.0839 31.0887 91.0505 30.7743 91.0505 30.4603Z" fill="white"/>
<path d="M32.0005 12.6178C31.918 10.5238 31.6712 7.23595 28.7413 5.43454C27.9467 4.9566 26.659 4.42648 24.7419 4.45304C19.9213 4.48003 17.5385 7.82004 17.4832 11.928C17.428 16.2225 20.0854 19.2173 24.7143 19.2173C27.3166 19.2173 29.179 18.1581 30.248 17.1501C31.0428 16.4082 31.7542 15.3215 31.8365 15.216L28.6589 13.625C28.084 14.6856 27.3167 16.0901 25.0437 16.0901C22.1949 16.0901 21.7841 13.5189 21.7841 12.8035V12.6179H32.0005V12.6178ZM21.8108 10.0995C21.8929 9.67543 21.9753 9.25138 22.2218 8.85364C22.8792 7.74053 23.8926 7.3691 24.7964 7.3691C25.3443 7.3691 25.783 7.50216 26.002 7.60772C26.9881 8.03092 27.4259 8.61476 27.6453 10.0996L21.8108 10.0995ZM45.8914 4.87726H41.3723L39.3446 8.40244L37.4547 4.87726H32.6886L37.016 11.2124L32.1683 18.7141H36.8248L39.2078 14.4194L41.9197 18.7141H46.4119L41.5633 11.3453L45.8914 4.87726ZM56.0708 4.71764C53.9892 4.93106 52.9491 5.46033 51.9337 6.30877V4.8507H47.8528V18.714H52.0429V10.9211C52.0429 8.98645 53.003 8.82649 54.6737 8.53559L56.0708 8.32318V4.71764ZM64.7151 4.4802C64.4952 4.45321 64.277 4.45321 64.0284 4.45321C59.6192 4.45321 56.5795 7.07769 56.469 11.5309C56.4141 13.2798 56.8538 14.5256 57.182 15.2414C58.6058 18.2898 61.7561 19.1381 64.1657 19.1381C70.7667 19.1381 71.8361 13.9701 71.8361 11.7695C71.8361 9.56952 70.9042 6.46822 67.7559 5.11674C66.7959 4.6921 65.7552 4.53239 64.7151 4.4802ZM64.249 7.68681C66.1382 7.68681 67.5634 8.95963 67.5634 11.928C67.5634 13.7576 66.6865 15.8785 64.1658 15.8785C62.4687 15.8785 60.716 14.738 60.716 11.7425C60.716 9.99314 61.3994 8.69376 62.3313 8.13819C62.7969 7.8455 63.345 7.74028 63.8919 7.68647H64.249V7.68681ZM74.3988 0.875421V5.1954H72.317V7.6869H74.3988V14.6319C74.3988 16.1167 74.4273 17.945 76.673 18.6084C77.2487 18.7677 78.3703 18.8202 78.9188 18.8202C79.877 18.8202 80.8909 18.6604 81.1367 18.6084V15.4543C80.5902 15.48 80.2059 15.48 79.6588 15.48C78.3703 15.48 78.5631 14.4466 78.5631 14.1818V7.71388H81.3562V5.2223H78.5631V0.87525H74.3988V0.875421ZM87.6555 0H83.4368V18.7141H87.6555V11.5842C87.6555 10.3384 87.6275 9.17238 88.6143 8.40252C88.8601 8.21727 89.2981 7.97865 89.9286 7.97865C90.5043 7.97865 90.9424 8.19071 91.1876 8.37613C92.0107 9.0125 92.0927 9.93977 92.0927 11.4781V18.7139H96.2834V9.62137C96.229 8.16381 96.2834 6.41459 94.4202 5.2223C93.9276 4.93089 92.9694 4.50676 91.7368 4.50676C89.7356 4.50676 88.4773 5.51371 87.6553 6.33524L87.6555 0ZM0.0043604 0H8.70081C10.9651 0 14.3419 0.00885382 15.9107 3.17758C16.5643 4.52064 16.5643 5.84301 16.537 6.26024C16.4416 9.13994 14.9063 10.3372 12.4462 11.1968L16.9376 18.7152H11.8632L7.94747 11.9418H4.67698V18.7152H0.00427246L0.0043604 0ZM8.95573 3.25982H4.64972V8.68235H8.84256C10.5853 8.61493 11.9196 7.98188 11.9196 5.94423C11.9196 4.66638 11.3978 3.99349 10.7455 3.64556C10.1833 3.34597 9.57902 3.29975 8.95573 3.25982Z" fill="white"/>
</g>
<defs>
<clipPath id="clip0_2203_126">
<rect width="97" height="37" fill="white"/>
</clipPath>
</defs>
</svg>
