<svg width="121" height="32" viewBox="0 0 121 32" fill="none" xmlns="http://www.w3.org/2000/svg">
<g clip-path="url(#clip0_2210_14)">
<path fill-rule="evenodd" clip-rule="evenodd" d="M14.045 5.29694H26.0107L28.0761 9.48955H13.8453C13.8453 9.48955 12.8608 9.48955 12.2756 9.73995C11.6628 10.0032 11.0432 10.3178 10.4649 11.1717C9.88655 12.0257 9.91409 13.0273 9.98294 13.5602C10.0587 14.0931 10.4098 14.9213 11.0294 15.4414C11.4081 15.7624 11.9244 16.077 12.1448 16.2183C12.3651 16.366 15.2636 18.2343 15.3875 18.3242C15.5527 18.4398 15.8281 18.825 15.7248 19.3066C15.6285 19.7432 15.3255 20.1541 14.6233 20.2311C14.5544 20.2375 14.4167 20.244 14.4167 20.244H11.0294C11.0294 20.244 9.01907 19.679 7.48377 18.0289C5.94846 16.3788 5.59045 14.703 5.47341 13.7143C5.35637 12.7255 5.4803 11.0883 6.21697 9.68859C6.94675 8.28891 8.2824 6.72872 10.52 5.86836C11.9864 5.30336 13.5079 5.29694 13.6663 5.30336C13.7489 5.30336 14.045 5.30336 14.045 5.30336V5.29694Z" fill="white"/>
<path fill-rule="evenodd" clip-rule="evenodd" d="M2.43032 20.2376C2.43032 20.2376 0.213425 17.5923 0.0137659 13.5538C-0.179008 9.69505 1.66611 6.74802 2.05166 6.21511C3.30469 4.45588 5.11539 2.52972 8.48204 1.18141C9.89342 0.616398 11.8349 0.314633 12.5303 0.28253C13.2325 0.250427 13.3771 0.250427 13.3771 0.250427H23.5253L25.5838 4.42378H13.7282C13.7282 4.42378 11.6559 4.39168 9.89342 5.15572C8.08273 5.93903 6.89166 6.99842 6.03795 8.20548C5.17735 9.41897 4.66788 10.6132 4.50264 12.4238C4.35118 14.0482 4.9295 15.6662 5.08096 16.0321C5.25308 16.443 5.76256 17.3612 6.27203 18.0353C6.85035 18.8058 7.92438 19.679 8.86071 20.2376H2.43032Z" fill="white"/>
<path fill-rule="evenodd" clip-rule="evenodd" d="M38.6993 4.39165H42.5479C42.5066 3.58909 42.4447 2.63242 41.5427 1.60514C40.5582 0.520064 38.9265 0 37.4256 0C34.8714 0 32.0968 1.50883 32.0968 4.16051C32.0968 6.8122 34.7475 7.80738 35.8215 8.20546C38.1692 9.1236 38.8026 9.35474 38.8026 10.2857C38.8026 10.9342 38.2449 11.6404 37.3224 11.6404C36.8267 11.6404 35.7389 11.3579 35.7389 9.71429H31.8696V10.1766C31.8696 11.9872 32.9574 14.6581 37.3637 14.6581C41.3982 14.6581 42.6718 12.3852 42.6718 10.3242C42.6718 8.68058 41.9489 7.46067 39.1124 6.27929C36.3792 5.13644 35.9661 4.96308 35.9661 4.12199C35.9661 3.45425 36.627 3.01766 37.3017 3.01766C38.4928 3.01766 38.6167 3.91653 38.6993 4.39165Z" fill="white"/>
<path fill-rule="evenodd" clip-rule="evenodd" d="M52.4001 12.3467L53.1368 14.3884H57.3571L51.3054 0.269653H48.2417L42.128 14.3949H46.3071L47.1126 12.3531H52.4001V12.3467ZM49.7426 4.65489H49.8045L51.3674 9.48314H48.1797L49.7426 4.65489Z" fill="white"/>
<path fill-rule="evenodd" clip-rule="evenodd" d="M56.3864 0.269653V8.80256C56.3864 10.8828 56.6549 11.878 57.9079 13.1557C59.1609 14.4141 61.1782 14.6645 62.2935 14.6645C64.1868 14.6645 65.5638 14.0738 66.5552 13.1364C67.519 12.2183 68.0767 11.1717 68.0767 8.80256V0.269653H64.1868V8.80256C64.1868 9.92615 64.1868 11.4928 62.2522 11.4928C60.3176 11.4928 60.2763 9.7528 60.2763 8.80256V0.269653H56.3864Z" fill="white"/>
<path fill-rule="evenodd" clip-rule="evenodd" d="M69.2953 14.3949H77.7567V11.2231H73.02V8.80256H77.6121V5.63081H73.02V3.43498H77.7567V0.269653H69.2953V14.3949Z" fill="white"/>
<path fill-rule="evenodd" clip-rule="evenodd" d="M78.8583 14.3949H82.5829V9.82985H82.6243L86.1424 14.3949H90.5831L86.4453 9.58587C89.33 9.14927 90.2319 6.76082 90.2319 5.13643C90.2319 3.68538 89.6123 2.19582 88.3593 1.27768C87.3747 0.571419 86.342 0.269653 83.6707 0.269653H78.8583V14.3949ZM82.5829 3.43498H84.0012C85.5021 3.43498 86.5142 4.0642 86.5142 5.34188C86.5142 6.02888 86.2456 7.36436 83.9599 7.36436H82.5829V3.43498Z" fill="white"/>
<path fill-rule="evenodd" clip-rule="evenodd" d="M32.4617 31.7753H37.7905C43.5738 31.7753 45.6323 28.5329 45.6323 24.6742C45.6323 23.1268 45.2812 21.618 44.2347 20.2825C42.2588 17.6501 39.2157 17.6501 37.5083 17.6501H32.4686V31.7753H32.4617ZM36.3447 20.8218H38.0315C39.7596 20.8218 40.5445 21.4896 40.992 22.1188C41.5496 22.9214 41.7355 23.9294 41.7355 24.7319C41.7355 26.7352 40.9162 28.6035 38.0109 28.6035H36.3447V20.8154V20.8218Z" fill="white"/>
<path fill-rule="evenodd" clip-rule="evenodd" d="M54.4379 29.7336L55.1815 31.7753H59.4019L53.3501 17.6501H50.2864L44.1727 31.7753H48.3518L49.1573 29.7336H54.4448H54.4379ZM51.7804 22.0417H51.8424L53.4052 26.87H50.2176L51.7804 22.0417Z" fill="white"/>
<path fill-rule="evenodd" clip-rule="evenodd" d="M59.8218 31.7753H63.5465L63.4432 23.2039L63.4845 23.1846L69.2884 31.7753H72.662V17.6501H68.9373L69.1025 26.4912L69.0612 26.5233L63.1747 17.6501H59.8218V31.7753Z" fill="white"/>
<path fill-rule="evenodd" clip-rule="evenodd" d="M73.8943 31.7753H77.619V26.3949H82.039V23.2231H77.619V20.8218H82.2043V17.6501H73.8943V31.7753Z" fill="white"/>
<path fill-rule="evenodd" clip-rule="evenodd" d="M98.6795 24.6677C98.6795 20.7383 95.3266 17.3354 90.6312 17.3354C86.3695 17.3354 84.0081 19.9871 83.2025 21.8234C82.7482 22.8571 82.6036 23.9037 82.6036 24.8411C82.6036 26.0096 82.934 27.1653 83.5468 28.199H88.3937C87.1751 27.435 86.4935 26.0674 86.4935 24.6356C86.4935 22.6517 87.953 20.5136 90.6519 20.5136C93.3507 20.5136 94.7896 22.8635 94.7896 24.6934C94.7896 25.9197 94.1769 27.3836 92.9239 28.199C92.3249 28.5907 91.5882 28.8346 90.6932 28.8346C89.7982 28.8346 89.0271 28.5971 88.4006 28.199H83.5537C84.8411 30.3756 87.361 32 90.6175 32C93.874 32 96.4007 30.4334 97.7157 28.199C98.3422 27.1396 98.6795 25.9326 98.6795 24.6741V24.6677Z" fill="white"/>
<path fill-rule="evenodd" clip-rule="evenodd" d="M105.709 21.7079H109.558C109.516 20.9053 109.454 19.9551 108.552 18.9214C107.568 17.8299 105.936 17.3162 104.435 17.3162C101.888 17.3162 99.1064 18.8251 99.1064 21.4767C99.1064 24.1284 101.757 25.1236 102.831 25.5217C105.179 26.4398 105.819 26.6645 105.819 27.6019C105.819 28.2504 105.261 28.9567 104.339 28.9567C103.843 28.9567 102.755 28.6677 102.755 27.0305H98.8861V27.4864C98.8861 29.297 99.9739 31.9679 104.38 31.9679C108.415 31.9679 109.688 29.695 109.688 27.634C109.688 25.9904 108.965 24.7705 106.129 23.5891C103.396 22.4462 102.983 22.2729 102.983 21.4318C102.983 20.7641 103.643 20.3275 104.318 20.3275C105.509 20.3275 105.633 21.2263 105.716 21.7015L105.709 21.7079Z" fill="white"/>
<path fill-rule="evenodd" clip-rule="evenodd" d="M117.028 21.7079H120.876C120.835 20.9053 120.773 19.9551 119.871 18.9214C118.88 17.8299 117.255 17.3162 115.754 17.3162C113.206 17.3162 110.425 18.8251 110.425 21.4767C110.425 24.1284 113.076 25.1236 114.15 25.5217C116.497 26.4398 117.131 26.6645 117.131 27.6019C117.131 28.2504 116.573 28.9567 115.651 28.9567C115.155 28.9567 114.067 28.6677 114.067 27.0305H110.198V27.4864C110.198 29.297 111.286 31.9679 115.692 31.9679C119.726 31.9679 121 29.695 121 27.634C121 25.9904 120.277 24.7705 117.441 23.5891C114.707 22.4462 114.294 22.2729 114.294 21.4318C114.294 20.7641 114.955 20.3275 115.63 20.3275C116.821 20.3275 116.945 21.2263 117.028 21.7015V21.7079Z" fill="white"/>
<path fill-rule="evenodd" clip-rule="evenodd" d="M14.0932 26.7801H2.12743L0.0551147 22.5875H14.286C14.286 22.5875 15.2705 22.5875 15.8557 22.3371C16.4684 22.0738 17.0881 21.7592 17.6664 20.9053C18.2447 20.0514 18.2172 19.0498 18.1483 18.5169C18.0726 17.984 17.7215 17.1557 17.1018 16.6356C16.7232 16.3146 16.2068 16 15.9865 15.8523C15.7662 15.7047 12.8677 13.8363 12.7506 13.7464C12.5854 13.6308 12.31 13.2456 12.4133 12.764C12.5097 12.3275 12.8126 11.9165 13.5149 11.8395C13.5837 11.8331 13.7214 11.8331 13.7214 11.8331H17.1087C17.1087 11.8331 19.1191 12.3981 20.6544 14.0482C22.1897 15.6982 22.5477 17.3676 22.6647 18.3628C22.7818 19.3515 22.6578 20.9888 21.9281 22.3884C21.1983 23.7881 19.8626 25.3547 17.6251 26.2087C16.1586 26.7737 14.6371 26.7801 14.4787 26.7737C14.3961 26.7737 14.1001 26.7737 14.1001 26.7737L14.0932 26.7801Z" fill="white"/>
<path fill-rule="evenodd" clip-rule="evenodd" d="M25.7078 11.8395H19.2774C20.2137 12.3981 21.2946 13.2713 21.873 14.0417C22.3755 14.7159 22.8919 15.634 23.064 16.0449C23.2155 16.4173 23.7938 18.0289 23.6423 19.6533C23.4771 21.4639 22.9676 22.6581 22.107 23.8716C21.2464 25.0851 20.0623 26.138 18.2516 26.9213C16.4891 27.6854 14.4167 27.6533 14.4167 27.6533H2.55426L4.61281 31.8266H14.761C14.761 31.8266 14.9056 31.8266 15.6078 31.7945C16.3101 31.7624 18.2516 31.4607 19.6561 30.8957C23.0227 29.5473 24.8334 27.6212 26.0864 25.8619C26.472 25.3226 28.3171 22.382 28.1243 18.5233C27.9247 14.4847 25.7078 11.8395 25.7078 11.8395Z" fill="white"/>
</g>
<defs>
<clipPath id="clip0_2210_14">
<rect width="121" height="32" fill="white"/>
</clipPath>
</defs>
</svg>
