<svg width="90" height="20" viewBox="0 0 90 20" fill="none" xmlns="http://www.w3.org/2000/svg">
<g clip-path="url(#clip0_2212_440)">
<path fill-rule="evenodd" clip-rule="evenodd" d="M16.94 0C14.4717 0 12.5257 2.14686 12.5257 2.14686C12.5257 2.14686 8.29075 12.8224 7.23073 14.478C6.1707 16.1335 5.99659 14.1095 5.99659 14.1095L5.64836 0H0L0.353343 20H10.59C10.59 20 15.5317 7.36449 16.5303 5.34045C17.5289 3.31642 18.5326 3.62083 18.5326 3.62083H88.4125L90 0L16.94 0Z" fill="white"/>
<path fill-rule="evenodd" clip-rule="evenodd" d="M18.8808 5.08948C17.703 5.08948 17.0578 6.74502 17.0578 6.74502L11.9266 19.9947H17.7491L23.3514 5.08948H18.8808Z" fill="white"/>
<path fill-rule="evenodd" clip-rule="evenodd" d="M25.8247 16.6248L29.0611 8.28304H34.4125L35.5135 5.09479H26.0449C24.4574 5.09479 23.5306 6.93724 23.5306 6.93724C23.5306 6.93724 21.1186 13.5007 20.0586 16.3845C18.9985 19.2684 21.4566 20.0053 21.4566 20.0053H29.988L31.1197 16.6302H25.8247V16.6248Z" fill="white"/>
<path fill-rule="evenodd" clip-rule="evenodd" d="M45.2945 11.5354C46.1036 10.4352 50.9275 5.09479 50.9275 5.09479H45.0435L40.0609 10.1255L41.8123 5.09479H36.4609L30.6384 20H36.2868L38.9497 13.0093L41.464 20H46.2879L44.8336 13.3137C44.8336 13.3137 44.7158 12.3311 45.3047 11.5354H45.2945Z" fill="white"/>
<path fill-rule="evenodd" clip-rule="evenodd" d="M52.1514 16.5607L53.0066 14.3498H58.1121L59.1107 11.0387H54.2868L55.3827 8.21895H60.734L61.835 5.0307H52.3665C50.779 5.0307 49.8521 6.87316 49.8521 6.87316C49.8521 6.87316 47.4401 13.4366 46.3801 16.3204C45.3201 19.2043 47.7781 19.9412 47.7781 19.9412H56.3096L57.4413 16.5661H52.1463L52.1514 16.5607Z" fill="white"/>
<path fill-rule="evenodd" clip-rule="evenodd" d="M76.7624 6.01338C76.7624 6.01338 75.1749 9.44729 74.2327 11.5942C73.2904 13.741 75.4668 14.1095 75.4668 14.1095H78.7032C79.3485 14.1095 79.4099 14.8465 79.4099 14.8465C79.4099 14.8465 79.1743 15.6422 78.9388 16.2564C78.7032 16.8705 78.2321 16.7477 78.2321 16.7477H72.9371L72.1741 19.1402C72.1741 19.1402 70.4073 14.7237 70.2332 14.2964C70.0591 13.8692 70.4688 13.6823 70.4688 13.6823C72.4711 13.3138 74.5297 10.9213 75.0571 8.03741C75.5846 5.15356 73.5106 5.09482 73.5106 5.09482H62.2753L56.9394 19.8185L56.7499 20H62.1012L64.5849 13.6182L67.0429 20H80.5724C83.1584 20 83.2916 18.7717 83.2916 18.7717C83.2916 18.7717 85.1146 14.9052 85.7035 13.0681C86.2924 11.2257 84.7613 11.2897 84.7613 11.2897L80.4085 11.2257C80.4085 11.2257 80.4085 10.6115 80.644 9.75169C80.8796 8.89188 81.5863 8.52339 81.5863 8.52339H86.7635L87.926 5.08948H78.693C77.044 5.08948 76.7675 6.00804 76.7675 6.00804L76.7624 6.01338ZM69.291 9.32446C68.8813 10.98 65.4657 11.0441 65.4657 11.0441L66.582 8.10149C66.582 8.10149 69.7007 7.67426 69.2859 9.3298L69.291 9.32446Z" fill="white"/>
</g>
<defs>
<clipPath id="clip0_2212_440">
<rect width="90" height="20" fill="white"/>
</clipPath>
</defs>
</svg>
