<svg width="63" height="62" viewBox="0 0 63 62" fill="none" xmlns="http://www.w3.org/2000/svg">
<g filter="url(#filter0_dd_2208_109)">
<path d="M31.5 9.48137C36.3529 9.48137 40.6667 11.4679 43.8121 14.6284C47.0474 17.7889 48.9346 22.2135 48.9346 27.0896C48.9346 31.8742 47.0474 36.3001 43.8121 39.4593C40.6654 42.621 36.3517 44.6064 31.5 44.6064C26.6471 44.6064 22.3333 42.6198 19.098 39.4593C15.9514 36.2989 13.9755 31.8742 13.9755 27.0896C13.9755 22.2123 15.9526 17.7889 19.098 14.6272C22.3333 11.4679 26.6471 9.48137 31.5 9.48137ZM31.5 9.75227C26.9491 9.75749 22.586 11.576 19.3676 14.809C16.221 17.9695 14.2451 22.3038 14.2451 27.0896C14.2451 31.8742 16.2222 36.2086 19.3676 39.28C22.4232 42.4404 26.7357 44.3367 31.5 44.3367C36.2631 44.3367 40.5768 42.4392 43.6324 39.28C46.779 36.2098 48.665 31.8755 48.665 27.0896C48.665 22.3038 46.7778 17.9695 43.6324 14.809C40.4142 11.5758 36.051 9.75722 31.5 9.75227Z" fill="#BCBCB6"/>
<path d="M31.5 0.180598C37.6111 0.180598 43.2729 2.25622 47.7663 5.68882L50.732 2.70896L55.9445 7.94629L52.9788 11.0165C56.3039 15.5314 58.1912 21.0396 58.1912 26.9993C58.1912 41.8083 46.2386 53.9084 31.5 53.9084C16.7614 53.9084 4.80882 41.8083 4.80882 26.9993C4.80882 12.1891 16.7614 0.180598 31.5 0.180598ZM31.5 6.50151C20.2663 6.50151 11.0997 15.712 11.0997 26.9993C11.0997 38.377 20.2663 47.4972 31.5 47.4972C42.7337 47.4972 51.9003 38.377 51.9003 26.9993C51.9003 15.712 42.7337 6.50151 31.5 6.50151Z" fill="url(#paint0_radial_2208_109)"/>
<path d="M31.5 6.41121C37.1618 6.41121 42.2843 8.66868 46.0588 12.4612C47.9731 14.38 49.4907 16.6604 50.5241 19.171C51.5575 21.6816 52.0863 24.3728 52.0801 27.0896C52.0801 32.7772 49.7435 37.9255 46.0588 41.718C42.2843 45.419 37.1618 47.7668 31.5 47.7668C26.0425 47.7614 20.8087 45.5869 16.9412 41.718C13.2565 37.9255 10.9199 32.7772 10.9199 27.0896C10.9199 21.3105 13.2565 16.1622 16.9412 12.4612C20.6258 8.66868 25.8382 6.41121 31.5 6.41121ZM31.5 6.68211C25.9281 6.68211 20.8056 8.93958 17.1209 12.6418C13.4363 16.3441 11.1895 21.4008 11.1895 27.0896C11.1895 32.6882 13.4363 37.8339 17.1209 41.5374C20.8043 45.1494 25.9281 47.4972 31.5 47.4972C37.0719 47.4972 42.1945 45.1494 45.8803 41.5374C47.7648 39.6386 49.2586 37.3853 50.2763 34.9064C51.294 32.4274 51.8157 29.7712 51.8117 27.0896C51.8117 21.4008 49.5637 16.3441 45.8803 12.6406C42.0629 8.81699 36.8902 6.67367 31.5 6.68211Z" fill="url(#paint1_linear_2208_109)"/>
<path d="M31.5 0C37.6111 0 43.3627 2.07687 47.8562 5.59853L47.7663 5.68882C43.0896 2.11489 37.3757 0.18001 31.5 0.180598C16.7614 0.180598 4.80882 12.1891 4.80882 26.9993C4.80882 41.8083 16.7614 53.9084 31.5 53.9084C46.2386 53.9084 58.1912 41.8083 58.1912 26.9993C58.1912 21.0396 56.3039 15.5301 52.9788 11.0165L53.0686 10.9262C56.3938 15.4423 58.3709 20.9493 58.3709 26.9993C58.3709 34.4941 55.3154 41.2665 50.4624 46.1427C45.6082 51.0201 38.9591 53.9999 31.5 53.9999C27.9803 54.0076 24.4937 53.3175 21.2398 51.9692C17.986 50.6209 15.0288 48.641 12.5376 46.1427C7.68464 41.1763 4.62909 34.4941 4.62909 26.9993C4.62909 19.5948 7.68464 12.8224 12.5376 7.94629C17.3905 3.07016 24.0408 0 31.5 0Z" fill="url(#paint2_radial_2208_109)"/>
<path d="M31.5 6.59181C42.7337 6.59181 51.9003 15.712 51.9003 27.0909C51.9003 38.3782 42.7337 47.5887 31.5 47.5887C20.2663 47.5887 11.0997 38.377 11.0997 27.0896C11.0997 15.712 20.2663 6.59181 31.5 6.59181ZM31.5 9.48137C21.884 9.48137 14.0654 17.3374 14.0654 27.0896C14.0654 36.7504 21.884 44.6076 31.5 44.6076C41.116 44.6076 48.9346 36.7504 48.9346 27.0896C48.9346 17.3374 41.116 9.48137 31.5 9.48137Z" fill="url(#paint3_radial_2208_109)"/>
<path d="M7.11297 33.5071C7.11297 33.5335 7.11921 33.556 7.13294 33.5786C7.14418 33.5999 7.1629 33.6087 7.19036 33.6087C7.21033 33.6087 7.22781 33.6037 7.24902 33.5937C7.27169 33.5814 7.29267 33.5662 7.31143 33.5485V33.3491C7.23654 33.3616 7.18537 33.3792 7.15666 33.4055C7.14267 33.4184 7.13155 33.4341 7.12402 33.4516C7.11649 33.4692 7.11273 33.4881 7.11297 33.5071Z" fill="url(#paint4_linear_2208_109)"/>
<path d="M10.9174 32.9365H11.0435V33.0431H10.9174V32.9365Z" fill="url(#paint5_linear_2208_109)"/>
<path d="M10.9174 33.0644H11.0435V33.1735H10.9174V33.0644Z" fill="url(#paint6_linear_2208_109)"/>
<path d="M8.37738 33.5071C8.37738 33.5335 8.38487 33.556 8.39735 33.5786C8.40859 33.5999 8.42731 33.6087 8.45477 33.6087C8.47474 33.6087 8.49346 33.6037 8.51344 33.5937C8.53341 33.5836 8.55338 33.5686 8.57584 33.5485V33.3491C8.50095 33.3616 8.44978 33.3792 8.42107 33.4055C8.40708 33.4184 8.39596 33.4341 8.38843 33.4516C8.3809 33.4692 8.37714 33.4881 8.37738 33.5071Z" fill="url(#paint7_linear_2208_109)"/>
<path d="M11.4641 33.1234H11.8086V33.2876H11.4641V33.1234Z" fill="url(#paint8_linear_2208_109)"/>
<path d="M14.9453 32.5552H5.38923C5.62514 33.6827 5.95216 34.7763 6.32412 35.8474H16.4219C15.8181 34.8041 15.3232 33.7008 14.9453 32.5552ZM10.8713 32.7647L10.9449 32.8111L10.9187 32.8412V32.9177H11.0385L11.0647 32.875L11.1147 32.934L11.0884 32.9641V33.0443H11.1022L11.1384 32.9979L11.1908 33.0657H11.0859L11.0884 33.2099L11.0423 33.2375V33.1948H10.9174V33.319H11.0123L11.0448 33.2676L11.0947 33.3403H10.9174V33.4544H11.0722L11.1084 33.3955L11.1646 33.4733H10.9174C10.9174 33.5209 10.9187 33.5723 10.9237 33.6263L10.8713 33.6514C10.8738 33.5861 10.8762 33.5272 10.8762 33.4733H10.7439C10.7264 33.4725 10.7091 33.4768 10.694 33.4858L10.6641 33.4519H10.8762V33.3378H10.7801C10.7614 33.3378 10.7502 33.3416 10.7402 33.3504L10.714 33.3177H10.8762V33.1936H10.7801C10.7614 33.1936 10.7502 33.1973 10.7402 33.2074L10.714 33.1723H10.8762V33.0632H10.734C10.7152 33.0632 10.704 33.0669 10.6953 33.0757L10.669 33.0418H10.8775V32.9365H10.7864C10.7677 32.9365 10.7552 32.9415 10.7464 32.9503L10.7202 32.9164H10.875C10.8759 32.8658 10.8746 32.8152 10.8713 32.7647ZM6.93947 33.6338H6.68235V33.6075H6.75849C6.77097 33.6075 6.77846 33.6049 6.78345 33.5987C6.78844 33.5924 6.78969 33.5849 6.78969 33.5736V32.9691C6.79025 32.9603 6.78807 32.9515 6.78345 32.944C6.7802 32.9407 6.7763 32.9381 6.77201 32.9364C6.76771 32.9347 6.76311 32.9338 6.75849 32.934H6.6836V32.9089H6.72104C6.76003 32.9091 6.79807 32.8968 6.82963 32.8738H6.83588V33.5723C6.83588 33.5836 6.83837 33.5924 6.84336 33.5974C6.84961 33.6024 6.85585 33.6062 6.86583 33.6062H6.94322V33.6325H6.93947V33.6338ZM7.40879 33.6112C7.39756 33.6275 7.38258 33.6363 7.36635 33.6363C7.35313 33.637 7.34015 33.6325 7.33016 33.6238C7.3201 33.6114 7.31324 33.5968 7.31019 33.5811C7.29129 33.5981 7.2708 33.6132 7.24902 33.6263C7.22768 33.6368 7.20413 33.6419 7.18037 33.6413C7.16347 33.6422 7.14658 33.6394 7.13085 33.6332C7.11513 33.6269 7.10094 33.6173 7.08926 33.6049C7.07868 33.5945 7.07034 33.582 7.06476 33.5682C7.05918 33.5544 7.05647 33.5396 7.0568 33.5247C7.0568 33.4733 7.07428 33.4319 7.10798 33.398C7.14168 33.3667 7.20908 33.3428 7.31019 33.3278V33.2764C7.31096 33.2521 7.30582 33.228 7.29521 33.2061C7.28397 33.1861 7.26275 33.1785 7.22656 33.1785C7.19036 33.1785 7.1629 33.1861 7.14917 33.2036C7.13419 33.2199 7.1267 33.2337 7.13294 33.2513C7.13665 33.2623 7.13665 33.2742 7.13294 33.2851C7.13075 33.2903 7.12711 33.2947 7.12245 33.2979C7.11779 33.301 7.11233 33.3027 7.10673 33.3027C7.10266 33.3028 7.09863 33.3019 7.09494 33.3002C7.09126 33.2985 7.08803 33.2959 7.08551 33.2927C7.07925 33.2839 7.07578 33.2734 7.07553 33.2626C7.07553 33.2362 7.0905 33.2124 7.11796 33.1886C7.14822 33.1661 7.18519 33.1546 7.22281 33.156C7.2665 33.156 7.3002 33.166 7.32142 33.1861C7.34513 33.2086 7.35387 33.2375 7.35387 33.2764V33.556C7.35387 33.5799 7.35512 33.5924 7.35886 33.5962C7.36261 33.5999 7.3676 33.6024 7.37759 33.6024C7.38882 33.6024 7.39756 33.5962 7.4013 33.5836C7.40505 33.5711 7.40754 33.5535 7.40754 33.531H7.42377C7.42502 33.5686 7.42003 33.5962 7.40879 33.6112ZM7.83692 33.6338H7.69837V33.6075H7.71585C7.72708 33.6075 7.73457 33.6049 7.73956 33.5987C7.74455 33.5924 7.74455 33.5861 7.74455 33.5748V33.2902C7.74617 33.2632 7.74057 33.2364 7.72833 33.2124C7.72352 33.2038 7.71643 33.1966 7.70784 33.1917C7.69926 33.1869 7.6895 33.1845 7.67965 33.1848C7.65682 33.1861 7.63516 33.1954 7.61849 33.2111C7.59464 33.2312 7.57511 33.256 7.56107 33.2839V33.5761C7.56107 33.5874 7.56357 33.5962 7.56981 33.6012C7.5748 33.6062 7.58229 33.61 7.59103 33.61H7.60725V33.6363H7.4687V33.61H7.48493C7.49741 33.61 7.5049 33.6075 7.50989 33.6012C7.51489 33.5949 7.51614 33.5874 7.51614 33.5761V33.2111C7.51614 33.2036 7.51489 33.1948 7.51239 33.1911C7.50989 33.1873 7.5049 33.1848 7.49866 33.1848H7.4687V33.1597H7.49242C7.5049 33.1597 7.51614 33.1585 7.52487 33.156C7.53361 33.1535 7.54484 33.1472 7.55358 33.1371H7.55982V33.235C7.57649 33.2115 7.59622 33.1904 7.61849 33.1723C7.63629 33.1583 7.65829 33.1507 7.6809 33.1509C7.71834 33.1509 7.7458 33.1635 7.76328 33.1873C7.78287 33.2224 7.79197 33.2625 7.78949 33.3027V33.5736C7.78949 33.5849 7.79198 33.5937 7.79823 33.5987C7.80447 33.6037 7.81196 33.6075 7.82069 33.6075H7.83692V33.6338ZM8.18766 33.6012C8.16769 33.6275 8.14397 33.6388 8.11152 33.6388C8.07907 33.6388 8.0541 33.6263 8.03788 33.6012C8.02165 33.5761 8.01166 33.536 8.01166 33.482V33.1861H7.9168V33.161H7.94301C7.95554 33.1613 7.96796 33.1587 7.97925 33.1532C7.99054 33.1478 8.00037 33.1397 8.00792 33.1296C8.02539 33.1083 8.03413 33.0757 8.03913 33.0305L8.04162 32.9979H8.06159V33.1622H8.19265V33.1873H8.06159V33.5009C8.06159 33.541 8.06783 33.5686 8.07907 33.5811C8.0903 33.5962 8.10528 33.6024 8.12899 33.6024C8.13921 33.6027 8.14933 33.6004 8.15847 33.5958C8.16762 33.5912 8.17549 33.5845 8.18142 33.5761C8.1959 33.5525 8.20486 33.5259 8.20763 33.4983L8.2251 33.5071C8.22023 33.541 8.2074 33.5733 8.18766 33.6012ZM8.6732 33.6112C8.66197 33.6275 8.64824 33.6363 8.63076 33.6363C8.61579 33.6363 8.60455 33.6325 8.59582 33.6238C8.58583 33.615 8.57959 33.5999 8.5746 33.5811C8.5557 33.5981 8.53521 33.6132 8.51344 33.6263C8.49256 33.6368 8.46939 33.642 8.44603 33.6413C8.43015 33.6422 8.41426 33.6398 8.39932 33.6343C8.38437 33.6289 8.37066 33.6205 8.35902 33.6096C8.34737 33.5987 8.33802 33.5856 8.33153 33.571C8.32504 33.5564 8.32153 33.5407 8.32121 33.5247C8.32088 33.5012 8.32524 33.4779 8.33403 33.4561C8.34282 33.4344 8.35586 33.4146 8.37239 33.398C8.40609 33.3667 8.47349 33.3428 8.5746 33.3278V33.2764C8.57537 33.2521 8.57023 33.228 8.55962 33.2061C8.54963 33.1861 8.52717 33.1785 8.49222 33.1785C8.45477 33.1785 8.42731 33.1861 8.41358 33.2036C8.3986 33.2199 8.39236 33.2337 8.39735 33.2513C8.4011 33.2638 8.4011 33.2751 8.39735 33.2851C8.39361 33.2952 8.38362 33.3027 8.37114 33.3027C8.36707 33.3028 8.36304 33.3019 8.35935 33.3002C8.35567 33.2985 8.35244 33.2959 8.34992 33.2927C8.34411 33.2837 8.34107 33.2732 8.34119 33.2626C8.34119 33.2362 8.35492 33.2124 8.38362 33.1886C8.41374 33.1658 8.45081 33.1543 8.48847 33.156C8.53091 33.156 8.56586 33.166 8.58708 33.1861C8.60955 33.2086 8.61828 33.2375 8.61828 33.2764V33.556C8.61828 33.5799 8.61953 33.5924 8.62328 33.5962C8.62702 33.5999 8.63201 33.6024 8.64325 33.6024C8.65448 33.6024 8.66197 33.5962 8.66571 33.5836C8.66946 33.5711 8.67196 33.5535 8.67196 33.531H8.68818C8.69099 33.5586 8.68579 33.5865 8.6732 33.6112ZM9.08261 33.2475C9.07761 33.2575 9.06888 33.2613 9.05764 33.2613C9.04516 33.2613 9.03643 33.2575 9.03143 33.2475C9.02573 33.2377 9.02395 33.226 9.02644 33.2149L9.02394 33.1923C9.02269 33.1886 9.01645 33.1848 9.00522 33.1848C8.9865 33.1848 8.96653 33.1986 8.94031 33.2274C8.91098 33.2628 8.88816 33.3032 8.87291 33.3466V33.5761C8.87291 33.5874 8.87541 33.5962 8.8804 33.6012C8.88539 33.6062 8.89288 33.61 8.90287 33.61H8.97526V33.6363H8.73312V33.61H8.80052C8.81175 33.61 8.81924 33.6075 8.82423 33.6012C8.82923 33.5949 8.83047 33.5874 8.83047 33.5761V33.2249C8.83061 33.2154 8.82847 33.2059 8.82423 33.1973C8.81924 33.1911 8.81175 33.1873 8.80052 33.1873H8.73312V33.1622H8.75933C8.7955 33.1625 8.83128 33.1548 8.86417 33.1397H8.87416V33.2927C8.89249 33.2545 8.91648 33.2194 8.94531 33.1886C8.9552 33.1778 8.96715 33.1691 8.98044 33.1631C8.99374 33.1571 9.00811 33.1538 9.02269 33.1535C9.04516 33.1535 9.06139 33.1597 9.07387 33.1723C9.08635 33.1848 9.09259 33.1973 9.09259 33.2149C9.09134 33.23 9.08885 33.2412 9.08261 33.2475ZM10.0125 33.4733V33.6426C10.0125 33.7015 9.98754 33.7429 9.94011 33.7655C9.93886 33.7241 9.90391 33.6927 9.83776 33.6739V33.6564L9.93262 33.6664C9.95384 33.6677 9.96133 33.6501 9.96133 33.6137V33.4733H9.69671C9.67402 33.4726 9.65144 33.4768 9.63056 33.4858L9.60435 33.4532H9.96258L9.96008 33.3303L10.0025 33.3554L10.0899 33.2588H9.81904L9.79033 33.2713L9.76412 33.2375H10.0899L10.1261 33.1948L10.1848 33.2789C10.1548 33.2739 10.0986 33.3027 10.0138 33.3679L10.0462 33.3892L10.0138 33.4156V33.4519H10.2347L10.2809 33.393L10.347 33.4733H10.0125ZM10.3483 33.2199C10.3171 33.2199 10.2909 33.2375 10.2759 33.2713C10.2123 33.239 10.1561 33.1937 10.1108 33.1385C10.0655 33.0832 10.032 33.0191 10.0125 32.9503H9.99378C9.99378 33.0807 9.99503 33.161 9.99628 33.1861L9.94011 33.2049C9.94261 33.1422 9.94385 33.0657 9.94385 32.9703C9.87162 33.1222 9.74952 33.2445 9.59811 33.3165L9.59561 33.2977C9.72776 33.2133 9.8327 33.0922 9.89767 32.949H9.69422C9.67152 32.9483 9.64894 32.9526 9.62806 32.9616L9.60185 32.9277H9.94385L9.94011 32.776L10.025 32.8224L9.99378 32.8512V32.9277H10.2359L10.2821 32.8688L10.3408 32.949H10.0287C10.0549 33.0159 10.0983 33.0745 10.1545 33.119C10.2106 33.1635 10.2775 33.1923 10.3483 33.2024V33.2199ZM11.1983 33.6764C11.1546 33.694 11.1334 33.7128 11.1384 33.7404C11.0693 33.7429 11.0002 33.7429 10.9312 33.7404C10.8629 33.7395 10.7954 33.725 10.7327 33.6978C10.6808 33.6755 10.6344 33.6421 10.5967 33.5999C10.5581 33.6658 10.5052 33.722 10.4419 33.7642L10.4319 33.7517C10.4916 33.6987 10.5397 33.6338 10.5729 33.5611C10.5367 33.4932 10.5103 33.4206 10.4943 33.3453L10.508 33.3378C10.5283 33.3996 10.5547 33.4593 10.5867 33.5159C10.6091 33.4419 10.6241 33.3453 10.6329 33.2287H10.5367L10.5105 33.2751L10.4656 33.2162L10.5043 33.1936C10.544 33.1119 10.5814 33.0291 10.6166 32.9453H10.5093L10.4718 32.9578L10.4456 32.9239H10.6216L10.6503 32.8775L10.6965 32.9465L10.6603 32.9678C10.6241 33.0443 10.5829 33.1246 10.5417 33.2086H10.6304L10.6566 33.171L10.7065 33.23L10.6778 33.2588C10.6683 33.3588 10.6487 33.4576 10.6191 33.5535C10.6501 33.5907 10.6907 33.6185 10.7365 33.6338C10.7931 33.6541 10.8524 33.666 10.9124 33.6689C10.9786 33.6752 11.0747 33.6689 11.202 33.6589L11.1983 33.6764ZM12.0096 33.6677C11.9709 33.6764 11.9472 33.6978 11.9409 33.7366C11.8836 33.7145 11.8288 33.6864 11.7774 33.6526C11.7283 33.6176 11.686 33.5738 11.6526 33.5234C11.6117 33.4582 11.5833 33.3859 11.569 33.3102H11.4641V33.6488L11.6414 33.551L11.6476 33.5636C11.5689 33.6095 11.4998 33.6704 11.4442 33.7429L11.4055 33.6714C11.4153 33.656 11.4209 33.6383 11.4217 33.62V33.0092C11.4217 32.9641 11.4205 32.9252 11.418 32.8913L11.4641 32.9327H11.6314C11.6247 32.88 11.6054 32.8297 11.5752 32.786L11.5815 32.7722C11.6364 32.8035 11.6676 32.8311 11.6751 32.8562C11.6826 32.8813 11.6751 32.9076 11.6526 32.9327H11.8012L11.8274 32.8913L11.8798 32.9503L11.8498 32.9754V33.2162L11.8523 33.3265L11.8061 33.3478V33.3102H11.589C11.6086 33.376 11.6385 33.4382 11.6776 33.4946C11.7555 33.4512 11.8249 33.3938 11.8823 33.3253L11.931 33.4093H11.8923C11.8261 33.4381 11.7612 33.4745 11.6913 33.5096C11.7324 33.5586 11.7852 33.5961 11.8448 33.6187C11.898 33.6385 11.9542 33.6487 12.0108 33.6488L12.0096 33.6677Z" fill="url(#paint9_linear_2208_109)"/>
<path d="M11.4641 32.954H11.8086V33.102H11.4641V32.954Z" fill="url(#paint10_linear_2208_109)"/>
<path d="M48.0684 32.5552H57.6233C57.3834 33.6719 57.0711 34.7716 56.6884 35.8474H46.5906C47.1897 34.8102 47.689 33.7116 48.0684 32.5552Z" fill="url(#paint11_linear_2208_109)"/>
<path d="M58.1013 20.2269C58.7304 22.3954 59 24.6516 59 26.9993C59 29.4374 58.6405 31.7839 58.1013 34.0426H4.98856V33.9524H58.0114C58.6405 31.6949 58.9101 29.3471 58.9101 26.909C58.9101 24.5613 58.6405 22.3038 58.1013 20.2269Z" fill="black"/>
<path d="M4.89869 20.1366H58.1013C58.6405 22.3038 58.9089 24.56 58.9089 26.9078C58.9089 29.3459 58.6393 31.6936 58.0102 33.9511H4.98856C4.33964 31.6603 4.00701 29.2908 4 26.909C4 24.5613 4.35948 22.3038 4.89869 20.1366Z" fill="url(#paint12_radial_2208_109)"/>
<path d="M51.8105 0.901734L57.7418 6.86271L53.3382 11.2873L53.6078 11.6485L50.4624 14.1757L49.4739 14.5381L55.9445 7.94629L50.732 2.70896L44.2614 9.21048L44.5311 8.30749L51.8105 0.901734Z" fill="url(#paint13_linear_2208_109)"/>
<path d="M45.8791 0.270896C51.0915 3.07016 55.3154 7.4045 58.1899 12.5515V0.270896H45.8791Z" fill="url(#paint14_radial_2208_109)"/>
<path d="M58.1912 0C58.2811 0 58.3722 0.0902988 58.3722 0.270896H45.6981C45.6994 0.0902988 45.7892 0 45.8791 0H58.1912Z" fill="url(#paint15_linear_2208_109)"/>
<path d="M58.3709 12.5515C58.3709 12.7334 58.281 12.8237 58.1899 12.8237L58.1013 12.6418V0H58.1899C58.2798 0 58.3709 0.0902988 58.3709 0.270896V12.5515Z" fill="url(#paint16_linear_2208_109)"/>
<path d="M50.732 30.378C48.333 30.378 46.3821 28.9019 46.3821 27.0896C46.3821 25.2761 48.333 23.8013 50.732 23.8013C53.181 23.8013 55.1731 25.2761 55.1731 27.0896C55.1731 28.9031 53.181 30.378 50.732 30.378ZM50.732 24.7795C49.8695 24.7795 49.2417 25.7515 49.2417 27.0909C49.2417 28.3563 49.8833 29.3107 50.732 29.3107C51.5384 29.3107 52.2224 28.2936 52.2224 27.0909C52.2236 25.8154 51.5533 24.7795 50.732 24.7795ZM23.4118 30.378C21.0115 30.378 19.0606 28.9019 19.0606 27.0896C19.0606 25.3552 21.0527 23.8903 23.4118 23.8903C25.8607 23.8903 27.8528 25.3263 27.8528 27.0896C27.8528 28.9031 25.8607 30.378 23.4118 30.378ZM23.4118 24.8698C22.5605 24.8698 21.9214 25.8242 21.9214 27.0909C21.9214 28.3563 22.563 29.3107 23.4118 29.3107C24.2181 29.3107 24.9009 28.2936 24.9009 27.0909C24.9009 25.8882 24.2206 24.8698 23.4118 24.8698ZM39.4085 30.1974L36.5901 24.9413L35.1859 24.9626L35.1484 24.1123L41.297 24.0747L41.3344 24.925L39.7692 24.9626L41.9585 28.6084L43.7796 24.9074L42.7349 24.9613L42.6975 24.111L46.9588 24.0734L46.9962 24.9237L45.5209 24.9613L42.7574 30.1987H39.4085V30.1974ZM28.1748 30.1974L28.1374 29.1665L29.614 29.1301L29.5766 24.9237L28.1761 24.9613L28.1386 24.111L33.8379 24.0734L33.8753 24.9237L32.3987 24.9613L32.4361 29.1678L33.9265 29.1314C34.4108 29.1314 35.6864 28.8128 35.775 27.3605L36.7112 27.3254L36.7486 30.1999H28.1748V30.1974ZM12.0882 30.1974L9.26984 24.9413L7.86563 24.9626L7.82818 24.1123L13.9767 24.0747L14.0142 24.925L12.449 24.9626L14.6383 28.6084L16.5505 24.9074L15.4146 24.9626L15.3772 24.1123L19.6385 24.0747L19.676 24.925L18.1993 24.9626L15.4359 30.1999L12.0882 30.1974Z" fill="white"/>
<path d="M50.732 23.8389C53.1585 23.8389 55.1356 25.2837 55.1356 27.0909C55.1356 28.8956 53.1585 30.3417 50.732 30.3417C48.3954 30.3417 46.4183 28.8969 46.4183 27.0909C46.4183 25.2837 48.3954 23.8389 50.732 23.8389ZM50.732 29.3471C51.5396 29.3471 52.2598 28.3538 52.2598 27.0896C52.2598 25.7352 51.5409 24.7419 50.732 24.7419C49.8333 24.7419 49.203 25.7352 49.203 27.0896C49.2043 28.3538 49.8333 29.3471 50.732 29.3471ZM23.4118 23.9292C25.837 23.9292 27.8141 25.374 27.8141 27.0909C27.8141 28.8956 25.837 30.3417 23.4118 30.3417C21.0752 30.3417 19.098 28.8969 19.098 27.0909C19.098 25.374 21.0752 23.9292 23.4118 23.9292ZM23.4118 29.3471C24.2193 29.3471 24.9395 28.3538 24.9395 27.0896C24.9395 25.8242 24.2206 24.8309 23.4118 24.8309C22.5118 24.8309 21.8827 25.8242 21.8827 27.0896C21.884 28.3538 22.5131 29.3471 23.4118 29.3471ZM46.9575 24.1098V24.9212H45.5209L42.7349 30.1585H39.4097L36.6251 24.9212H35.1871V24.1098H41.2983V24.9212H39.7705L41.9286 28.6235L43.8158 24.9212H42.7374V24.1098H46.9575ZM33.8366 24.1098V24.9212H32.3987V29.1653H33.9277C34.4669 29.1653 35.7239 28.8041 35.815 27.3605H36.7137V30.1585H28.1748V29.1653H29.6128V24.9212H28.1748V24.1098H33.8366ZM19.6373 24.1098V24.9212H18.1993L15.4146 30.1585H12.0882L9.30229 24.9212H7.86438V24.1098H13.9755V24.9212H12.4477L14.6046 28.6235L16.5817 24.9212H15.4134V24.1098H19.6373ZM50.732 23.7636C48.313 23.7636 46.3422 25.2548 46.3422 27.0896C46.3422 28.9232 48.3106 30.4144 50.732 30.4144C53.2022 30.4144 55.2105 28.9245 55.2105 27.0896C55.2105 25.2536 53.2009 23.7636 50.732 23.7636ZM50.732 29.2719C49.9032 29.2719 49.2791 28.3338 49.2791 27.0909C49.2791 25.7728 49.8895 24.8184 50.732 24.8184C51.5334 24.8184 52.1849 25.838 52.1849 27.0909C52.1849 28.2723 51.5196 29.2719 50.732 29.2719ZM23.4118 23.8539C21.0327 23.8539 19.0219 25.3363 19.0219 27.0896C19.0219 28.9232 20.9903 30.4144 23.4118 30.4144C25.8819 30.4144 27.8903 28.9245 27.8903 27.0896C27.8903 25.305 25.8819 23.8539 23.4118 23.8539ZM23.4118 29.2719C22.583 29.2719 21.9589 28.3338 21.9589 27.0909C21.9589 25.8468 22.583 24.9087 23.4118 24.9087C24.1994 24.9087 24.8634 25.9082 24.8634 27.0909C24.8647 28.2723 24.1994 29.2719 23.4118 29.2719ZM47.0324 24.0345H42.6575V24.999H43.6885L41.9211 28.4692L39.9003 24.9977H41.3731V24.0333H35.111V24.9977H36.5776L39.3424 30.1949L39.3636 30.235H42.7786L42.7998 30.1949L45.5658 24.9977H47.0337L47.0324 24.0345ZM33.9115 24.0345H28.0999V24.999H29.5379V29.0925H28.0999V30.2376H36.7886V27.2865H35.7438L35.7388 27.358C35.6502 28.7815 34.4008 29.0938 33.9265 29.0938H32.4736V25.0002H33.9115V24.0345ZM19.7121 24.0345H15.3385V24.999H16.4569L14.6021 28.473L12.5788 24.999H14.0529V24.0345H7.78949V24.999H9.25735L12.0233 30.1962L12.0445 30.2363H15.4583L15.4796 30.1962L18.2443 24.999H19.7121V24.0345Z" fill="#39393C"/>
<path d="M4.99605 20.2407C4.45684 22.4079 4.09736 24.6641 4.09736 27.0119C4.09736 27.2063 4.16351 28.3563 4.16975 28.5507L4.32578 30.2952C4.32328 30.1548 4.25338 27.3116 4.25338 27.1699C4.25338 24.8221 4.64282 22.6462 5.18203 20.4778L24.0084 20.4L32.1341 20.2432L4.99605 20.2407Z" fill="url(#paint17_linear_2208_109)"/>
</g>
<defs>
<filter id="filter0_dd_2208_109" x="0" y="0" width="63" height="62" filterUnits="userSpaceOnUse" color-interpolation-filters="sRGB">
<feFlood flood-opacity="0" result="BackgroundImageFix"/>
<feColorMatrix in="SourceAlpha" type="matrix" values="0 0 0 0 0 0 0 0 0 0 0 0 0 0 0 0 0 0 127 0" result="hardAlpha"/>
<feOffset dy="4"/>
<feGaussianBlur stdDeviation="2"/>
<feComposite in2="hardAlpha" operator="out"/>
<feColorMatrix type="matrix" values="0 0 0 0 0 0 0 0 0 0 0 0 0 0 0 0 0 0 0.25 0"/>
<feBlend mode="normal" in2="BackgroundImageFix" result="effect1_dropShadow_2208_109"/>
<feColorMatrix in="SourceAlpha" type="matrix" values="0 0 0 0 0 0 0 0 0 0 0 0 0 0 0 0 0 0 127 0" result="hardAlpha"/>
<feOffset dy="4"/>
<feGaussianBlur stdDeviation="2"/>
<feComposite in2="hardAlpha" operator="out"/>
<feColorMatrix type="matrix" values="0 0 0 0 0 0 0 0 0 0 0 0 0 0 0 0 0 0 0.25 0"/>
<feBlend mode="normal" in2="effect1_dropShadow_2208_109" result="effect2_dropShadow_2208_109"/>
<feBlend mode="normal" in="SourceGraphic" in2="effect2_dropShadow_2208_109" result="shape"/>
</filter>
<radialGradient id="paint0_radial_2208_109" cx="0" cy="0" r="1" gradientUnits="userSpaceOnUse" gradientTransform="translate(11.8369 21.6403) scale(57.4396 56.3004)">
<stop stop-color="white"/>
<stop offset="0.041" stop-color="#FAFAF8"/>
<stop offset="0.225" stop-color="#F8F8F5"/>
<stop offset="0.287" stop-color="#DADAD7"/>
<stop offset="0.413" stop-color="#A3A4A1"/>
<stop offset="0.52" stop-color="#7E7F7D"/>
<stop offset="0.6" stop-color="#686866"/>
<stop offset="0.646" stop-color="#5F5F5D"/>
<stop offset="0.739" stop-color="#565754"/>
<stop offset="0.899" stop-color="#3B3A37"/>
<stop offset="1"/>
</radialGradient>
<linearGradient id="paint1_linear_2208_109" x1="17.4231" y1="22.2288" x2="44.0272" y2="31.5586" gradientUnits="userSpaceOnUse">
<stop stop-color="#DCDBD3"/>
<stop offset="1" stop-color="white"/>
</linearGradient>
<radialGradient id="paint2_radial_2208_109" cx="0" cy="0" r="1" gradientUnits="userSpaceOnUse" gradientTransform="translate(47.7358 44.2853) scale(62.6172 61.4772)">
<stop stop-color="#BBBCB7"/>
<stop offset="1" stop-color="#808079"/>
</radialGradient>
<radialGradient id="paint3_radial_2208_109" cx="0" cy="0" r="1" gradientUnits="userSpaceOnUse" gradientTransform="translate(44.4743 39.7372) scale(57.9176 56.8628)">
<stop stop-color="white"/>
<stop offset="0.157" stop-color="#F1F1F2"/>
<stop offset="0.298" stop-color="#E4E4E5"/>
<stop offset="0.335" stop-color="#CECFCE"/>
<stop offset="0.4" stop-color="#AEAFAC"/>
<stop offset="0.464" stop-color="#969694"/>
<stop offset="0.526" stop-color="#858683"/>
<stop offset="0.586" stop-color="#7C7C79"/>
<stop offset="0.64" stop-color="#787976"/>
<stop offset="0.738" stop-color="#5E5E5B"/>
<stop offset="0.846" stop-color="#43423F"/>
<stop offset="0.937" stop-color="#1F1F1E"/>
<stop offset="1"/>
</radialGradient>
<linearGradient id="paint4_linear_2208_109" x1="31.3286" y1="56.6087" x2="31.3286" y2="25.0435" gradientUnits="userSpaceOnUse">
<stop stop-color="white"/>
<stop offset="0.17" stop-color="#F8F8F5"/>
<stop offset="0.427" stop-color="#B1B1AC"/>
<stop offset="0.435" stop-color="#ADAEA8"/>
<stop offset="0.534" stop-color="#898984"/>
<stop offset="0.633" stop-color="#6C6C67"/>
<stop offset="0.731" stop-color="#53534E"/>
<stop offset="0.825" stop-color="#3E3E3A"/>
<stop offset="0.916" stop-color="#252523"/>
<stop offset="1" stop-color="#1B1A19"/>
</linearGradient>
<linearGradient id="paint5_linear_2208_109" x1="31.2277" y1="57.1765" x2="31.2277" y2="26.0471" gradientUnits="userSpaceOnUse">
<stop stop-color="white"/>
<stop offset="0.17" stop-color="#F8F8F5"/>
<stop offset="0.427" stop-color="#B1B1AC"/>
<stop offset="0.435" stop-color="#ADAEA8"/>
<stop offset="0.534" stop-color="#898984"/>
<stop offset="0.633" stop-color="#6C6C67"/>
<stop offset="0.731" stop-color="#53534E"/>
<stop offset="0.825" stop-color="#3E3E3A"/>
<stop offset="0.916" stop-color="#252523"/>
<stop offset="1" stop-color="#1B1A19"/>
</linearGradient>
<linearGradient id="paint6_linear_2208_109" x1="31.2277" y1="57.1035" x2="31.2277" y2="25.4483" gradientUnits="userSpaceOnUse">
<stop stop-color="white"/>
<stop offset="0.17" stop-color="#F8F8F5"/>
<stop offset="0.427" stop-color="#B1B1AC"/>
<stop offset="0.435" stop-color="#ADAEA8"/>
<stop offset="0.534" stop-color="#898984"/>
<stop offset="0.633" stop-color="#6C6C67"/>
<stop offset="0.731" stop-color="#53534E"/>
<stop offset="0.825" stop-color="#3E3E3A"/>
<stop offset="0.916" stop-color="#252523"/>
<stop offset="1" stop-color="#1B1A19"/>
</linearGradient>
<linearGradient id="paint7_linear_2208_109" x1="31.3286" y1="56.6087" x2="31.3286" y2="25.0435" gradientUnits="userSpaceOnUse">
<stop stop-color="white"/>
<stop offset="0.17" stop-color="#F8F8F5"/>
<stop offset="0.427" stop-color="#B1B1AC"/>
<stop offset="0.435" stop-color="#ADAEA8"/>
<stop offset="0.534" stop-color="#898984"/>
<stop offset="0.633" stop-color="#6C6C67"/>
<stop offset="0.731" stop-color="#53534E"/>
<stop offset="0.825" stop-color="#3E3E3A"/>
<stop offset="0.916" stop-color="#252523"/>
<stop offset="1" stop-color="#1B1A19"/>
</linearGradient>
<linearGradient id="paint8_linear_2208_109" x1="31.5" y1="57.2977" x2="31.5" y2="25.5573" gradientUnits="userSpaceOnUse">
<stop stop-color="white"/>
<stop offset="0.17" stop-color="#F8F8F5"/>
<stop offset="0.427" stop-color="#B1B1AC"/>
<stop offset="0.435" stop-color="#ADAEA8"/>
<stop offset="0.534" stop-color="#898984"/>
<stop offset="0.633" stop-color="#6C6C67"/>
<stop offset="0.731" stop-color="#53534E"/>
<stop offset="0.825" stop-color="#3E3E3A"/>
<stop offset="0.916" stop-color="#252523"/>
<stop offset="1" stop-color="#1B1A19"/>
</linearGradient>
<linearGradient id="paint9_linear_2208_109" x1="31.4969" y1="56.592" x2="31.4969" y2="24.8709" gradientUnits="userSpaceOnUse">
<stop stop-color="white"/>
<stop offset="0.17" stop-color="#F8F8F5"/>
<stop offset="0.427" stop-color="#B1B1AC"/>
<stop offset="0.435" stop-color="#ADAEA8"/>
<stop offset="0.534" stop-color="#898984"/>
<stop offset="0.633" stop-color="#6C6C67"/>
<stop offset="0.731" stop-color="#53534E"/>
<stop offset="0.825" stop-color="#3E3E3A"/>
<stop offset="0.916" stop-color="#252523"/>
<stop offset="1" stop-color="#1B1A19"/>
</linearGradient>
<linearGradient id="paint10_linear_2208_109" x1="31.5" y1="56.7458" x2="31.5" y2="25.1695" gradientUnits="userSpaceOnUse">
<stop stop-color="white"/>
<stop offset="0.17" stop-color="#F8F8F5"/>
<stop offset="0.427" stop-color="#B1B1AC"/>
<stop offset="0.435" stop-color="#ADAEA8"/>
<stop offset="0.534" stop-color="#898984"/>
<stop offset="0.633" stop-color="#6C6C67"/>
<stop offset="0.731" stop-color="#53534E"/>
<stop offset="0.825" stop-color="#3E3E3A"/>
<stop offset="0.916" stop-color="#252523"/>
<stop offset="1" stop-color="#1B1A19"/>
</linearGradient>
<linearGradient id="paint11_linear_2208_109" x1="31.5156" y1="56.5714" x2="31.5156" y2="24.8503" gradientUnits="userSpaceOnUse">
<stop stop-color="white"/>
<stop offset="0.17" stop-color="#F8F8F5"/>
<stop offset="0.427" stop-color="#B1B1AC"/>
<stop offset="0.435" stop-color="#ADAEA8"/>
<stop offset="0.534" stop-color="#898984"/>
<stop offset="0.633" stop-color="#6C6C67"/>
<stop offset="0.731" stop-color="#53534E"/>
<stop offset="0.825" stop-color="#3E3E3A"/>
<stop offset="0.916" stop-color="#252523"/>
<stop offset="1" stop-color="#1B1A19"/>
</linearGradient>
<radialGradient id="paint12_radial_2208_109" cx="0" cy="0" r="1" gradientUnits="userSpaceOnUse" gradientTransform="translate(6.49301 6.16232) scale(34.7434 136.233)">
<stop stop-color="#1E71B8"/>
<stop offset="0.082" stop-color="#1C69AB"/>
<stop offset="0.166" stop-color="#1B64A4"/>
<stop offset="0.242" stop-color="#1A63A1"/>
<stop offset="0.392" stop-color="#185D98"/>
<stop offset="0.685" stop-color="#0F4D80"/>
<stop offset="0.837" stop-color="#004472"/>
<stop offset="0.933" stop-color="#014472"/>
<stop offset="0.968" stop-color="#064271"/>
<stop offset="0.993" stop-color="#0D3F6F"/>
<stop offset="1" stop-color="#0F3D6E"/>
</radialGradient>
<linearGradient id="paint13_linear_2208_109" x1="56.8611" y1="53.1507" x2="3.10661" y2="-1.97438" gradientUnits="userSpaceOnUse">
<stop offset="0.006" stop-color="#121209"/>
<stop offset="0.646" stop-color="#454441"/>
<stop offset="0.65" stop-color="#484845"/>
<stop offset="0.655" stop-color="#535350"/>
<stop offset="0.66" stop-color="#646561"/>
<stop offset="0.664" stop-color="#7B7B77"/>
<stop offset="0.669" stop-color="#969792"/>
<stop offset="0.674" stop-color="#BBBBB7"/>
<stop offset="0.678" stop-color="#E8E7E2"/>
<stop offset="0.68" stop-color="#FBFAF5"/>
<stop offset="0.682" stop-color="#F8F7F2"/>
<stop offset="0.684" stop-color="#F0F0EA"/>
<stop offset="0.685" stop-color="#E4E3DD"/>
<stop offset="0.686" stop-color="#D2D2CC"/>
<stop offset="0.687" stop-color="#BBBCB5"/>
<stop offset="0.689" stop-color="#83847D"/>
<stop offset="0.69" stop-color="#6D6D67"/>
<stop offset="0.706" stop-color="#5F5F5B"/>
<stop offset="0.732" stop-color="#4D4D4B"/>
<stop offset="0.762" stop-color="#3B3A3A"/>
<stop offset="0.8" stop-color="#242324"/>
<stop offset="0.853" stop-color="#101010"/>
<stop offset="1"/>
</linearGradient>
<radialGradient id="paint14_radial_2208_109" cx="0" cy="0" r="1" gradientUnits="userSpaceOnUse" gradientTransform="translate(49.6818 6.04412) scale(64.7587 64.0423)">
<stop stop-color="#575652"/>
<stop offset="1" stop-color="#52524E"/>
</radialGradient>
<linearGradient id="paint15_linear_2208_109" x1="4.00542" y1="27" x2="58.9946" y2="27" gradientUnits="userSpaceOnUse">
<stop stop-color="#5D5E60"/>
<stop offset="0.019" stop-color="#5B5B5D"/>
<stop offset="0.205" stop-color="#484846"/>
<stop offset="0.41" stop-color="#343431"/>
<stop offset="0.649" stop-color="#222120"/>
<stop offset="1" stop-color="#1B1A19"/>
</linearGradient>
<linearGradient id="paint16_linear_2208_109" x1="31.5" y1="54" x2="31.5" y2="0.00527807" gradientUnits="userSpaceOnUse">
<stop stop-color="#5D5E60"/>
<stop offset="0.386" stop-color="#464543"/>
<stop offset="0.742" stop-color="#2A2927"/>
<stop offset="1" stop-color="#1B1A19"/>
</linearGradient>
<linearGradient id="paint17_linear_2208_109" x1="11.3468" y1="15.9127" x2="19.5114" y2="26.9032" gradientUnits="userSpaceOnUse">
<stop stop-color="white"/>
<stop offset="0.109" stop-color="#D5DDF0"/>
<stop offset="0.338" stop-color="#94ADD9"/>
<stop offset="0.542" stop-color="#668FC9"/>
<stop offset="0.714" stop-color="#447DBF"/>
<stop offset="0.848" stop-color="#2A74BA"/>
<stop offset="0.927" stop-color="#1E71B8"/>
<stop offset="0.947" stop-color="#4079BC"/>
<stop offset="0.967" stop-color="#5580C0"/>
<stop offset="0.985" stop-color="#6085C2"/>
<stop offset="1" stop-color="#6486C3"/>
</linearGradient>
</defs>
</svg>
