<svg width="123" height="35" viewBox="0 0 123 35" fill="none" xmlns="http://www.w3.org/2000/svg">
<g clip-path="url(#clip0_2205_23)">
<path d="M3.95993 12.1868L10.6293 26.2476H13.5898L14.7549 24.069L9.12081 12.1868H3.95993Z" fill="white"/>
<path d="M21.9299 18.9657L18.6977 12.1868H15.4877L13.0961 17.3292L15.5697 22.5446L17.2832 19.343L20.4863 26.2476H23.5562L30.2648 12.2106L25.2099 12.1868L21.9299 18.9657Z" fill="white"/>
<path fill-rule="evenodd" clip-rule="evenodd" d="M17.1705 34.1108C7.13571 34.1108 0 26.7931 0 17.1133C0 6.88291 7.93179 0.110779 17.1705 0.110779C26.4091 0.110779 34.2538 6.88291 34.2538 17.1133C34.2538 27.3437 26.3169 34.1108 17.1705 34.1108ZM17.1295 2.3302C8.76546 2.3302 2.26525 8.45826 2.26525 17.2391C2.26525 25.4336 7.93521 32.1378 17.1295 32.1378C25.391 32.1378 31.8912 26.0641 31.8912 17.2391C31.8912 8.41407 25.3892 2.3302 17.1295 2.3302Z" fill="white"/>
<path d="M57.2838 3.87329L54.5283 10.0098L51.5336 3.87329H48.4176L45.4229 10.0098L42.9065 3.87329H37.5133L43.1457 16.6035H46.2617L49.6168 10.3514L52.7311 16.6035H56.0863L61.4061 3.89538L57.2838 3.87329Z" fill="white"/>
<path d="M62.6992 3.89532L61.2027 7.46917L63.275 11.6021H59.4722L58.1892 14.6713H64.5323L65.3318 16.6035H70.0177L64.1906 3.89532H62.6992Z" fill="white"/>
<path d="M69.0355 10.0098C69.0355 12.6473 71.1606 16.6018 76.0055 16.6018C77.6062 16.6018 79.159 16.2619 80.348 15.5804V12.0559C79.0463 12.7832 78.3373 12.8002 77.1723 12.8002C75.1393 12.8002 73.8359 11.7738 73.8359 10.0472C73.8359 8.32058 74.8865 7.05452 76.9211 7.05452C78.1084 7.05452 79.2974 7.57794 80.4642 8.30359L80.5086 4.50712C79.3897 4.00749 78.0179 3.73389 76.4872 3.73389C72.2369 3.73389 69.0372 6.64327 69.0372 10.0081L69.0355 10.0098Z" fill="white"/>
<path d="M97.4946 16.6035H107.468V13.6483H102.116V11.6022H106.861V8.87464H102.116V6.7147H107.468V3.87329H97.5185L97.4946 16.6035Z" fill="white"/>
<path d="M91.7068 3.87329L86.4639 9.39466V3.87329H81.8668L81.8428 16.6035H86.4639V10.7474L91.2267 16.4897H96.6353L90.9858 9.78382L96.6353 3.87329H91.7068Z" fill="white"/>
<path d="M118.828 10.8069C121.058 10.2155 121.341 8.85255 121.341 7.62388C121.341 5.82761 120.678 3.87329 115.888 3.87329H109.038V6.7147H115.746C116.363 6.7147 116.954 7.05628 116.954 7.73774C116.954 8.57894 116.363 8.76078 115.746 8.76078H109.028L109.012 16.6035H113.635V11.6022H114.698L118.14 16.4897H123C123 16.4897 119.349 11.5563 118.828 10.8069Z" fill="white"/>
<path d="M55.731 31.3866H65.7213V28.4246H60.3605V26.3768H65.1131V23.6441H60.3605V21.4791H65.7213V18.6343H55.7549L55.731 31.3866Z" fill="white"/>
<path d="M39.7888 18.6343V31.3866H43.8717V24.9153L49.9226 31.3866H53.5528V18.6343H49.5177V25.0155L43.4053 18.6343H39.7888Z" fill="white"/>
<path d="M108.957 18.6343V31.3866H113.04V24.9153L119.091 31.3866H122.722V18.6343H118.686V25.0155L112.576 18.6343H108.957Z" fill="white"/>
<path d="M67.568 18.6343V26.6708C67.568 26.6708 67.6688 31.786 73.9691 31.786C80.2694 31.786 80.2712 26.6708 80.2712 26.6708V18.6343H76.3386L76.289 25.9179C76.289 25.9179 75.9867 28.1747 73.9691 28.1747C71.9516 28.1747 71.6492 25.8686 71.6492 25.8686V18.6343H67.5663H67.568Z" fill="white"/>
<path d="M91.8161 18.6343V21.4043H87.4291C87.4291 21.4043 86.2947 21.4553 86.2947 22.3322C86.2947 22.616 86.5339 22.876 86.8568 23.0969C87.535 23.5626 90.5536 24.7147 90.5536 24.7147C90.5536 24.7147 92.6702 25.5678 92.6702 27.5986C92.6702 29.6294 91.3975 31.3866 88.4592 31.3866H81.6532V28.275H87.3249C87.3249 28.275 88.3089 28.3005 88.3089 27.5969C88.3089 27.5969 88.4592 27.1959 87.7537 26.8696L84.3763 25.4166C84.3763 25.4166 81.906 24.538 81.906 22.2574C81.906 22.2574 81.918 18.6343 85.5482 18.6343H91.8127H91.8161Z" fill="white"/>
<path fill-rule="evenodd" clip-rule="evenodd" d="M100.551 31.5379C96.5311 31.5379 93.6714 28.6863 93.6714 24.9136C93.6714 20.9268 96.8489 18.2876 100.551 18.2876C104.253 18.2876 107.394 20.9268 107.394 24.9136C107.394 28.9004 104.215 31.5379 100.551 31.5379ZM100.558 21.9056C99.0714 21.9056 97.9166 23.1496 97.9166 24.9306C97.9166 26.5926 98.9245 27.9538 100.558 27.9538C102.025 27.9538 103.18 26.7217 103.18 24.9306C103.18 23.1394 102.025 21.9056 100.558 21.9056Z" fill="white"/>
</g>
<defs>
<clipPath id="clip0_2205_23">
<rect width="123" height="34" fill="white" transform="translate(0 0.110779)"/>
</clipPath>
</defs>
</svg>
