<svg width="60" height="60" viewBox="0 0 60 60" fill="none" xmlns="http://www.w3.org/2000/svg">
<g clip-path="url(#clip0_2211_69)">
<path d="M60 30C60 13.4149 46.5532 0 30 0C13.4149 0 0 13.4468 0 30C0 46.5851 13.4468 60 30 60C46.5532 60 60 46.5532 60 30ZM6.23404 16.9255H20.8404L8.79787 46.7234H51.2979C46.3404 53.0319 38.6383 57.0745 29.9787 57.0745C15 57.0745 2.87234 44.9468 2.87234 29.9787C2.89362 25.2553 4.09574 20.8085 6.23404 16.9255ZM47.3617 29.8936V26.2234H40.0106V16.9468H53.7128C55.8511 20.8191 57.0532 25.266 57.0532 30.0106C57.0532 34.7553 55.8511 39.2021 53.7128 43.0745H19.0319L31.0638 13.2766H8.67021C13.6277 6.96809 21.3298 2.92553 29.9894 2.92553C38.6277 2.92553 46.3404 6.96809 51.3085 13.2766H31.9468V40.383H40.0319V29.883H47.3617V29.8936Z" fill="white"/>
</g>
<defs>
<clipPath id="clip0_2211_69">
<rect width="60" height="60" fill="white"/>
</clipPath>
</defs>
</svg>
