<svg width="25" height="24" viewBox="0 0 25 24" fill="none" xmlns="http://www.w3.org/2000/svg">
<path d="M12.5372 0.0673828C18.3367 0.0657406 18.839 0.0628377 19.2618 0.132812L19.4532 0.166992C21.0029 0.452234 22.37 1.31175 23.3038 2.58008L23.4845 2.83887C23.9973 3.61296 24.3175 4.46664 24.4454 5.39551L24.4884 5.79883C24.4956 5.89892 24.5006 6.72124 24.5031 7.90918C24.5055 9.09724 24.5058 10.6462 24.504 12.1895C24.5023 13.7327 24.4985 15.2709 24.4933 16.4365C24.4907 17.0191 24.4869 17.5086 24.4835 17.8594C24.4818 18.0347 24.4805 18.1753 24.4786 18.2754C24.4777 18.3255 24.4767 18.3657 24.4757 18.3945C24.4752 18.4089 24.4752 18.4203 24.4747 18.4287C24.4745 18.4329 24.4739 18.4361 24.4738 18.4385V18.4414C24.3825 19.0773 24.2617 19.5618 24.0665 20.0479L23.9777 20.2559V20.2568C23.6954 20.8992 23.3368 21.4408 22.8536 21.9541L22.6388 22.1729H22.6378C22.3785 22.4279 22.179 22.6013 21.9445 22.7695L21.6945 22.9385C20.9887 23.3944 20.2859 23.6731 19.4034 23.8379L19.0138 23.9023C19.0138 23.9023 19.0121 23.9022 19.0099 23.9023C19.0075 23.9025 19.0041 23.9031 19.0001 23.9033C18.9917 23.9038 18.9802 23.9038 18.9659 23.9043C18.9372 23.9052 18.8976 23.9063 18.8478 23.9072C18.7478 23.9091 18.607 23.9104 18.4318 23.9121C18.0809 23.9155 17.5907 23.9193 17.0079 23.9219C15.8424 23.9271 14.305 23.9309 12.7618 23.9326C11.2186 23.9344 9.66961 23.9341 8.48157 23.9316C7.88613 23.9304 7.38256 23.9282 7.01575 23.9258L6.37024 23.917C5.36507 23.8406 4.44467 23.5477 3.61145 23.041L3.25891 22.8105C2.0208 21.9391 1.14627 20.6423 0.80188 19.1768L0.740356 18.8818C0.634891 18.3027 0.637817 18.5858 0.637817 12.002C0.637818 10.0425 0.640396 8.51051 0.643677 7.4502C0.646955 6.3908 0.651018 5.80643 0.656372 5.7334C0.675823 5.50692 0.723529 5.199 0.777466 4.93652L0.83313 4.69434C1.35659 2.66126 2.88903 1.03351 4.86536 0.37793L5.26672 0.259766C5.5444 0.187579 6.00226 0.109991 6.26868 0.0859375L6.2677 0.0849609C6.31988 0.0814397 7.04706 0.0777329 8.18372 0.0742188L12.5372 0.0673828ZM12.7433 6.11621C12.8583 6.11974 12.9728 6.12405 13.0714 6.12988L13.3038 6.15039H13.3048C14.5501 6.31398 15.6688 6.83268 16.5675 7.65918L16.7443 7.82812C17.6448 8.72697 18.2067 9.82423 18.4171 11.0957L18.4542 11.3525C18.4724 11.4979 18.4805 11.7675 18.4786 12.042C18.4777 12.1791 18.4745 12.316 18.4689 12.4375L18.4445 12.7412C18.2757 13.9971 17.7639 15.0958 16.9259 16.0029L16.754 16.1816C15.9786 16.9589 15.037 17.4903 13.9874 17.7461L13.7755 17.793C13.0051 17.9519 12.1819 17.9521 11.4044 17.7969L11.0743 17.7207C9.77099 17.3783 8.62837 16.5947 7.82434 15.4971L7.66809 15.2734C7.21376 14.5919 6.92964 13.8979 6.77747 13.0869L6.72083 12.7324V12.7314C6.69807 12.5683 6.6859 12.2917 6.68567 12.0127C6.68555 11.8731 6.68795 11.7343 6.69348 11.6104L6.71887 11.2969C6.89289 10.0282 7.40678 8.91869 8.24036 8.0166L8.41125 7.83984V7.83887C9.42166 6.82656 10.735 6.22931 12.1935 6.11426L12.1925 6.11328C12.2878 6.10609 12.5131 6.10917 12.7433 6.11621ZM12.9435 7.81055C12.1718 7.74392 11.39 7.89407 10.6974 8.24023L10.4054 8.40137C9.91838 8.69669 9.44516 9.14544 9.10852 9.62598L8.97278 9.83398C8.27805 10.9845 8.17808 12.3862 8.68958 13.6182L8.79993 13.8613C9.37336 15.0315 10.4291 15.8535 11.7072 16.1367L11.965 16.1855C12.1092 16.2089 12.3457 16.2207 12.5792 16.2207C12.696 16.2207 12.8138 16.2176 12.921 16.2119L13.1993 16.1865C14.9333 15.9151 16.2894 14.6499 16.6906 12.9688L16.7579 12.6279V12.627C16.7811 12.4748 16.7921 12.2415 16.7921 12.0117C16.7921 11.8966 16.79 11.7804 16.7843 11.6748L16.7579 11.3994C16.6581 10.7718 16.4458 10.2144 16.1085 9.70215L15.9562 9.48535C15.8312 9.31729 15.6016 9.07013 15.4034 8.88379L15.2208 8.72266H15.2198C14.65 8.26952 13.9595 7.96308 13.2491 7.84766L12.9435 7.81055ZM19.255 4.06738C19.3507 4.0702 19.4096 4.07309 19.4611 4.08105C19.4862 4.08495 19.5101 4.09056 19.5363 4.09766L19.6251 4.125C19.8623 4.20826 20.0586 4.34203 20.2101 4.52344L20.2716 4.60352C20.5708 5.02305 20.5931 5.58291 20.337 6.03125L20.2823 6.11914V6.12012C20.2283 6.19977 20.1374 6.29155 20.0333 6.375C19.9812 6.41681 19.9266 6.456 19.8732 6.48926L19.7189 6.57031C19.0297 6.85959 18.2445 6.51041 17.9874 5.83105L17.9435 5.69043C17.9218 5.60545 17.9097 5.48939 17.9083 5.37207C17.9076 5.31325 17.9095 5.25513 17.9142 5.20215L17.9366 5.06055C18.0429 4.63139 18.3467 4.29501 18.754 4.13965L18.9347 4.08398C18.9669 4.07655 19.0108 4.07147 19.0646 4.06836L19.255 4.06738ZM6.35852 2.00781C6.18827 2.02516 5.91865 2.08138 5.6886 2.14258L5.47668 2.2041C4.0097 2.68804 2.93953 3.91163 2.63098 5.45508L2.57825 5.71387L2.64368 5.72754L2.57727 5.71387V5.72754L2.57141 11.8975V16.6562C2.57258 17.17 2.57487 17.552 2.57727 17.8135L2.58704 18.2549C2.77303 19.905 3.90256 21.2839 5.46008 21.8076L5.77747 21.9004C5.90191 21.9317 5.97597 21.9574 6.11536 21.9756C6.25378 21.9936 6.45843 22.0046 6.85364 22.0117C7.64551 22.026 9.21589 22.0244 12.5822 22.0244C15.2593 22.0244 16.7866 22.0235 17.6691 22.0195C18.109 22.0175 18.3899 22.0146 18.5734 22.0107L18.8947 21.9961C19.5264 21.9128 20.129 21.6919 20.6642 21.3457L20.8888 21.1904C21.0756 21.0524 21.3702 20.7706 21.5831 20.5332L21.7618 20.3174C22.1435 19.8023 22.4013 19.2143 22.5236 18.5918L22.5675 18.3232V18.3223C22.5803 18.2195 22.587 17.9765 22.5909 17.0977C22.5949 16.2152 22.5958 14.6875 22.5958 12.0098C22.5958 8.64332 22.5974 7.07316 22.5831 6.28125C22.576 5.88603 22.565 5.6814 22.547 5.54297C22.5379 5.4732 22.5274 5.41972 22.5148 5.36816L22.4718 5.20508C22.0664 3.5975 20.7837 2.38979 19.17 2.06641L18.8439 2.01367H18.8429C18.8342 2.01269 18.8135 2.01219 18.7882 2.01172C18.7606 2.01121 18.7216 2.01123 18.673 2.01074C18.5757 2.00977 18.4377 2.0087 18.2648 2.00781C17.9179 2.00603 17.43 2.00432 16.8488 2.00293C15.6861 2.00015 14.1473 1.99789 12.6085 1.99707C11.07 1.99625 9.53073 1.99735 8.36536 1.99902C7.78283 1.99986 7.29341 2.0004 6.94446 2.00195C6.76999 2.00273 6.62996 2.00391 6.53137 2.00488L6.35852 2.00781Z" fill="#FAF5FF" stroke="#FAF5FF" stroke-width="0.133333"/>
</svg>
